<?xml version="1.0" encoding="utf-8"?>
<!-- Svg Vector Icons : http://www.onlinewebfonts.com/icon -->
<!DOCTYPE svg PUBLIC "-//W3C//DTD SVG 1.1//EN" "http://www.w3.org/Graphics/SVG/1.1/DTD/svg11.dtd">
<svg version="1.1" xmlns="http://www.w3.org/2000/svg" xmlns:xlink="http://www.w3.org/1999/xlink" x="0px" y="0px" viewBox="0 0 1000 1000" enable-background="new 0 0 1000 1000" xml:space="preserve">
<metadata> Svg Vector Icons : http://www.onlinewebfonts.com/icon </metadata>
<g><g transform="translate(0.000000,511.000000) scale(0.100000,-0.100000)"><path d="M711.5,4968c-112.3-56.1-177-118.7-246.1-237.5l-58.3-97.1V121.4c0-4438.5,0-4514.1,43.2-4598.3c21.6-45.3,77.7-120.9,123.1-164.1c161.9-157.6,21.6-149,2573.3-149c1511.2,0,2318.6,8.7,2370.4,21.6c129.5,36.7,256.9,149,330.3,291.4l64.8,127.4l6.4,1161.4l6.5,1161.4h1655.8c1565.2,0,1660.2,2.2,1742.2,41c47.5,21.6,112.3,66.9,144.6,101.5c131.7,140.3,125.2,28.1,125.2,2301.3c0,1964.5-2.1,2083.3-41,2165.3c-49.6,110.1-192.1,239.6-297.9,267.7c-54,15.1-628.2,23.8-1705.5,23.8H5925l-6.5,859.2c-8.6,954.2-4.3,932.6-161.9,1105.3c-166.2,185.7,47.5,172.7-2607.9,170.5C851.8,5009,793.5,5009,711.5,4968z M5530,4646.3c36.7-38.9,69.1-97.1,75.5-146.8c8.7-45.3,15.1-429.6,15.1-852.7v-772.9h-161.9h-161.9v464.2v464.1l-2141.6-4.3l-2143.7-6.5l-6.5-3372.1l-4.3-3374.2h2148h2148l4.3,459.8l6.5,457.7h151.1h151.1l6.5-1057.8c4.3-580.7,0-1101-6.5-1152.8c-10.8-69.1-34.6-116.6-86.3-168.4l-71.3-71.2H3172.5c-2506.4,0-2370.4-6.5-2441.6,129.5c-28.1,56.1-32.4,574.2-32.4,4492.5v4427.7l73.4,73.4l73.4,73.4h2309.9h2309.9L5530,4646.3z M4994.6,3186.9v-313H3673.4c-865.7,0-1351.4-8.6-1405.4-23.8c-105.8-28.1-248.3-157.6-297.9-267.7c-38.9-82-41-200.8-41-2148c0-1271.5,8.6-2089.7,21.6-2137.2c28.1-105.8,142.5-235.3,246.1-282.8c82-36.7,172.7-41,1444.2-41h1353.6v-313v-313H3148.8H1303V408.5c0,1683.9,6.5,3069.9,15.1,3076.3c6.5,8.6,837.6,15.1,1845.8,15.1h1830.7V3186.9z M9236.7,2517.7c43.2-41,54-73.4,54-161.9v-107.9H5761H2231.3v107.9c0,90.7,10.8,118.7,56.1,161.9l58.3,54h3419.6h3419.6L9236.7,2517.7z M9290.6,1643.4v-302.2H5761H2231.3v302.2v302.2H5761h3529.7V1643.4z M9290.6-293.1v-1332l-47.5-49.6l-45.3-49.6H5763.1H2330.6l-49.7,47.5l-49.6,45.3v1336.3v1334.1H5761h3529.7V-293.1z"/><path d="M1093.6,4385.1c-49.7-21.6-92.8-84.2-92.8-140.3c0-51.8,99.3-140.3,159.8-140.3c58.3,0,142.5,88.5,142.5,151.1C1303,4346.2,1182.1,4419.6,1093.6,4385.1z"/><path d="M2548.6,4391.6c-8.6-6.5-15.1-75.6-15.1-151.1v-136h593.7h593.7v151.1v151.1h-578.6C2822.8,4406.7,2555.1,4400.2,2548.6,4391.6z"/><path d="M3010.6-3332.7c-364.8-116.6-408-623.9-69.1-803.1c300.1-157.6,649.8,51.8,649.8,388.6C3591.3-3447.1,3302.1-3239.9,3010.6-3332.7z M3261-3650.1c43.2-34.5,34.5-155.4-13-198.6c-99.3-90.7-265.5,10.8-233.2,142.5C3038.7-3613.3,3179-3581,3261-3650.1z"/><path d="M7280.8,684.9c-213.7-56.1-375.6-192.1-490.1-408c-51.8-101.5-58.3-133.9-58.3-328.1c0-181.3,8.7-231,51.8-317.4c174.8-356.2,552.6-522.4,928.3-408c142.5,43.2,157.6,43.2,233.1,13c45.3-19.4,142.5-41,213.7-47.5C8468.1-839.3,8779-653.6,8915-360c86.3,192.1,88.5,425.3,2.2,610.9c-116.6,252.6-369.2,433.9-639,457.7c-92.8,8.6-157.6,0-272-38.9L7855,617.9l-140.3,47.5C7557.1,719.4,7427.6,725.9,7280.8,684.9z M7567.9,402.1c23.7-10.8,17.2-41-34.6-146.8c-58.3-116.6-66.9-155.4-66.9-317.3c0-155.4,8.7-202.9,60.4-310.9c32.4-69.1,58.3-129.5,58.3-133.8c0-4.3-43.2-8.6-97.1-8.6c-423.1,0-623.9,513.8-317.3,805.2C7270,384.8,7468.6,438.8,7567.9,402.1z M8457.3,339.4c218-127.4,287.1-412.3,153.3-628.2c-84.2-136-246.1-226.7-401.5-226.7h-105.8l51.8,105.8c110.1,215.9,110.1,492.2,2.2,686.5c-43.2,77.7-49.6,103.6-28.1,118.7C8178.8,430.1,8355.9,399.9,8457.3,339.4z M7900.4,149.5c47.5-90.7,47.5-310.9,0-401.5c-41-79.9-69.1-73.4-112.2,30.2c-51.8,123-25.9,351.9,47.5,425.3C7859.3,227.2,7861.5,225,7900.4,149.5z"/><path d="M2533.5-40.5v-453.3h1845.8h1845.8v453.3v453.3H4379.3H2533.5V-40.5z M5922.9-40.5v-151.1H4379.3H2835.8v151.1v151.1h1543.6h1543.6V-40.5z"/><path d="M2548.6-1132.9c-8.6-8.6-15.1-77.7-15.1-153.3v-136h464.2H3464l-6.5,146.8l-6.5,144.6l-444.7,6.5C2762.4-1122.1,2557.3-1126.4,2548.6-1132.9z"/><path d="M3779.2-1132.9c-8.6-8.6-15.1-77.7-15.1-153.3v-136h464.2h466.3l-6.5,146.8l-6.5,144.6l-444.7,6.5C3992.9-1122.1,3787.8-1126.4,3779.2-1132.9z"/><path d="M4994.6-1271v-151.1h464.2H5925l-6.5,146.8l-6.4,144.6l-457.7,6.5l-459.8,4.3V-1271z"/><path d="M6225.1-1271v-151.1h453.4h453.4v151.1v151.1h-453.4h-453.4V-1271z"/></g></g>
</svg>