<?xml version="1.0" encoding="iso-8859-1"?>
<!-- Generator: Adobe Illustrator 19.0.0, SVG Export Plug-In . SVG Version: 6.00 Build 0)  -->
<svg version="1.1" id="Capa_1" xmlns="http://www.w3.org/2000/svg" xmlns:xlink="http://www.w3.org/1999/xlink" x="0px" y="0px"
	 viewBox="0 0 511 511" style="enable-background:new 0 0 511 511;" xml:space="preserve">
<g>
	<path d="M471.5,39.999h-432c-21.78,0-39.5,17.72-39.5,39.5v288c0,21.78,17.72,39.5,39.5,39.5h150.394l-12.25,49H159.5
		c-4.142,0-7.5,3.358-7.5,7.5s3.358,7.5,7.5,7.5h23.978c0.009,0,0.019,0.002,0.028,0.002c0.007,0,0.013-0.002,0.02-0.002h143.948
		c0.007,0,0.013,0.002,0.02,0.002c0.009,0,0.019-0.002,0.028-0.002H351.5c4.142,0,7.5-3.358,7.5-7.5s-3.358-7.5-7.5-7.5h-18.144
		l-12.25-49H471.5c21.78,0,39.5-17.72,39.5-39.5v-288C511,57.719,493.28,39.999,471.5,39.999z M39.5,54.999h432
		c13.509,0,24.5,10.991,24.5,24.5v248.5H15v-248.5C15,65.99,25.991,54.999,39.5,54.999z M317.894,455.999H193.106l12.25-49h100.289
		L317.894,455.999z M471.5,391.999h-432c-13.509,0-24.5-10.991-24.5-24.5v-24.5h481v24.5C496,381.008,485.009,391.999,471.5,391.999
		z"/>
	<path d="M151.5,278.999h208c12.958,0,23.5-10.542,23.5-23.5v-128c0-12.958-10.542-23.5-23.5-23.5h-208
		c-12.958,0-23.5,10.542-23.5,23.5v128C128,268.457,138.542,278.999,151.5,278.999z M143,127.499c0-4.687,3.813-8.5,8.5-8.5h208
		c4.687,0,8.5,3.813,8.5,8.5v128c0,4.687-3.813,8.5-8.5,8.5h-208c-4.687,0-8.5-3.813-8.5-8.5V127.499z"/>
	<path d="M167.5,246.999h72c4.142,0,7.5-3.358,7.5-7.5s-3.358-7.5-7.5-7.5h-72c-4.142,0-7.5,3.358-7.5,7.5
		S163.358,246.999,167.5,246.999z"/>
	<path d="M208,215.499c0,4.142,3.358,7.5,7.5,7.5h24c4.142,0,7.5-3.358,7.5-7.5s-3.358-7.5-7.5-7.5h-24
		C211.358,207.999,208,211.357,208,215.499z"/>
	<path d="M167.5,222.999h24c4.142,0,7.5-3.358,7.5-7.5s-3.358-7.5-7.5-7.5h-24c-4.142,0-7.5,3.358-7.5,7.5
		S163.358,222.999,167.5,222.999z"/>
	<path d="M343.5,207.999h-24c-4.142,0-7.5,3.358-7.5,7.5s3.358,7.5,7.5,7.5h24c4.142,0,7.5-3.358,7.5-7.5
		S347.642,207.999,343.5,207.999z"/>
	<path d="M271.5,222.999h24c4.142,0,7.5-3.358,7.5-7.5s-3.358-7.5-7.5-7.5h-24c-4.142,0-7.5,3.358-7.5,7.5
		S267.358,222.999,271.5,222.999z"/>
	<path d="M271.5,246.999h24c4.142,0,7.5-3.358,7.5-7.5s-3.358-7.5-7.5-7.5h-24c-4.142,0-7.5,3.358-7.5,7.5
		S267.358,246.999,271.5,246.999z"/>
	<path d="M175.5,190.999h32c8.547,0,15.5-6.953,15.5-15.5v-16c0-8.547-6.953-15.5-15.5-15.5h-32c-8.547,0-15.5,6.953-15.5,15.5v16
		C160,184.046,166.953,190.999,175.5,190.999z M208,159.499v16c0,0.275-0.224,0.5-0.5,0.5H199v-17h8.5
		C207.776,158.999,208,159.224,208,159.499z M175,159.499c0-0.275,0.224-0.5,0.5-0.5h8.5v17h-8.5c-0.276,0-0.5-0.225-0.5-0.5
		V159.499z"/>
	<path d="M311.5,190.999h16c12.958,0,23.5-10.542,23.5-23.5s-10.542-23.5-23.5-23.5h-16c-12.958,0-23.5,10.542-23.5,23.5
		S298.542,190.999,311.5,190.999z M311.5,158.999h16c4.687,0,8.5,3.813,8.5,8.5s-3.813,8.5-8.5,8.5h-16c-4.687,0-8.5-3.813-8.5-8.5
		S306.813,158.999,311.5,158.999z"/>
	<g>
		<path d="M255.5,381.999c-7.995,0-14.5-6.505-14.5-14.5s6.505-14.5,14.5-14.5s14.5,6.505,14.5,14.5S263.495,381.999,255.5,381.999z
			"/>
	</g>
</g>
<g>
</g>
<g>
</g>
<g>
</g>
<g>
</g>
<g>
</g>
<g>
</g>
<g>
</g>
<g>
</g>
<g>
</g>
<g>
</g>
<g>
</g>
<g>
</g>
<g>
</g>
<g>
</g>
<g>
</g>
</svg>
