<svg xmlns="http://www.w3.org/2000/svg" width="29.897" height="29.897" viewBox="0 0 29.897 29.897"><g transform="translate(-402.469 -451.329)"><circle cx="14.948" cy="14.948" r="14.948" transform="translate(402.469 451.329)" fill="#f0f0f0"/><path d="M424.774,467.868v2.784l-7.317,4.255-7.4-4.334v-2.7h1.59v1.79l4.932,2.823v-3.062h1.631v3.1l4.971-2.9v-1.75Z" fill="#2ea4d0"/><path d="M418.212,472.521v1.947l4.972-4.85Z" fill="#2d84c0"/><path d="M423.184,469.618l1.591-1.75h-1.591Z" fill="#2d84c0"/><path d="M424.774,470.652l-1.59-1.034-4.971,4.85Z" fill="#364691"/><path d="M416.582,472.482v1.913l-4.932-4.737Z" fill="#2d84c0"/><path d="M411.65,469.658l-1.59.915v-2.7Z" fill="#2d84c0"/><path d="M411.65,464.594h-1.59v-2.731l7.357-4.216,7.357,4.216v2.731h-1.59v-1.75l-5.767-3.288L411.65,462.9Z" fill="#2ea4d0"/><path d="M410.06,461.863l1.59,1.034v1.7Z" fill="#2d84c0"/><path d="M417.417,457.647l-5.767,5.25,5.767-3.341Z" fill="#2d84c0"/><path d="M417.417,457.647l5.767,5.2-5.767-3.288Z" fill="#364691"/><path d="M424.774,461.863l-1.59,2.731h1.59Z" fill="#364691"/><path d="M423.184,462.844l1.591-.981-1.591,2.731Z" fill="#2ea4d0"/><path d="M417.417,462.605a3.569,3.569,0,1,0,3.569,3.57,3.569,3.569,0,0,0-3.569-3.57Zm0,5.445a1.875,1.875,0,1,1,1.875-1.875h0A1.875,1.875,0,0,1,417.417,468.05Z" fill="#2d84c0"/><path d="M417.417,457.647l7.357,4.216-1.59.981Z" fill="#2d84c0"/></g></svg>