<svg id="aoa" xmlns="http://www.w3.org/2000/svg" xmlns:xlink="http://www.w3.org/1999/xlink" viewBox="0 0 30.642 30.643">
  <defs>
    <style>
      .cls-1 {
        fill: #303030;
      }

      .cls-2, .cls-6 {
        opacity: 0.5;
      }

      .cls-2 {
        fill: url(#linear-gradient);
      }

      .cls-3 {
        opacity: 0.8;
        fill: url(#linear-gradient-2);
      }

      .cls-4 {
        fill: #fff;
      }

      .cls-5 {
        opacity: 0.3;
      }
    </style>
    <linearGradient id="linear-gradient" y1="0.5" x2="1" y2="0.5" gradientUnits="objectBoundingBox">
      <stop offset="0.005" stop-color="#b5fad9" stop-opacity="0.902"/>
      <stop offset="0.256" stop-color="#92e6ad" stop-opacity="0.902"/>
      <stop offset="0.386" stop-color="#8ddfac" stop-opacity="0.902"/>
      <stop offset="1" stop-color="#456b94" stop-opacity="0.902"/>
    </linearGradient>
    <linearGradient id="linear-gradient-2" y1="0.5" x2="1" y2="0.5" gradientUnits="objectBoundingBox">
      <stop offset="0" stop-color="#5a31be" stop-opacity="0.302"/>
      <stop offset="0.135" stop-color="#538cd7" stop-opacity="0.502"/>
      <stop offset="0.379" stop-color="#9ee0f5" stop-opacity="0.502"/>
      <stop offset="0.728" stop-color="#85e6e7" stop-opacity="0.702"/>
      <stop offset="1" stop-color="#67adca" stop-opacity="0.902"/>
    </linearGradient>
  </defs>
  <circle id="Ellipse_248" data-name="Ellipse 248" class="cls-1" cx="15.321" cy="15.321" r="15.321" transform="translate(0 0)"/>
  <g id="XMLID_1_">
    <path id="XMLID_15_" class="cls-2" d="M26.562,17.589l-22.479.435L15.25,4.536Z"/>
    <path id="XMLID_14_" class="cls-3" d="M14.978,5.013,15.4,25.966,4.04,18.011Z"/>
    <g id="XMLID_10_">
      <path id="XMLID_11_" class="cls-4" d="M15.427,26.481a.263.263,0,0,1-.154-.049l-11.5-8.154a.269.269,0,0,1-.11-.182.265.265,0,0,1,.059-.2L15.009,4.257a.264.264,0,0,1,.2-.1h0a.266.266,0,0,1,.2.093L26.92,17.675a.262.262,0,0,1,.062.2.267.267,0,0,1-.106.184L15.585,26.429A.269.269,0,0,1,15.427,26.481ZM4.31,18.01l11.113,7.877L26.33,17.805,15.217,4.839Z"/>
    </g>
    <g id="XMLID_8_">
      <path id="XMLID_9_" class="cls-4" d="M15.427,26.268A.266.266,0,0,1,15.161,26L14.948,4.85a.265.265,0,0,1,.263-.268h0a.266.266,0,0,1,.266.263L15.693,26a.265.265,0,0,1-.263.268Z"/>
    </g>
    <g id="XMLID_6_" class="cls-5">
      <path id="XMLID_7_" class="cls-4" d="M3.923,18.045a.073.073,0,0,1,0-.145L26.5,17.474h0a.073.073,0,0,1,0,.145l-22.582.426Z"/>
    </g>
    <g id="XMLID_4_" class="cls-6">
      <path id="XMLID_5_" class="cls-4" d="M7.757,20.951a.121.121,0,0,1-.006-.242c.512-.026.991-.036,1.454-.045,1.7-.036,2.922-.062,3.4-.8s.206-2.279-.914-4.952c-.591-1.408-.671-2.2-.253-2.488.328-.226.925-.085,1.827.433a21.473,21.473,0,0,1,2.549,1.808c1.715,1.372,3.3,2.867,3.315,2.882a.121.121,0,0,1-.166.176c-.016-.015-1.594-1.5-3.3-2.87a21.143,21.143,0,0,0-2.518-1.786c-1-.573-1.4-.558-1.569-.444-.393.272.043,1.493.338,2.2,1.171,2.792,1.438,4.34.894,5.177s-1.829.873-3.6.911c-.462.01-.939.02-1.447.045Z"/>
    </g>
    <g id="XMLID_2_" class="cls-6">
      <path id="XMLID_3_" class="cls-4" d="M22.883,20.951a.12.12,0,0,1-.1-.194,7.023,7.023,0,0,0,.752-1.3,3.787,3.787,0,0,0,.3-2.624,3.543,3.543,0,0,0-2.689-2.062,14.77,14.77,0,0,1-6.024-3.083,5.734,5.734,0,0,1-2.03-3.718,3.186,3.186,0,0,1,2.075-3.227.121.121,0,1,1,.092.224,2.953,2.953,0,0,0-1.926,2.989,5.5,5.5,0,0,0,1.952,3.554,14.539,14.539,0,0,0,5.925,3.028,3.763,3.763,0,0,1,2.854,2.219,3.938,3.938,0,0,1-.307,2.8,7.145,7.145,0,0,1-.779,1.346A.117.117,0,0,1,22.883,20.951Z"/>
    </g>
  </g>
</svg>
