<svg id="bch" xmlns="http://www.w3.org/2000/svg" viewBox="0 0 29.686 29.686">
  <defs>
    <style>
      .cls-1 {
        fill: #00ca36;
      }

      .cls-2 {
        fill: #fff;
      }

      .cls-3 {
        fill: #c20e1a;
      }
    </style>
  </defs>
  <path id="Path_2863" data-name="Path 2863" class="cls-1" d="M0,14.843A14.843,14.843,0,1,0,14.843,0,14.843,14.843,0,0,0,0,14.843"/>
  <path id="Path_2864" data-name="Path 2864" class="cls-2" d="M14.843,27.5A12.663,12.663,0,1,1,27.506,14.842,12.677,12.677,0,0,1,14.843,27.5"/>
  <path id="Path_2865" data-name="Path 2865" class="cls-3" d="M25.232,14.843A10.389,10.389,0,1,1,14.843,4.454,10.389,10.389,0,0,1,25.232,14.843"/>
  <path id="Path_2866" data-name="Path 2866" class="cls-1" d="M14.843,4.449A10.394,10.394,0,1,1,4.449,14.843,10.395,10.395,0,0,1,14.843,4.449"/>
  <path id="Path_2867" data-name="Path 2867" class="cls-2" d="M19.909,15.339l-.006-.011v0c0-.011-.006-.022-.01-.034h0v0a2.127,2.127,0,0,0-.694-1.039h0l-.03-.023-.014-.01-.01-.007,0,0-.009-.007,0,0-.009-.007,0,0-.01-.007,0,0-.01-.007,0,0-.01-.007,0,0-.006-.009-.006,0-.01-.007-.006,0-.011-.007-.006,0-.01-.007L19,14.1l-.011-.008-.006,0-.012-.007-.006,0-.012-.007-.006,0-.012-.007-.006,0-.012-.007-.006,0L18.9,14.04l-.006,0-.013-.007-.007,0-.013-.008-.006,0-.013-.008-.007,0-.013-.008-.007,0-.013-.008-.007,0-.014-.007-.007,0-.014-.007-.01-.005h0a.225.225,0,0,1-.021-.012,2.962,2.962,0,0,0-.949-.3,2.672,2.672,0,0,0,.254-.319l.012-.018h0l.006-.009.007-.012,0-.005.007-.012,0-.006.007-.012,0-.006.007-.012,0-.006.007-.012,0-.006.006-.012,0-.006.006-.012,0-.005.007-.012,0-.005.006-.012,0-.005.006-.011,0-.005.006-.011,0-.005.006-.011,0-.005.006-.01,0-.005.006-.01,0-.005,0-.01,0-.005,0-.01,0-.005,0-.01,0-.005,0-.01,0-.005,0-.01,0-.005,0-.009,0-.005,0-.009,0-.005,0-.009,0-.005,0-.011.006-.014c0-.01.008-.021.013-.032h0a1.889,1.889,0,0,0,.1-1.107h0v0h0a.282.282,0,0,0-.007-.031v0h0l0-.008a.4.4,0,0,0-.011-.044c0-.014-.008-.029-.012-.043l0-.01v0l-.009-.03h0a1.884,1.884,0,0,0-.618-.924h0l-.026-.021-.012-.009-.009-.007,0,0-.008-.006,0,0-.008-.006,0,0L17.6,10.6l0,0-.009-.007,0,0-.009-.007,0,0-.009-.007,0,0-.009-.007,0,0-.009-.007,0,0-.01-.006,0,0-.01-.006,0,0-.01-.006,0,0-.01-.006,0,0-.011-.007,0,0-.011-.007V10.5l-.012-.007,0,0-.012-.007-.006,0-.011-.006-.006,0-.012-.007-.006,0-.012-.007-.007,0-.012-.008-.007,0-.013-.007-.006,0-.013-.007-.009,0h0l-.019-.011a2.852,2.852,0,0,0-2.014-.2l-.189.048-.477-1.859-1.105.286.476,1.852-.885.228L12.6,8.914,11.5,9.2l.476,1.852-2.281.587.3,1.18.919-.236a.57.57,0,0,1,.693.409h0l1.276,4.965a.379.379,0,0,1-.273.462l-.805.207.047,1.4,2.279-.586.482,1.848,1.106-.285-.476-1.852.885-.227.476,1.852,1.106-.284-.478-1.86.46-.12a3.212,3.212,0,0,0,1.879-1.287l.014-.02h0l.007-.009.009-.014,0-.007.009-.014,0-.007.008-.013,0-.007.008-.013,0-.007.008-.013,0-.006.008-.013,0-.007.007-.013,0-.006.007-.013,0-.007.007-.012,0-.007.007-.012,0-.007.007-.012,0-.007.007-.012,0-.006.006-.012,0-.006.007-.012,0-.006.006-.011,0,0,.006-.011,0,0,.006-.011,0,0,.006-.011,0,0,.006-.011,0,0,.006-.011,0,0,0-.011,0,0,0-.01,0,0,0-.012.007-.015c0-.012.011-.023.015-.035h0a2.122,2.122,0,0,0,.108-1.245h0c0-.011,0-.023-.008-.034v0h-.012l0,0c0-.016-.007-.033-.012-.049s0-.029,0-.044m-6.5-3.322c.189-.048.969-.244,1.226-.311a1.668,1.668,0,0,1,1.127.087l.01.005.005,0,.007,0,0,0,.007,0,0,0,.006,0,0,0,.007,0,0,0,.007,0,0,0,.006,0,0,0,.007,0,0,0,.007,0,0,0,.006,0,0,0,.006,0,0,0,.005,0,0,0,.006,0,0,0,.005,0,0,0,.005,0,0,0,.005,0,0,0,.005,0,0,0,.005,0,0,0,.005,0h0l.005,0h0l.005,0h0l.005,0h0l0,0h0l.005,0,.007,0,.015.01a.952.952,0,0,1,.338.484v0a.1.1,0,0,1,0,.016h0l0,.005c0,.008,0,.015.007.023a.109.109,0,0,1,0,.025l0,.005h0a.075.075,0,0,0,0,.016v0a.963.963,0,0,1-.063.587l-.007.017,0,.008,0,.005v0l0,.005v0l0,.005v0l0,.005v0l0,.005v0l0,.005v0l0,.005v0l0,.005,0,0,0,.005,0,0,0,.005,0,0,0,.005,0,0,0,.006,0,0,0,.006,0,0,0,.006,0,0,0,.006,0,0,0,.006,0,0,0,.006,0,0,0,.006,0,0,0,.006,0,0,0,.006h.006l0,.006,0,0,0,.006,0,0,0,.006,0,0-.007.009a1.664,1.664,0,0,1-.946.62c-.258.066-1.036.27-1.225.319Zm4.324,3.806,0,.005h0c0,.006,0,.011,0,.017h0a.98.98,0,0,1-.089.641l-.01.018,0,.008,0,.006,0,0,0,0,0,0,0,0,0,0,0,.006,0,0,0,.006,0,0,0,.006,0,0,0,.006,0,0,0,.006,0,0,0,.006,0,0,0,.006,0,0,0,.006,0,0,0,.006,0,0,0,.006,0,0,0,.006,0,0,0,.007,0,0,0,.007,0,0,0,.007,0,0,0,.007,0,0,0,.007,0,0,0,.007,0,0,0,.007,0,0,0,.007,0,0,0,.007,0,0-.008.01a2.1,2.1,0,0,1-1.13.7c-.305.079-1.227.32-1.452.377l-.628-2.443c.224-.058,1.149-.29,1.454-.369a2.1,2.1,0,0,1,1.326.068l.012.005.006,0,.009,0h0l.008,0h0l.008,0h0l.008,0,0,0,.008,0,0,0,.008,0,0,0,.008,0,0,0,.006,0,0,0,.007,0,0,0,.007,0,0,0,.006,0,0,0,.007,0,0,0,.007,0,0,0,.006,0,0,0,.007,0,0,0,.007,0,0,0,.006,0,0,0,.006,0,0,0,.006,0,0,0,.006,0,0,0,.006,0,0,0,0,0,0,0,.006,0,.007.005.017.011a.989.989,0,0,1,.387.519l0,0,0,.017h0l0,.005c0,.008,0,.016.007.025s.008.007.007.018Z"/>
</svg>
