<svg xmlns="http://www.w3.org/2000/svg" viewBox="0 0 29.9 29.9"><defs><style>.cls-1{fill:#8b5bfc;}.cls-2{fill:#fff;}</style></defs><title>bird crypto</title><g id="Capa_2" data-name="Capa 2"><g id="banderas"><path class="cls-1" d="M29.45,18.56A14.94,14.94,0,1,1,18.56.45,14.95,14.95,0,0,1,29.45,18.56Z"/><path class="cls-2" d="M21.21,7.67a4.06,4.06,0,0,0-5.75,0,4,4,0,0,0-1.22,2.92,4.08,4.08,0,0,0,4.06,4.09,3.47,3.47,0,0,0-1.35-2h0a2.5,2.5,0,1,1,3.46-.74l0,0a6.53,6.53,0,0,1,.54,1c.07.18.14.36.2.55a4.16,4.16,0,0,0,1.19-2.19A4.39,4.39,0,0,1,24.2,8.83,4.32,4.32,0,0,1,21.21,7.67Z"/><path class="cls-2" d="M20.68,15.52A5.84,5.84,0,0,0,16.63,10a1.76,1.76,0,0,0,.63,2,4.26,4.26,0,1,1-3.7-.52,5.12,5.12,0,0,1,0-1.61,5.83,5.83,0,0,0-4.34,6.78l-2,.5a1.52,1.52,0,0,0,1.61,1.19l.92-.22c.12.23.25.46.39.68l-3.73.9a1.51,1.51,0,0,0,1.74,1.16h0l3.14-.76a6.34,6.34,0,0,0,.81.54L5.5,22.25a1.53,1.53,0,0,0,1.17,1.14,2.19,2.19,0,0,0,.51,0l9-2.23h0A5.82,5.82,0,0,0,20.68,15.52Z"/></g></g></svg>