<svg id="btc" xmlns="http://www.w3.org/2000/svg" viewBox="0 0 30.317 30.322">
  <defs>
    <style>
      .cls-1 {
        fill: #f7931a;
      }

      .cls-2 {
        fill: #fff;
      }
    </style>
  </defs>
  <path id="Path_2859" data-name="Path 2859" class="cls-1" d="M29.864,18.828A15.155,15.155,0,1,1,18.824.454a15.157,15.157,0,0,1,11.04,18.374Z"/>
  <path id="Path_2860" data-name="Path 2860" class="cls-2" d="M21.843,13c.3-2.017-1.234-3.1-3.334-3.825l.681-2.733-1.663-.415-.663,2.661q-.665-.164-1.332-.314L16.2,5.7l-1.663-.415-.681,2.732c-.362-.082-.717-.164-1.062-.25l0-.009L10.5,7.182,10.058,8.96s1.234.283,1.208.3a.885.885,0,0,1,.775.967l-.776,3.113a1.5,1.5,0,0,1,.173.055l-.176-.044-1.088,4.361a.6.6,0,0,1-.763.4c.017.024-1.209-.3-1.209-.3l-.826,1.9,2.165.54c.4.1.8.206,1.186.306l-.688,2.764,1.662.415L12.382,21c.454.124.894.237,1.326.344l-.679,2.722,1.663.415.689-2.759c2.836.537,4.969.32,5.867-2.245a2.92,2.92,0,0,0-1.528-4.035A2.647,2.647,0,0,0,21.843,13Zm-3.8,5.329c-.514,2.066-3.992.949-5.12.669l.913-3.662c1.129.282,4.744.839,4.207,2.993m.515-5.358c-.469,1.878-3.364.924-4.3.69l.828-3.321c.939.233,3.963.67,3.475,2.631Z"/>
</svg>
