<svg xmlns="http://www.w3.org/2000/svg" xmlns:xlink="http://www.w3.org/1999/xlink" viewBox="0 0 29.898 29.898">
  <defs>
    <style>
      .cls-1 {
        fill: #152569;
      }

      .cls-2 {
        clip-path: url(#clip-path);
      }

      .cls-3 {
        fill: url(#linear-gradient);
      }

      .cls-4 {
        fill: #fff;
      }
    </style>
    <clipPath id="clip-path">
      <path id="Path_2871" data-name="Path 2871" d="M13.414,22.394a8.98,8.98,0,1,1,8.98,8.98,8.98,8.98,0,0,1-8.98-8.98m-2.684,0A11.664,11.664,0,1,0,22.394,10.73,11.664,11.664,0,0,0,10.73,22.394"/>
    </clipPath>
    <linearGradient id="linear-gradient" x1="-15.019" y1="-8.795" x2="-15.018" y2="-8.795" gradientUnits="objectBoundingBox">
      <stop offset="0" stop-color="#f4d933"/>
      <stop offset="1" stop-color="#e3821f"/>
    </linearGradient>
  </defs>
  <g id="btg" transform="translate(-7.446 -7.445)">
    <path id="Path_2868" data-name="Path 2868" class="cls-1" d="M22.394,12.176A10.219,10.219,0,1,0,32.613,22.395,10.219,10.219,0,0,0,22.394,12.176"/>
    <path id="Path_2869" data-name="Path 2869" class="cls-1" d="M7.446,22.394A14.949,14.949,0,1,0,22.394,7.446,14.949,14.949,0,0,0,7.446,22.394"/>
    <g id="Group_1322" data-name="Group 1322">
      <g id="Group_1321" data-name="Group 1321" class="cls-2">
        <path id="Path_2870" data-name="Path 2870" class="cls-3" d="M26.968,0,44.789,26.968,17.82,44.789,0,17.82Z"/>
      </g>
    </g>
    <path id="Path_2872" data-name="Path 2872" class="cls-4" d="M18.506,26.382l.449-.9h5.384a1.346,1.346,0,0,0,0-2.692H19.853v-.9h4.486a2.243,2.243,0,1,1,0,4.486Z"/>
    <path id="Path_2873" data-name="Path 2873" class="cls-4" d="M24.338,26.631H18.1l.7-1.4h5.538a1.1,1.1,0,1,0,0-2.194H19.6v-1.4h4.736a2.493,2.493,0,0,1,0,4.986m-5.429-.5h5.429a1.994,1.994,0,1,0,0-3.988H20.1v.4h4.237a1.595,1.595,0,1,1,0,3.19H19.109Z"/>
    <path id="Path_2874" data-name="Path 2874" class="cls-4" d="M18.506,18.257l.449.9H23.74a1.346,1.346,0,1,1,0,2.692H20.3v.9h3.44A2.243,2.243,0,0,0,25.983,20.5h0a2.243,2.243,0,0,0-2.243-2.243Z"/>
    <path id="Path_2875" data-name="Path 2875" class="cls-4" d="M23.74,22.993H20.051V21.6H23.74a1.1,1.1,0,1,0,0-2.194H18.8l-.7-1.4H23.74a2.493,2.493,0,0,1,0,4.986m-3.19-.5h3.19a1.994,1.994,0,0,0,0-3.988H18.909l.2.4h4.631a1.595,1.595,0,0,1,0,3.19h-3.19v.4Z"/>
    <rect id="Rectangle_244" data-name="Rectangle 244" class="cls-4" width="0.897" height="8.075" transform="translate(19.852 18.307)"/>
    <path id="Path_2876" data-name="Path 2876" class="cls-4" d="M21,26.631H19.6V18.057H21Zm-.9-.5h.4V18.556h-.4Z"/>
    <rect id="Rectangle_245" data-name="Rectangle 245" class="cls-4" width="0.897" height="1.795" transform="translate(20.949 16.911)"/>
    <path id="Path_2877" data-name="Path 2877" class="cls-4" d="M21.971,18.83H20.825V16.786h1.146Zm-.9-.249h.648V17.036h-.648Z"/>
    <rect id="Rectangle_246" data-name="Rectangle 246" class="cls-4" width="0.897" height="1.795" transform="translate(22.893 16.911)"/>
    <path id="Path_2878" data-name="Path 2878" class="cls-4" d="M23.915,18.83H22.769V16.786h1.146Zm-.9-.249h.648V17.036h-.648Z"/>
    <rect id="Rectangle_247" data-name="Rectangle 247" class="cls-4" width="0.897" height="1.794" transform="translate(20.949 25.884)"/>
    <path id="Path_2879" data-name="Path 2879" class="cls-4" d="M21.971,27.8H20.825V25.759h1.146Zm-.9-.249h.648V26.009h-.648Z"/>
    <rect id="Rectangle_248" data-name="Rectangle 248" class="cls-4" width="0.897" height="1.794" transform="translate(22.893 25.884)"/>
    <path id="Path_2880" data-name="Path 2880" class="cls-4" d="M23.915,27.8H22.769V25.759h1.146Zm-.9-.249h.648V26.009h-.648Z"/>
    <path id="Path_2881" data-name="Path 2881" class="cls-4" d="M22.394,30.343A7.948,7.948,0,1,1,30.342,22.4a7.957,7.957,0,0,1-7.948,7.948m0-15.1a7.153,7.153,0,1,0,7.153,7.153,7.161,7.161,0,0,0-7.153-7.153"/>
  </g>
</svg>
