<svg xmlns="http://www.w3.org/2000/svg" viewBox="0 0 29.9 29.9"><defs><style>.cls-1{fill:#263a8c;}.cls-2{fill:#fff;}</style></defs><title>btnt crypto</title><g id="Capa_2" data-name="Capa 2"><g id="banderas"><path class="cls-1" d="M29.45,18.56A14.94,14.94,0,1,1,18.56.45,14.95,14.95,0,0,1,29.45,18.56Z"/><path class="cls-2" d="M19.31,22.34c-1,0-2.58.6-4.39.6s-3.18-.6-4.15-.6A5.06,5.06,0,0,0,9,22.7a6.43,6.43,0,0,1,2.21.22,14.09,14.09,0,0,0,3.54.62c1,0,3.8-.63,4.57-.74A15.08,15.08,0,0,1,21,22.68,3.62,3.62,0,0,0,19.31,22.34Z"/><path class="cls-2" d="M15,22.61a7.6,7.6,0,0,0,2.51-.49,5.11,5.11,0,0,1,2.09-.3,2.86,2.86,0,0,0-1.94-.31A11,11,0,0,1,15,22c-1.07,0-2.56-.58-3.15-.58a4.58,4.58,0,0,0-1.28.25,17.58,17.58,0,0,1,2.34.58A5.86,5.86,0,0,0,15,22.61Z"/><path class="cls-2" d="M25.15,16.43c0-.09-.09-.19-.22-.27a1.06,1.06,0,0,0-.75-.24h-.1l-.24,0a1.15,1.15,0,0,0-.24.07,2.07,2.07,0,0,1-1.28,0,2.43,2.43,0,0,1-1-.7,6.31,6.31,0,0,0-1.11-2.71,1.89,1.89,0,0,1,.44-1.37c.48-.4,1.21-.73,1.47-1.25s.18-.89-.33-.72a3.59,3.59,0,0,0-1.32,1.27,1.89,1.89,0,0,1-1.53.69h-.07l-.22-.16h0L18.48,11h0a6.4,6.4,0,0,0-2.54-1,1.42,1.42,0,0,1-.25-.24,2.31,2.31,0,0,1-.18-.35,2.07,2.07,0,0,1-.14-1.39c0-.08.05-.18.07-.29a1.46,1.46,0,0,0,.06-.7.85.85,0,0,0-.12-.46.9.9,0,0,0-.23-.21.19.19,0,0,0-.11,0,.19.19,0,0,0-.12,0,.9.9,0,0,0-.23.21.85.85,0,0,0-.12.46,1.46,1.46,0,0,0,.06.7c0,.11.05.21.07.29a2.07,2.07,0,0,1-.14,1.39,2.31,2.31,0,0,1-.18.35,1.9,1.9,0,0,1-.25.24,6.4,6.4,0,0,0-2.54,1h0l-.12.09h0l-.22.16h-.07a1.89,1.89,0,0,1-1.53-.69A3.59,3.59,0,0,0,8.27,9.3c-.51-.17-.59.19-.33.72s1,.85,1.47,1.25a1.85,1.85,0,0,1,.44,1.37,6.31,6.31,0,0,0-1.11,2.71,2.37,2.37,0,0,1-1,.7,2.07,2.07,0,0,1-1.28,0A1.15,1.15,0,0,0,6.19,16l-.24,0h-.1a1.06,1.06,0,0,0-.75.24c-.13.08-.22.18-.22.27s.06.15.15.22a1.53,1.53,0,0,0,1.13.28l.12,0,.23-.09a2.09,2.09,0,0,1,1.31,0l.19.07.14.1a2.93,2.93,0,0,1,.65.67A6.1,6.1,0,0,0,9.24,19a3.49,3.49,0,0,1-.05.72,1.92,1.92,0,0,1-.95,1.21l-.31.1-.09,0a1.51,1.51,0,0,0-.35.14,1.2,1.2,0,0,0-.53.45.92.92,0,0,0-.18.3.33.33,0,0,0,0,.35c.12.25.68,0,.82,0a2.19,2.19,0,0,0,.23-.2,2,2,0,0,0,.41-.4,4.88,4.88,0,0,1,.65-.55L9.16,21a2.4,2.4,0,0,1,1.27-.09l.33.15a1.72,1.72,0,0,0,.71.14h0a1.55,1.55,0,0,0,.8-.14,1.39,1.39,0,0,0,.47-.3,1.6,1.6,0,0,0,1.44.38c1-.2.94-.33.94-.33s.17.52,1.12.37a1.48,1.48,0,0,0,1-.46,1.4,1.4,0,0,0,.51.34,1.55,1.55,0,0,0,.8.14h0a1.72,1.72,0,0,0,.71-.14l.33-.15a2.4,2.4,0,0,1,1.27.09l.25.12a4.88,4.88,0,0,1,.65.55,2,2,0,0,0,.41.4l.23.2c.14.07.7.27.82,0a.33.33,0,0,0,0-.35.92.92,0,0,0-.18-.3,1.2,1.2,0,0,0-.53-.45,1.51,1.51,0,0,0-.35-.14l-.09,0-.31-.1a1.92,1.92,0,0,1-.95-1.21,3.49,3.49,0,0,1-.05-.72,5.62,5.62,0,0,0,.44-1.35,2.93,2.93,0,0,1,.65-.67l.14-.1.19-.07a2.09,2.09,0,0,1,1.31,0l.23.09.12,0A1.53,1.53,0,0,0,25,16.65C25.09,16.58,25.15,16.51,25.15,16.43ZM14,20.77c-.84.08-1-.54-1.12-1s-.74-2.06-.74-2.06-.08-.39.54-.65a7.5,7.5,0,0,0,2.06-1.12v4A.74.74,0,0,1,14,20.77Zm2.26-4.6c-.52-.35-.95-.64-1-1a3.09,3.09,0,0,1-.06-.64h-.27A1.64,1.64,0,0,1,14,16l-.64.32c0-.28-.1-.76-.15-1,0-.06,0-.14,0-.2a1.91,1.91,0,0,1-.06-.46l.06,0A4.69,4.69,0,0,1,15,14.2a5.46,5.46,0,0,1,1.93.47,1.47,1.47,0,0,1,0,.36.79.79,0,0,1,0,.17c0,.14-.09.87-.12,1.22A2.72,2.72,0,0,1,16.24,16.17Zm-2-3a1.21,1.21,0,0,1,.75-.26c.27,0,.77.13.77.43v.52a4.11,4.11,0,0,0-.85-.1,3.82,3.82,0,0,0-.77.06C14.17,13.72,14.14,13.32,14.28,13.19Zm2.82,3.42c0-.22.13-1.22.15-1.38a.93.93,0,0,1,0-.14c0-.27.09-.62-.14-.76a3.88,3.88,0,0,0-.91-.34c-.16-.13,0-.81-.1-1s-.78-.33-1-.38-.16-.31-.19-.15-.67.33-1,.44-.19.45-.18.64a1.2,1.2,0,0,1,0,.36,8.25,8.25,0,0,0-.81.27l-.06,0c-.36.14-.27.58-.19.93a1.42,1.42,0,0,0,0,.2c.05.31.14,1,.16,1.14-.68.34-1.28.66-1.25.8l.42,1.48c.12.42.37,1.38.43,1.64a.56.56,0,0,0,.08.15,4.82,4.82,0,0,1,2.27-9h.25a4.83,4.83,0,0,1,2.13,9.09,1,1,0,0,0,.07-.15l1-3.36S17.72,16.88,17.1,16.61Z"/></g></g></svg>