<svg xmlns="http://www.w3.org/2000/svg" xmlns:xlink="http://www.w3.org/1999/xlink" width="29.897" height="29.897" viewBox="0 0 29.897 29.897"><defs><linearGradient id="a" x1="0.05" y1="0.994" x2="0.88" y2="0.258" gradientUnits="objectBoundingBox"><stop offset="0" stop-color="#23bcdc"/><stop offset="1" stop-color="#0882c3"/></linearGradient><radialGradient id="b" cx="578.965" cy="425.045" r="18.169" gradientTransform="translate(5.617 2.077) scale(0.37 0.37)" gradientUnits="userSpaceOnUse"><stop offset="0" stop-color="#edeeee"/><stop offset="1" stop-color="#a9aaaa"/></radialGradient><linearGradient id="c" x1="0.709" y1="1.108" x2="-0.154" y2="0.219" xlink:href="#a"/></defs><g transform="translate(-563.665 -407.073)"><circle cx="14.948" cy="14.948" r="14.948" transform="translate(563.665 407.073)" fill="#f0f0f0"/><path d="M581,420.632h0l-2.834-7.881-8.783,15.1h0a.25.25,0,0,0-.02.207.263.263,0,0,0,.19.171.257.257,0,0,0,.25-.085h0l8.361-9.781,2.382,2.55h0a.266.266,0,0,0,.036.031.268.268,0,0,0,.138.049.292.292,0,0,0,.255-.131A.251.251,0,0,0,581,420.632Z" fill="url(#a)"/><path d="M575.624,421.846h0l-5.57,6.495,17.571-.008h0a.252.252,0,0,0,.189-.087.259.259,0,0,0,.051-.25.254.254,0,0,0-.2-.173l-.145-.03-12.571-2.433,1.14-3.263h0a.238.238,0,0,0,.008-.046.264.264,0,0,0-.027-.144.286.286,0,0,0-.249-.156A.249.249,0,0,0,575.624,421.846Z" fill="url(#b)"/><path d="M579.426,425.9v0l8.276,1.6-8.739-15.035h0a.253.253,0,0,0-.171-.12.262.262,0,0,0-.242.081.255.255,0,0,0-.049.259h0l4.234,11.816-3.282.86-.042.011a.4.4,0,0,0-.045.016.264.264,0,0,0-.113.38A.258.258,0,0,0,579.426,425.9Z" fill="url(#c)"/></g></svg>