<svg id="dash" xmlns="http://www.w3.org/2000/svg" viewBox="0 0 30.317 30.318">
  <defs>
    <style>
      .cls-1 {
        fill: #1e75bb;
      }

      .cls-2 {
        fill: #fff;
      }
    </style>
  </defs>
  <path id="Path_2882" data-name="Path 2882" class="cls-1" d="M30.317,15.159A15.158,15.158,0,1,1,15.159,0,15.159,15.159,0,0,1,30.317,15.159"/>
  <path id="Path_2883" data-name="Path 2883" class="cls-2" d="M25.426,11.017a2.242,2.242,0,0,0-.3-1,1.429,1.429,0,0,0-.763-.685A2.262,2.262,0,0,0,23.283,9.1H9.319l-1,3H20.97l-2,6.128H6.323l-1,3h14.03a3.814,3.814,0,0,0,1.223-.236,8.387,8.387,0,0,0,1.223-.763,6.052,6.052,0,0,0,1-1,6.694,6.694,0,0,0,.617-1.156l1.852-5.825a2.174,2.174,0,0,0,.158-1.224"/>
  <path id="Path_2884" data-name="Path 2884" class="cls-2" d="M13.3,13.767H5.862l-1,2.773h7.521Z"/>
</svg>
