<svg xmlns="http://www.w3.org/2000/svg" viewBox="0 0 29.9 29.9"><defs><style>.cls-1{fill:#fff;}.cls-2{fill:#005298;}</style></defs><title>dgb crypto</title><g id="Capa_2" data-name="Capa 2"><g id="banderas"><path class="cls-1" d="M29,18.45A14.47,14.47,0,1,1,18.45.91,14.48,14.48,0,0,1,29,18.45Z"/><path class="cls-2" d="M15,29.9A15,15,0,0,1,.45,11.34a14.94,14.94,0,1,1,29,7.23h0A15,15,0,0,1,15,29.9ZM14.92,1a14,14,0,1,0,13.6,17.38l.47.11-.47-.11a14,14,0,0,0-10.19-17A13.67,13.67,0,0,0,14.92,1Z"/><path class="cls-2" d="M18.48,8.2l.46-4.27a.22.22,0,0,0-.2-.24l-1.29-.14a.22.22,0,0,0-.25.19l-.42,3.9a.22.22,0,0,1-.26.19l-1-.18a.22.22,0,0,1-.18-.24l.43-3.92a.24.24,0,0,0-.2-.25l-1.29-.13a.22.22,0,0,0-.25.19l-.4,3.76a.22.22,0,0,1-.26.19L8.16,6.31a.22.22,0,0,0-.2.07L6,8.66A.22.22,0,0,0,6.08,9c1.81.29,9.36,1.49,11,1.84a3.39,3.39,0,0,1,1.83,5.23,8.48,8.48,0,0,1-8.17,4.34.22.22,0,0,1-.18-.32L14.67,12a.23.23,0,0,0-.16-.32L10.83,11a.2.2,0,0,0-.23.11L5.23,21.26a.22.22,0,0,0,.14.32,24.5,24.5,0,0,0,5.21.64.22.22,0,0,1,.21.24L10.41,26a.22.22,0,0,0,.2.24l1.29.14a.21.21,0,0,0,.24-.19l.41-3.77a.22.22,0,0,1,.21-.2l1-.05a.22.22,0,0,1,.24.24l-.44,4a.23.23,0,0,0,.2.24l1.3.14a.23.23,0,0,0,.24-.2l.49-4.53a.22.22,0,0,1,.17-.19c5.39-1.07,8.12-6,8.3-8.3S22.37,9,18.48,8.2Z"/></g></g></svg>