<svg xmlns="http://www.w3.org/2000/svg" viewBox="0 0 29.9 29.9"><defs><style>.cls-1{fill:#ededed;}.cls-2{fill:#333;}</style></defs><title>eos crypto</title><g id="Capa_2" data-name="Capa 2"><g id="banderas"><path class="cls-1" d="M29.45,18.56A14.94,14.94,0,1,1,18.56.45,14.95,14.95,0,0,1,29.45,18.56Z"/><polygon class="cls-2" points="21.45 20.76 16.61 20.76 18.32 15.35 21.45 20.76"/><polygon class="cls-2" points="18.03 14.84 16.16 20.76 13.87 20.76 12 14.84 15.02 9.62 18.03 14.84"/><polygon class="cls-2" points="14.8 5.08 14.8 9.13 11.82 14.27 10.75 10.86 14.8 5.08"/><polygon class="cls-2" points="19.29 10.86 18.21 14.27 15.23 9.13 15.23 5.08 19.29 10.86"/><polygon class="cls-2" points="16.02 21.2 15.02 24.7 14.01 21.2 16.02 21.2"/><polygon class="cls-2" points="13.41 20.76 8.58 20.76 11.71 15.35 13.41 20.76"/><polygon class="cls-2" points="14.63 24.62 8.98 21.2 13.55 21.2 14.63 24.62"/><polygon class="cls-2" points="21.05 21.2 15.4 24.62 16.48 21.2 21.05 21.2"/><polygon class="cls-2" points="11.53 14.79 8.73 19.62 10.54 11.66 11.53 14.79"/><polygon class="cls-2" points="21.3 19.62 18.5 14.79 19.49 11.66 21.3 19.62"/></g></g></svg>