<svg xmlns="http://www.w3.org/2000/svg" viewBox="0 0 29.9 29.9"><defs><style>.cls-1{fill:#d6d6d6;}.cls-2{fill:#0b8311;}.cls-3{fill:#3ab83a;}.cls-4{fill:#146714;}</style></defs><title>etc crypto</title><g id="Capa_2" data-name="Capa 2"><g id="banderas"><circle class="cls-1" cx="14.95" cy="14.95" r="14.95" transform="translate(-6.19 14.95) rotate(-45)"/><polygon class="cls-2" points="15.11 2.33 15.15 9.51 23.06 13.87 15.11 2.33"/><polygon class="cls-3" points="7.25 13.74 15.15 9.51 15.11 2.33 7.25 13.74"/><polygon class="cls-2" points="15.19 27.72 15.23 20.55 23.14 16.19 15.19 27.72"/><polygon class="cls-3" points="7.33 16.31 15.23 20.55 15.19 27.72 7.33 16.31"/><polygon class="cls-2" points="15.15 10.89 15.19 15.54 22.61 14.93 15.15 10.89"/><polygon class="cls-3" points="7.53 14.97 15.15 10.89 15.19 15.54 7.53 14.97"/><polygon class="cls-4" points="22.61 14.93 15.19 15.54 15.19 18.88 22.61 14.93"/><polygon class="cls-2" points="7.53 14.97 15.19 18.88 15.19 15.54 7.53 14.97"/></g></g></svg>