<svg id="eth" xmlns="http://www.w3.org/2000/svg" xmlns:xlink="http://www.w3.org/1999/xlink" viewBox="0 0 30.317 30.318">
  <defs>
    <style>
      .cls-1 {
        fill: #bebebe;
      }

      .cls-2 {
        clip-path: url(#clip-path);
      }

      .cls-3 {
        fill: #808181;
      }

      .cls-4 {
        fill: #333;
      }

      .cls-5 {
        fill: #373838;
      }

      .cls-6 {
        fill: #1a1a1a;
      }

      .cls-7 {
        fill: #808081;
      }

      .cls-8 {
        fill: #343434;
      }

      .cls-9 {
        fill: #5e5e5f;
      }
    </style>
    <clipPath id="clip-path">
      <rect id="Rectangle_256" data-name="Rectangle 256" width="15.584" height="25.354" transform="translate(7.367 2.482)"/>
    </clipPath>
  </defs>
  <path id="Path_2885" data-name="Path 2885" class="cls-1" d="M30.317,15.159A15.158,15.158,0,1,1,15.159,0,15.159,15.159,0,0,1,30.317,15.159"/>
  <g id="ETHEREUM_1_">
    <g id="Group_1331" data-name="Group 1331">
      <g id="Group_1330" data-name="Group 1330" class="cls-2">
        <g id="Group_1323" data-name="Group 1323" class="cls-2">
          <path id="Path_2886" data-name="Path 2886" class="cls-3" d="M7.419,15.3q1.757-2.952,3.515-5.9,1.815-3.03,3.651-6.048c.112-.184.154-.433.4-.515.3.118.2.381.2.59q.006,4.232,0,8.464l-.162.145a1.453,1.453,0,0,0-.7.223c-1.619.731-3.226,1.489-4.853,2.2a8.614,8.614,0,0,1-2.05.843"/>
        </g>
        <g id="Group_1324" data-name="Group 1324" class="cls-2">
          <path id="Path_2887" data-name="Path 2887" class="cls-4" d="M15.183,11.887q0-4.232,0-8.464c0-.209.1-.472-.2-.59l.111-.248c.033,0,.066,0,.1,0,.726,1.171,1.461,2.336,2.175,3.513q2.47,4.07,4.918,8.153a3.162,3.162,0,0,1,.538,1.016,1.266,1.266,0,0,1-.364-.05q-3.642-1.659-7.28-3.332"/>
        </g>
        <g id="Group_1325" data-name="Group 1325" class="cls-2">
          <path id="Path_2888" data-name="Path 2888" class="cls-5" d="M7.419,15.3a8.593,8.593,0,0,0,2.05-.844c1.627-.713,3.235-1.47,4.853-2.2a1.475,1.475,0,0,1,.7-.223c.23.094.186.3.187.479q0,3.448,0,6.9c0,.234.015.475-.321.486q-2.541-1.476-5.081-2.954-1.1-.641-2.187-1.3c-.119-.072-.361-.1-.2-.345"/>
        </g>
        <g id="Group_1326" data-name="Group 1326" class="cls-2">
          <path id="Path_2889" data-name="Path 2889" class="cls-6" d="M14.889,19.894c.336-.011.321-.252.321-.486q0-3.448,0-6.9c0-.18.043-.385-.187-.479l.162-.145q3.639,1.668,7.281,3.332a1.266,1.266,0,0,0,.364.05c.318.3-.07.32-.182.388-1.18.716-2.369,1.416-3.556,2.119-1.169.693-2.337,1.389-3.511,2.074-.21.123-.439.378-.69.045"/>
        </g>
        <g id="Group_1327" data-name="Group 1327" class="cls-2">
          <path id="Path_2890" data-name="Path 2890" class="cls-7" d="M15.217,27.751c-.358.258-.362-.149-.453-.276q-2.407-3.354-4.787-6.73L7.549,17.319c.32-.108.48.084.655.186,2.07,1.215,4.134,2.438,6.2,3.652a1.758,1.758,0,0,0,.829.39c-.088,2.068-.051,4.136-.02,6.2"/>
        </g>
        <g id="Group_1328" data-name="Group 1328" class="cls-2">
          <path id="Path_2891" data-name="Path 2891" class="cls-8" d="M15.217,27.751c-.031-2.068-.068-4.136.019-6.2q3.332-1.96,6.666-3.915c.137-.08.274-.317.472-.124s.011.344-.091.488q-3.367,4.749-6.743,9.493c-.081.114-.151.255-.323.262"/>
        </g>
        <g id="Group_1329" data-name="Group 1329" class="cls-2">
          <path id="Path_2892" data-name="Path 2892" class="cls-9" d="M15.2,2.587l-.1,0c0-.058,0-.119.08-.1.014,0,.013.066.019.1"/>
        </g>
      </g>
    </g>
  </g>
</svg>
