<svg id="gas" xmlns="http://www.w3.org/2000/svg" xmlns:xlink="http://www.w3.org/1999/xlink" viewBox="0 0 29.898 29.898">
  <defs>
    <style>
      .cls-1 {
        fill: none;
      }

      .cls-2 {
        fill: #fff;
      }

      .cls-3 {
        fill: url(#linear-gradient);
      }

      .cls-4 {
        fill: url(#linear-gradient-2);
      }

      .cls-5 {
        fill: url(#linear-gradient-3);
      }

      .cls-6 {
        fill: #fff73e;
      }
    </style>
    <linearGradient id="linear-gradient" x1="0.762" y1="-0.617" x2="-0.09" y2="3.012" gradientUnits="objectBoundingBox">
      <stop offset="0" stop-color="#52b900"/>
      <stop offset="1" stop-color="#bce82d"/>
    </linearGradient>
    <linearGradient id="linear-gradient-2" x1="1.437" y1="-0.262" x2="-0.566" y2="1.573" xlink:href="#linear-gradient"/>
    <linearGradient id="linear-gradient-3" x1="1.887" y1="-0.497" x2="-0.195" y2="1" xlink:href="#linear-gradient"/>
  </defs>
  <circle id="Ellipse_244" data-name="Ellipse 244" class="cls-1" cx="14.843" cy="14.843" r="14.843" transform="translate(0.106 0.106)"/>
  <circle id="Ellipse_245" data-name="Ellipse 245" cx="14.949" cy="14.949" r="14.949" transform="translate(0 0)"/>
  <g id="Group_1337" data-name="Group 1337">
    <g id="Group_1334" data-name="Group 1334">
      <path id="Path_2915" data-name="Path 2915" class="cls-2" d="M22.581,7.636c-.052-.027-.1-.053-.151-.077q-2-.961-4.008-1.922c-.639-.307-1.277-.618-1.915-.928h-.062c-.041.019-.081.043-.123.058L10.746,6.752q-1.254.447-2.5.9l-.88.3.244.118,1.435.679c.009.006.016.013.025.018q2.192,1.053,4.381,2.109a.256.256,0,0,0,.22-.007l2.5-.895L22.45,7.712C22.494,7.7,22.552,7.7,22.581,7.636Z"/>
      <path id="Path_2916" data-name="Path 2916" class="cls-3" d="M22.581,7.636c-.052-.027-.1-.053-.151-.077q-2-.961-4.008-1.922c-.639-.307-1.277-.618-1.915-.928h-.062c-.041.019-.081.043-.123.058L10.746,6.752q-1.254.447-2.5.9l-.88.3.244.118,1.435.679c.009.006.016.013.025.018q2.192,1.053,4.381,2.109a.256.256,0,0,0,.22-.007l2.5-.895L22.45,7.712C22.494,7.7,22.552,7.7,22.581,7.636Z"/>
      <path id="Path_2917" data-name="Path 2917" class="cls-2" d="M22.633,7.977q-3.1,1.113-6.195,2.223c-.106.038-.123.093-.123.192q0,2.089,0,4.178c0,.49,0,.98,0,1.47q0,.657-.007,1.313c0,.3,0,.3.277.409l1.828.7,3.625,1.418.738.287V7.941A.265.265,0,0,0,22.633,7.977Z"/>
      <path id="Path_2918" data-name="Path 2918" class="cls-4" d="M22.633,7.977q-3.1,1.113-6.195,2.223c-.106.038-.123.093-.123.192q0,2.089,0,4.178c0,.49,0,.98,0,1.47q0,.657-.007,1.313c0,.3,0,.3.277.409l1.828.7,3.625,1.418.738.287V7.941A.265.265,0,0,0,22.633,7.977Z"/>
      <path id="Path_2919" data-name="Path 2919" class="cls-2" d="M13.155,11.115c-.606-.282-1.207-.573-1.814-.854a8.024,8.024,0,0,0-.84-.38c-.29-.144-.581-.29-.873-.434-.791-.392-1.607-.729-2.394-1.13-.164-.085-.167-.08-.167.107q0,2.453,0,4.906,0,3.427,0,6.856a.2.2,0,0,0,.139.22c.2.084.392.182.588.275q2.654,1.255,5.307,2.512c.187.089.185.092.186-.113q0-4.891,0-9.782c0-.057,0-.113-.007-.17,0-.6,0-1.2.007-1.808A.191.191,0,0,0,13.155,11.115Z"/>
      <path id="Path_2920" data-name="Path 2920" class="cls-5" d="M13.155,11.115c-.606-.282-1.207-.573-1.814-.854a8.024,8.024,0,0,0-.84-.38c-.29-.144-.581-.29-.873-.434-.791-.392-1.607-.729-2.394-1.13-.164-.085-.167-.08-.167.107q0,2.453,0,4.906,0,3.427,0,6.856a.2.2,0,0,0,.139.22c.2.084.392.182.588.275q2.654,1.255,5.307,2.512c.187.089.185.092.186-.113q0-4.891,0-9.782c0-.057,0-.113-.007-.17,0-.6,0-1.2.007-1.808A.191.191,0,0,0,13.155,11.115Z"/>
    </g>
    <g id="Group_1336" data-name="Group 1336">
      <path id="Path_2921" data-name="Path 2921" class="cls-6" d="M22.814,23.1a.524.524,0,0,0-.332-.159l-.414-.152a3.5,3.5,0,0,1-.477-.157h0c-.115,0-.16-.055-.153-.179.013-.22.006-.441.008-.662l.073-.1s0-.011.008-.017,0,.012-.008.017l.051-.008.007,0a.941.941,0,0,1,.419,0l.044,0,.05.052a1.692,1.692,0,0,1,.023.492c0,.1.038.14.138.134.121-.007.243,0,.365,0,.212.009.213.009.212-.2,0-.186,0-.372,0-.558a.6.6,0,0,0-.48-.595c-.035-.031-.078-.021-.118-.025a3.794,3.794,0,0,0-.891,0c-.039,0-.082,0-.116.025a.647.647,0,0,0-.429.32l-.054.182a.023.023,0,0,1,0,.024q0,.757,0,1.514a.253.253,0,0,0,.148.12l1.16.375a.116.116,0,0,1,.078.125c-.007.18,0,.361,0,.542a.4.4,0,0,1-.05.222l-.028.025-.1.031-.363-.011a.21.21,0,0,1-.127-.125c0-.125,0-.251-.008-.376,0-.055.035-.12-.029-.165a.147.147,0,0,0-.119-.03l-.555,0a3.239,3.239,0,0,0,.051,1.016.656.656,0,0,0,.471.356,5.84,5.84,0,0,0,.9.016.271.271,0,0,0,.176-.03c.066,0,.119-.04.18-.054.031-.04.095-.046.107-.1a.091.091,0,0,0-.054,0,.1.1,0,0,1,.054,0l.029-.048-.012-.012.012.012a.423.423,0,0,0,.174-.388c.014-.255.009-.511.006-.766A5.6,5.6,0,0,0,22.814,23.1Z"/>
      <path id="Path_2922" data-name="Path 2922" class="cls-6" d="M16.916,23c0-.11-.044-.144-.148-.142-.266,0-.531.006-.8,0-.1,0-.118.041-.118.121,0,.109,0,.218,0,.327,0,.259-.023.266.254.253.088,0,.109.026.107.109-.006.235,0,.47-.006.7l0,0-.025.029h0a.229.229,0,0,1-.136.071c-.156,0-.313.008-.469,0-.113-.008-.159-.088-.159-.2,0-.805,0-1.61,0-2.415,0-.135.061-.194.2-.2a3.4,3.4,0,0,1,.514.015l.049.034c-.01.027.018.013.024.022h0c0,.02,0,.039,0,.059,0,.148,0,.3,0,.444,0,.083.032.122.114.122h.483c.075,0,.108-.039.107-.115,0-.2.007-.4,0-.6a.636.636,0,0,0-.619-.663,4.5,4.5,0,0,0-.977,0,.621.621,0,0,0-.611.6,1.267,1.267,0,0,0-.008.195q0,1.318,0,2.638a.434.434,0,0,0,.025.2h0a.574.574,0,0,0,.47.523h0c.04.032.088.023.134.029a4.618,4.618,0,0,0,.933,0c.048-.008.1,0,.143-.028h0a.244.244,0,0,0,.149-.053.163.163,0,0,1,.04-.07.163.163,0,0,0-.04.07.456.456,0,0,0,.268-.257h0a.748.748,0,0,0,.093-.4C16.916,23.953,16.912,23.478,16.916,23Zm-.993-.014c0,.1,0,.2,0,.3,0-.1,0-.2,0-.3,0-.051.007-.084.046-.1C15.93,22.906,15.919,22.939,15.923,22.99Zm.363,2.035a.234.234,0,0,1-.047,0A.148.148,0,0,0,16.286,25.025Zm.385-.166Zm.02.011h0Zm-.011,0h0Zm.017.006h0Zm.011,0a.078.078,0,0,0,0-.022.078.078,0,0,1,0,.022Z"/>
      <g id="Group_1335" data-name="Group 1335">
        <path id="Path_2923" data-name="Path 2923" class="cls-6" d="M18.87,21.842c-.032,0-.057.01-.065.037C18.813,21.852,18.838,21.843,18.87,21.842Z"/>
        <path id="Path_2924" data-name="Path 2924" class="cls-6" d="M18.982,23.792a.033.033,0,0,1,.011.01A.025.025,0,0,0,18.982,23.792Z"/>
        <path id="Path_2925" data-name="Path 2925" class="cls-6" d="M18.405,24.3a.089.089,0,0,0-.031.011A.089.089,0,0,1,18.405,24.3Z"/>
        <path id="Path_2926" data-name="Path 2926" class="cls-6" d="M18.422,20.969l.8,0A3.941,3.941,0,0,0,18.422,20.969Z"/>
        <path id="Path_2927" data-name="Path 2927" class="cls-6" d="M20.141,25.049c-.013-.036,0-.079-.032-.11,0-.039-.009-.078-.017-.116-.206-.958-.409-1.917-.621-2.875-.07-.317-.118-.639-.218-.949l-.034-.027-.8,0a.027.027,0,0,0-.017.013c-.072.069-.062.164-.081.25q-.4,1.848-.8,3.695a.509.509,0,0,0-.03.232,3.407,3.407,0,0,0,.525.012c.052,0,.112.024.156-.029l0,0h0l.039-.061c0-.016,0-.033,0-.049h.009a.037.037,0,0,0,0-.057v0a.008.008,0,0,1,0-.013q.062-.317.124-.632l.911,0a2.41,2.41,0,0,1,.1.436c.023.107.045.215.068.322,0,.079.055.09.114.09.168,0,.337,0,.5,0C20.139,25.172,20.171,25.133,20.141,25.049Zm-1.767-.738a.082.082,0,0,1,.031-.011A.089.089,0,0,0,18.374,24.311Zm.5-2.469c-.032,0-.057.01-.065.037C18.813,21.852,18.838,21.843,18.87,21.842Zm.086,1.986c.016,0,.034,0,.037-.024a0,0,0,0,0,0,0,.027.027,0,0,0-.011-.01.033.033,0,0,1,.011.01,0,0,0,0,1,0,0C18.99,23.825,18.972,23.825,18.956,23.828Zm.005-.023Zm0-.005h0Zm0,0Zm.086-.072c-.161-.006-.322,0-.483,0-.08,0-.093-.019-.074-.1.035-.143.055-.29.081-.435l.219-1.243.006-.028c.025.017.024.045.028.07.039.2.079.408.117.613.063.342.125.684.189,1.025C19.151,23.7,19.133,23.727,19.054,23.724Z"/>
      </g>
    </g>
  </g>
</svg>
