<svg xmlns="http://www.w3.org/2000/svg" xmlns:xlink="http://www.w3.org/1999/xlink" viewBox="0 0 29.9 29.9"><defs><style>.cls-1{fill:#efefef;}.cls-2{fill-rule:evenodd;fill:url(#Degradado_sin_nombre_15);}</style><linearGradient id="Degradado_sin_nombre_15" x1="7.06" y1="6.7" x2="22.82" y2="23.15" gradientUnits="userSpaceOnUse"><stop offset="0.02" stop-color="#81d8c6"/><stop offset="0.18" stop-color="#77c9c6"/><stop offset="0.41" stop-color="#65acc7"/><stop offset="0.56" stop-color="#5e9ec0"/><stop offset="0.81" stop-color="#558db8"/><stop offset="0.99" stop-color="#5287b5"/></linearGradient></defs><title>lamb crypto</title><g id="Capa_2" data-name="Capa 2"><g id="banderas"><circle class="cls-1" cx="14.95" cy="14.95" r="14.95"/><path class="cls-2" d="M14.55,20.69a.11.11,0,0,1,.14.15L14,22.26l-.7,1.5a.08.08,0,0,0,.08.12h3.12a.08.08,0,0,0,.08-.05l1.1-2.37,1-2.17a.11.11,0,0,1,.2,0l.74,2,.91,2.51a.09.09,0,0,0,.08.06h3a.09.09,0,0,0,.08-.12l-2.69-7.35-.38-1.06a.11.11,0,0,1,.15-.14l1.36.64,1.56.72a.08.08,0,0,0,.12-.08V13.36a.08.08,0,0,0-.05-.07l-2.6-1.21-1.94-.91a.11.11,0,0,1,0-.2l2-.74,2.51-.91s.06-.05.06-.08v-3a.09.09,0,0,0-.12-.08L17,8.6l-1.65.6a.11.11,0,0,1-.14-.15l.53-1.13.83-1.78A.09.09,0,0,0,16.49,6H13.36a.08.08,0,0,0-.07.05L12,8.79l-.83,1.81a.11.11,0,0,1-.21,0l-.54-1.5-1.1-3A.08.08,0,0,0,9.24,6h-3a.08.08,0,0,0-.08.11L8.64,13l.57,1.55a.11.11,0,0,1-.15.14L6.14,13.33a.08.08,0,0,0-.12.08v3.12a.08.08,0,0,0,.05.08l2.18,1,2.35,1.1a.11.11,0,0,1,0,.2l-2.07.75-2.45.89a.08.08,0,0,0-.06.08v3a.08.08,0,0,0,.11.08L11,22ZM13.3,13.15l1.76-.64.42-.15a.86.86,0,0,1,1.11.51l.16.43.64,1.75.15.43A.87.87,0,0,1,17,16.59l-.43.16-1.76.64-.43.15a.86.86,0,0,1-1.1-.51l-.16-.43-.64-1.76h0l-.15-.43a.85.85,0,0,1,.51-1.1Z"/></g></g></svg>