<svg id="let" xmlns="http://www.w3.org/2000/svg" viewBox="0 0 29.941 29.77">
  <defs>
    <style>
      .cls-1 {
        fill: #095bc5;
      }
    </style>
  </defs>
  <path id="Path_2938" data-name="Path 2938" class="cls-1" d="M29.744,17.183a15.775,15.775,0,0,0-.552-3.467c-.027-.1.014-.253-.147-.261-.122.6-.254,1.186-.36,1.779-.338,1.886-1.436,3.482-2,5.28a.149.149,0,0,1-.064.078c-.762.417-1.048,1.243-1.589,1.849l-.913.954-.2.2a18.394,18.394,0,0,1-8.121,4.571,15.3,15.3,0,0,0,4.557.136,4.945,4.945,0,0,0,1.766-.348,13.026,13.026,0,0,0,3.353-2.485,3.394,3.394,0,0,0,.275-.228A14.668,14.668,0,0,0,29.5,18.553a4.648,4.648,0,0,0,.241-1.37"/>
  <path id="Path_2939" data-name="Path 2939" class="cls-1" d="M.114,16.3a13.448,13.448,0,0,1,.607-5.941A13.236,13.236,0,0,1,.114,16.3"/>
  <path id="Path_2940" data-name="Path 2940" class="cls-1" d="M16.124,28.5a5.058,5.058,0,0,0-1.377-.153,18.789,18.789,0,0,1-4.9.209,1.015,1.015,0,0,0-.621.075,14.816,14.816,0,0,0,7.106,1.052,11.47,11.47,0,0,0,4.2-1.053c-1.476-.015-2.945.017-4.409-.13"/>
  <path id="Path_2941" data-name="Path 2941" class="cls-1" d="M29.906,15.757c-.339-1.784-1.122-3.514-.633-5.37a14.622,14.622,0,0,1,.633,5.37"/>
  <path id="Path_2942" data-name="Path 2942" class="cls-1" d="M21.782,1.681A9.137,9.137,0,0,0,19.131.61,13.815,13.815,0,0,0,11.1.577c.122.18.31.136.472.115,2.328-.3,4.535.482,6.8.757.1.229.285.173.463.145l.4.023a37.684,37.684,0,0,1,3.721.731c-.319-.357-.8-.429-1.178-.667"/>
  <path id="Path_2943" data-name="Path 2943" class="cls-1" d="M22.972,2.351l-.013,0,.008.008Z"/>
  <path id="Path_2944" data-name="Path 2944" class="cls-1" d="M6.186,5.876h0l0,.007.007-.006"/>
  <path id="Path_2945" data-name="Path 2945" class="cls-1" d="M11.386.965,11.363.914l-.505.027a.319.319,0,0,0-.324.043,4.71,4.71,0,0,0-1.76.362A15.711,15.711,0,0,0,2.133,7.169a7.58,7.58,0,0,0-1,5.624,1.423,1.423,0,0,0,.113-.176A17.806,17.806,0,0,1,5.355,6.526c.072-.069.168-.159.173-.244.025-.465.32-.46.653-.407.047-.225.258-.3.408-.424a14.09,14.09,0,0,1,6.22-3.143,20.505,20.505,0,0,1,4.239-.7A15.167,15.167,0,0,0,11.386.965"/>
  <path id="Path_2946" data-name="Path 2946" class="cls-1" d="M22.967,2.357l.079.023-.074-.028-.005.005"/>
  <path id="Path_2947" data-name="Path 2947" class="cls-1" d="M19.939,14.193a4.717,4.717,0,0,0-2.859-3.78,4.958,4.958,0,1,0-.006,8.95,1.63,1.63,0,0,0,.242-.079,4.959,4.959,0,0,0,2.623-5.091m-6.688-.485a1.253,1.253,0,0,1-1.211-1.241,1.114,1.114,0,0,1,1.239-1.2,1.182,1.182,0,0,1,1.222,1.2,1.223,1.223,0,0,1-1.25,1.242"/>
  <path id="Path_2948" data-name="Path 2948" class="cls-1" d="M6.179,5.882l.011.006a.056.056,0,0,0,0-.012l-.007.006"/>
  <path id="Path_2949" data-name="Path 2949" class="cls-1" d="M10.981,26.975a1.179,1.179,0,0,0-.974-.126c-.261-.584-.839-.8-1.317-1.128-.344-.239-.693-.471-1.022-.729l-.012-.009A8.657,8.657,0,0,1,5.45,22.861v0A17.016,17.016,0,0,1,1.032,13.99a4.232,4.232,0,0,0-.394,1.28,6.962,6.962,0,0,0-.293,2.755,14.732,14.732,0,0,0,5.78,8.864A5.242,5.242,0,0,0,9.5,28.261a.483.483,0,0,0,.427.059l.4.023a12.38,12.38,0,0,0,3.85-.178,21.568,21.568,0,0,1-3.192-1.19"/>
  <path id="Path_2950" data-name="Path 2950" class="cls-1" d="M27.786,10.572a.3.3,0,0,1-.2-.281.3.3,0,0,1,.059-.178,1.477,1.477,0,0,0-.352-.842,16.534,16.534,0,0,0-2.33-3.029,19.43,19.43,0,0,0-2.216-1.921,13.682,13.682,0,0,0-2.772-1.676.332.332,0,0,0-.083-.059,4.677,4.677,0,0,0-1.874-.577c-.314.016-.725-.174-1.115-.177a14.31,14.31,0,0,0-3,.391A17.028,17.028,0,0,0,6.621,5.7c-.118.094-.207.325-.431.191.125.364.075.632-.388.645-.2.006-.3.162-.415.278a16.934,16.934,0,0,0-3.926,5.842A2.885,2.885,0,0,0,1.312,14.2a16.782,16.782,0,0,0,4,8.282c.042.049.091.095.136.144v-.019A22.549,22.549,0,0,0,7.965,24.9l0,0a5.07,5.07,0,0,0,2.31,1.279.3.3,0,0,1,.183.164c.094.215.29.284.475.372a17.6,17.6,0,0,0,3.709,1.276,1.23,1.23,0,0,0,.562.031,16.412,16.412,0,0,0,4.033-1.431c.011-.017.021-.035.031-.053-.01.018-.02.036-.031.053a1.948,1.948,0,0,0,.287-.1A17.457,17.457,0,0,0,23.2,23.949c.2-.184,1.1-1.044,1.262-1.263.59-.8,1.491-1.4,1.621-2.5a.215.215,0,0,1,.123-.153c.441-.1.536-.5.711-.825A17.367,17.367,0,0,0,28.751,13.8a3.426,3.426,0,0,0-.965-3.226M20.009,24.835c-.2.1-.391.212-.586.318h0a11.309,11.309,0,0,1-9.247-.213A11.116,11.116,0,0,1,13.288,3.876a11.725,11.725,0,0,1,6.471.895A12.074,12.074,0,0,1,24.029,8.3a11.087,11.087,0,0,1-4.02,16.537"/>
  <path id="Path_2951" data-name="Path 2951" class="cls-1" d="M28.794,9.168A12.673,12.673,0,0,0,25.474,4.3a5.854,5.854,0,0,0-1.952-1.489,19,19,0,0,0-2.917-.758,3.107,3.107,0,0,0-1.476-.071,21.03,21.03,0,0,1,3.209,1.744,21.511,21.511,0,0,1,2.92,2.447c.381.466.744.949,1.146,1.4a17.059,17.059,0,0,1,1.532,2.425.3.3,0,0,1,.257.3.293.293,0,0,1-.028.125,14.886,14.886,0,0,1,.727,1.483,6.09,6.09,0,0,0-.1-2.731"/>
</svg>
