<svg id="ltc" xmlns="http://www.w3.org/2000/svg" viewBox="0 0 29.974 29.955">
  <defs>
    <style>
      .cls-1 {
        fill: #d6d6d6;
      }

      .cls-2 {
        fill: #484849;
      }

      .cls-3 {
        fill: #b3b4b6;
      }

      .cls-4 {
        fill: #b4b5b7;
      }

      .cls-5 {
        fill: #b2b3b5;
      }

      .cls-6 {
        fill: #e2e2e2;
      }
    </style>
  </defs>
  <path id="Path_2893" data-name="Path 2893" class="cls-1" d="M15.022,0A14.978,14.978,0,1,0,29.974,15.087,15.043,15.043,0,0,0,15.022,0"/>
  <path id="Path_2894" data-name="Path 2894" class="cls-2" d="M11.009,10.013c.307-.96.553-1.937.778-2.918.1-.335.208-.667.278-1.007.05-.238.151-.31.394-.307.984.013,1.968,0,2.952,0,1.044,0,2.087.016,3.131.007.254,0,.294.065.22.3-.112.355-.191.72-.284,1.081q-.374,1.451-.746,2.9c-.115.408-.23.815-.367,1.3l2.071-.774c-.134.553-.258,1.07-.383,1.586-.22.813-.443,1.625-.656,2.44a.456.456,0,0,1-.329.359c-.549.188-1.089.4-1.633.606-.112.042-.245.064-.213.236q-.261.93-.521,1.86c-.032.114.012.163.128.16.743-.02,1.488.044,2.23-.037.11.077.234.04.351.04,1.415,0,2.831,0,4.246,0,.207,0,.46-.056.608.042s-.1.326-.038.51c-.248.595-.343,1.235-.53,1.848-.1.343-.179.695-.268,1.043s-.2.718-.28,1.081a.319.319,0,0,1-.375.3c-1.008-.013-2.017,0-3.026,0-.055,0-.109-.015-.164-.015q-3.282,0-6.563,0a4.1,4.1,0,0,0-.426.044,1.885,1.885,0,0,0-.257-.034c-1.108,0-2.217-.008-3.325,0-.255,0-.3-.091-.243-.313a3.565,3.565,0,0,0,.183-.8c.3-.854.472-1.746.724-2.614.027-.094.042-.191.063-.287.061-.179.012-.22-.166-.15q-.564.222-1.136.424c-.12.043-.269.172-.361.093-.116-.1.011-.265.043-.394.183-.741.382-1.479.575-2.218.127-.453.266-.9.375-1.359A.448.448,0,0,1,8.4,14.7c.446-.153.885-.323,1.33-.478a.376.376,0,0,0,.279-.319,8.808,8.808,0,0,0,.207-.927c.318-.972.568-1.961.791-2.958M8.373,17.746l1.688-.6c-.012.066-.018.107-.028.146-.366,1.436-.727,2.874-1.105,4.307-.061.23-.021.278.21.276q6.072-.036,12.145-.056c.185,0,.274-.051.32-.235.22-.884.445-1.767.684-2.646.072-.264.04-.344-.265-.34-2.321.03-4.642.04-6.963.053-.113,0-.235.039-.351-.045q.433-1.7.864-3.385a.349.349,0,0,1,.254-.266c.445-.157.876-.362,1.329-.487a.868.868,0,0,0,.707-.768c.107-.588.284-1.163.446-1.8l-2,.759a.265.265,0,0,1,0-.246q.7-2.744,1.41-5.486c.045-.175.123-.33-.191-.326-1.507.019-3.014.022-4.521.023a.229.229,0,0,0-.265.209c-.11.459-.236.914-.355,1.371q-.82,3.172-1.637,6.346a.392.392,0,0,1-.284.315c-.456.159-.9.339-1.359.5a.38.38,0,0,0-.278.287c-.165.682-.341,1.362-.512,2.043l.006.083Z"/>
  <path id="Path_2895" data-name="Path 2895" class="cls-3" d="M15.413,5.78c-.984,0-1.968.013-2.952,0-.243,0-.345.069-.394.307-.071.34-.184.672-.278,1.007-1.967.724-3.933,1.448-5.947,2.191a4.52,4.52,0,0,1,.53-.875l.2-.259.921-1a.212.212,0,0,0,.143-.165L7.761,6.9a1.516,1.516,0,0,0,.4-.335l.592-.452A.806.806,0,0,0,9.079,5.9,15.265,15.265,0,0,1,11.4,4.745c.63-.144,1.243-.346,1.888-.44a11.756,11.756,0,0,1,3.7.046,8.1,8.1,0,0,1,1.268.334c-.8.3-1.558.578-2.31.859a1.977,1.977,0,0,0-.534.236"/>
  <path id="Path_2896" data-name="Path 2896" class="cls-4" d="M18.751,22.666c1.009,0,2.017-.013,3.026,0a.319.319,0,0,0,.375-.3c.081-.363.185-.721.28-1.081a4.1,4.1,0,0,0,1-.31c.2-.061.405-.14.66-.229a3.682,3.682,0,0,1-.677,1.026,10.783,10.783,0,0,1-9.071,4.018,11.534,11.534,0,0,1-2.418-.408c-.114-.286.171-.2.256-.235,1.691-.638,3.392-1.25,5.083-1.888a10.216,10.216,0,0,0,1.49-.6"/>
  <path id="Path_2897" data-name="Path 2897" class="cls-3" d="M25.478,12.311c-.027.132-.141.156-.242.194q-4.364,1.618-8.728,3.237c-.092.034-.19.051-.284.076-.032-.172.1-.194.213-.236.544-.2,1.084-.418,1.633-.606a.455.455,0,0,0,.329-.359c.212-.815.436-1.627.656-2.44l4.5-1.653c.277-.1.556-.2.828-.315.194-.08.312-.056.407.156a13.28,13.28,0,0,1,.69,1.946"/>
  <path id="Path_2898" data-name="Path 2898" class="cls-5" d="M18.061,17.8c.717-.355,1.484-.583,2.23-.864,1.724-.649,3.454-1.282,5.181-1.923.321-.119.367-.093.367.237,0,.143-.007.286-.01.428-.081.515-.168,1.029-.241,1.545a.557.557,0,0,1-.442.521c-.543.164-1.068.385-1.6.585a.7.7,0,0,1-.317.067c-.062-.184.185-.414.038-.51s-.4-.042-.608-.042c-1.415,0-2.831,0-4.246,0-.118,0-.243.037-.352-.041"/>
  <path id="Path_2899" data-name="Path 2899" class="cls-3" d="M17.734,10.068q.374-1.451.746-2.9c.635-.143,1.216-.44,1.83-.64a1.929,1.929,0,0,0,.429-.166c.4-.25.7-.1,1.018.175.458.4.892.816,1.316,1.248.181.184.16.267-.083.355-1.342.488-2.679.987-4.019,1.481-.411.152-.825.3-1.237.449"/>
  <path id="Path_2900" data-name="Path 2900" class="cls-4" d="M11.6,22.7c-.152.2-.4.2-.6.281-.745.286-1.5.557-2.245.834l-.164-.032L6.905,22.258c-.24-.218-.233-.284.058-.379a3.7,3.7,0,0,1,.992-.323,3.552,3.552,0,0,1-.183.8c-.062.222-.011.315.243.313,1.108-.011,2.217,0,3.325,0a1.879,1.879,0,0,1,.258.034"/>
  <path id="Path_2901" data-name="Path 2901" class="cls-3" d="M11.009,10.013c-.223,1-.473,1.987-.787,2.959a1.455,1.455,0,0,0-.813.2q-2.448.893-4.885,1.812c-.275.1-.367.07-.344-.239.024-.327.009-.657.01-.986a.1.1,0,0,0,.049-.13c-.047-.268.138-.508.095-.776a.265.265,0,0,0,.061-.215.548.548,0,0,1,.4-.373c1.969-.719,3.932-1.453,5.9-2.18a2.8,2.8,0,0,1,.316-.076"/>
  <path id="Path_2902" data-name="Path 2902" class="cls-3" d="M7.7,16.41c-.193.739-.392,1.477-.575,2.218-.032.129-.158.294-.043.394.091.079.24-.05.361-.093q.572-.2,1.136-.424c.178-.07.227-.029.166.15-.7.179-1.358.483-2.039.721-.382.134-.761.28-1.138.429-.176.069-.272.038-.354-.15a5.572,5.572,0,0,1-.484-1.009,9.137,9.137,0,0,1-.206-.91c-.017-.164.108-.2.219-.243Q6.218,16.948,7.7,16.41"/>
  <path id="Path_2903" data-name="Path 2903" class="cls-6" d="M8.315,17.694c.172-.681.347-1.361.512-2.043a.38.38,0,0,1,.278-.287c.454-.164.9-.344,1.359-.5a.4.4,0,0,0,.284-.315q.812-3.176,1.637-6.346c.118-.457.245-.912.355-1.371a.229.229,0,0,1,.265-.209c1.507,0,3.014,0,4.521-.023.313,0,.236.152.191.326q-.707,2.742-1.41,5.486a.268.268,0,0,0,0,.246l2-.759c-.162.638-.34,1.213-.446,1.8a.869.869,0,0,1-.707.768c-.453.126-.884.33-1.329.487a.351.351,0,0,0-.254.266q-.429,1.69-.863,3.385c.116.084.238.045.351.045,2.321-.013,4.642-.023,6.963-.053.305,0,.337.076.265.34-.239.879-.464,1.762-.684,2.646-.046.185-.134.235-.32.235q-6.072.02-12.145.056c-.231,0-.271-.046-.21-.276.378-1.433.739-2.87,1.105-4.307.01-.039.016-.08.028-.146l-1.688.6-.059-.053"/>
</svg>
