<svg xmlns="http://www.w3.org/2000/svg" viewBox="0 0 29.9 29.9"><defs><style>.cls-1{fill:#ededed;}.cls-2,.cls-3{fill:#5f6977;}.cls-3{opacity:0.6;isolation:isolate;}</style></defs><title>mkr crypto</title><g id="Capa_2" data-name="Capa 2"><g id="banderas"><g id="Capa_2-2" data-name="Capa 2"><g id="Capa_1-2" data-name="Capa 1-2"><circle class="cls-1" cx="14.95" cy="14.95" r="14.95"/><g id="CI-all"><g id="mkr-white-mkrdark-notypo"><g id="logo-maker"><path class="cls-2" d="M13.1,21.76a.75.75,0,0,1-.75-.76V14.92l-6-4.51V21a.76.76,0,0,1-1.52.12V8.9a.77.77,0,0,1,.77-.76.81.81,0,0,1,.45.15l7.48,5.65a.74.74,0,0,1,.3.6V21A.77.77,0,0,1,13.1,21.76Z"/><path class="cls-3" d="M24.27,21.76a.76.76,0,0,1-.75-.76V10.41l-6,4.51V21a.76.76,0,0,1-1.52.12V14.54a.78.78,0,0,1,.31-.6L23.82,8.3a.76.76,0,0,1,1.06.15A.74.74,0,0,1,25,8.9V21A.77.77,0,0,1,24.27,21.76Z"/></g></g></g></g></g></g></g></svg>