<svg id="nano" xmlns="http://www.w3.org/2000/svg" viewBox="0 0 29.898 29.896">
  <defs>
    <style>
      .cls-1 {
        fill: #4a90e2;
      }

      .cls-2 {
        fill: #000036;
      }
    </style>
  </defs>
  <path id="Path_2904" data-name="Path 2904" class="cls-1" d="M14.949,29.9A14.948,14.948,0,1,1,29.9,14.949,14.966,14.966,0,0,1,14.949,29.9"/>
  <path id="Path_2905" data-name="Path 2905" class="cls-2" d="M16.434,14.949a1.485,1.485,0,1,1-2.97,0c0-1.114-.371-1.485-1.485-1.485s-1.485.371-1.485,1.485a1.485,1.485,0,1,1-1.485-1.485c1.114,0,1.485-.371,1.485-1.485a1.485,1.485,0,1,1,2.97,0c0,1.114.371,1.485,1.485,1.485a1.485,1.485,0,0,1,1.485,1.485"/>
  <path id="Path_2906" data-name="Path 2906" class="cls-2" d="M7.523,17.919a1.485,1.485,0,1,1-1.485-1.485,1.485,1.485,0,0,1,1.485,1.485"/>
  <path id="Path_2907" data-name="Path 2907" class="cls-2" d="M25.345,11.978a1.485,1.485,0,0,1-1.485,1.485c-1.114,0-1.485.371-1.485,1.485a1.485,1.485,0,0,1-1.485,1.485c-1.114,0-1.485.371-1.485,1.485a1.485,1.485,0,1,1-1.485-1.485c1.114,0,1.485-.371,1.485-1.485a1.485,1.485,0,0,1,1.485-1.485c1.114,0,1.485-.371,1.485-1.485a1.485,1.485,0,0,1,2.97,0"/>
</svg>
