<svg id="Neo" xmlns="http://www.w3.org/2000/svg" xmlns:xlink="http://www.w3.org/1999/xlink" viewBox="0 0 29.898 29.898">
  <defs>
    <style>
      .cls-1 {
        clip-path: url(#clip-path);
      }

      .cls-2 {
        fill: url(#linear-gradient);
      }

      .cls-3 {
        fill: #fff;
      }
    </style>
    <clipPath id="clip-path">
      <path id="Path_2908" data-name="Path 2908" d="M0,14.949A14.949,14.949,0,1,0,14.949,0,14.966,14.966,0,0,0,0,14.949"/>
    </clipPath>
    <linearGradient id="linear-gradient" x1="-22.791" y1="-15.351" x2="-22.789" y2="-15.351" gradientUnits="objectBoundingBox">
      <stop offset="0" stop-color="#52ba00"/>
      <stop offset="1" stop-color="#bde92d"/>
    </linearGradient>
  </defs>
  <g id="Group_1333" data-name="Group 1333">
    <g id="Group_1332" data-name="Group 1332" class="cls-1">
      <rect id="Rectangle_257" data-name="Rectangle 257" class="cls-2" width="29.897" height="29.897"/>
    </g>
  </g>
  <path id="Path_2909" data-name="Path 2909" class="cls-3" d="M23.2,8.114c-.056-.029-.109-.057-.163-.083Q20.875,7,18.716,5.961q-1.033-.5-2.063-1h-.067a1.336,1.336,0,0,1-.133.062q-3,1.069-6.007,2.139-1.35.482-2.7.967l-.948.32c.115.056.189.092.264.127l1.545.731a.12.12,0,0,0,.027.019Q11,10.462,13.356,11.6a.276.276,0,0,0,.237-.007l2.689-.964L23.055,8.2c.048-.017.11-.016.141-.082"/>
  <path id="Path_2910" data-name="Path 2910" class="cls-3" d="M23.252,8.482q-3.336,1.2-6.674,2.4c-.114.041-.132.1-.132.206q0,2.25,0,4.5c0,.528,0,1.055,0,1.583q0,.707-.008,1.415c0,.323,0,.325.3.441q.984.381,1.969.757l3.905,1.528.8.309V8.442a.3.3,0,0,0-.162.04"/>
  <path id="Path_2911" data-name="Path 2911" class="cls-3" d="M13.042,11.863c-.653-.3-1.3-.618-1.954-.92a8.535,8.535,0,0,0-.9-.409l-.941-.469c-.852-.422-1.732-.785-2.579-1.217-.178-.091-.181-.086-.181.115q0,2.643,0,5.285,0,3.693,0,7.386a.215.215,0,0,0,.15.236c.214.091.423.2.633.3q2.859,1.353,5.718,2.706c.2.1.2.1.2-.122q0-5.27,0-10.538c0-.061-.005-.122-.007-.183,0-.649,0-1.3.008-1.948a.206.206,0,0,0-.145-.218"/>
</svg>
