<svg id="rhoc" xmlns="http://www.w3.org/2000/svg" viewBox="0 0 29.876 29.877">
  <defs>
    <style>
      .cls-1 {
        fill: #fff;
      }

      .cls-2 {
        fill: #cc1e46;
      }
    </style>
  </defs>
  <circle id="Ellipse_249" data-name="Ellipse 249" class="cls-1" cx="13.279" cy="13.279" r="13.279" transform="translate(1.659 1.659)"/>
  <g id="Group_1344" data-name="Group 1344">
    <path id="Path_2935" data-name="Path 2935" class="cls-2" d="M13.42.077A14.941,14.941,0,1,1,5.488,3.37,14.948,14.948,0,0,1,13.42.077M11.032,8.631A3.731,3.731,0,0,0,8.265,7.092,3.833,3.833,0,0,0,5.23,8.426a3.709,3.709,0,0,0-.851,2.389q-.008,2.471,0,4.941a.333.333,0,0,0,.384.348c4.661.013,9.323-.015,13.983.015-.015,1.019,0,2.038.072,3.054a10.485,10.485,0,0,1-4.515,1.9c-.212.049-.569-.008-.616.282-.02.547,0,1.1-.008,1.643a.335.335,0,0,0,.32.387,10.458,10.458,0,0,0,5.456-2.068,3.649,3.649,0,0,0,5.973-.009,4.027,4.027,0,0,0,.692-2.425c0-1.564.014-3.129-.009-4.692a.363.363,0,0,0-.437-.356c-4.646-.009-9.291.006-13.935-.007-.027-.92.04-1.844-.06-2.761-.01-.128-.04-.3.094-.378a10.656,10.656,0,0,1,4.784-1.869c.187-.005.273-.215.26-.377,0-.523.013-1.047-.006-1.57a.322.322,0,0,0-.406-.3A10.452,10.452,0,0,0,11.032,8.631Z"/>
    <path id="Path_2936" data-name="Path 2936" class="cls-2" d="M6.255,11.1A1.7,1.7,0,0,1,7.966,9.482,1.765,1.765,0,0,1,9.7,11.164c.019.941.007,1.882.006,2.823-1.151.026-2.3.008-3.453.01-.005-.967,0-1.933,0-2.9"/>
    <path id="Path_2937" data-name="Path 2937" class="cls-2" d="M20.921,16.039c1.15,0,2.3-.006,3.451,0,.009.92,0,1.84,0,2.76a1.759,1.759,0,0,1-1.1,1.645,1.779,1.779,0,0,1-2.045-.63,1.724,1.724,0,0,1-.318-1.025c0-.916,0-1.834.005-2.753"/>
  </g>
</svg>
