<svg xmlns="http://www.w3.org/2000/svg" xmlns:xlink="http://www.w3.org/1999/xlink" width="29.897" height="29.897" viewBox="0 0 29.897 29.897"><defs><linearGradient id="a" x1="0.5" y1="0.014" x2="0.5" y2="0.989" gradientUnits="objectBoundingBox"><stop offset="0" stop-color="#d3acff"/><stop offset="1" stop-color="#b466fe"/></linearGradient></defs><g transform="translate(-456.69 -406.909)"><circle cx="14.948" cy="14.948" r="14.948" transform="translate(456.69 406.909)" fill="url(#a)"/><path d="M471.639,432.94a11.083,11.083,0,1,1,11.082-11.083A11.1,11.1,0,0,1,471.639,432.94Zm0-20.814a9.731,9.731,0,1,0,9.731,9.731A9.742,9.742,0,0,0,471.639,412.126Z" fill="#fff"/><path d="M476.47,416.777h-7.118a2.544,2.544,0,0,0-2.543,2.471h0v4.936a1.38,1.38,0,0,0,0,2.753h7.119a2.545,2.545,0,0,0,2.541-2.45h0v-4.959a1.379,1.379,0,0,0,0-2.751Zm-1.559,2.445v5.1a1.045,1.045,0,0,1-1.045,1.046h-5.784a1.846,1.846,0,0,0,.286-.888v-5.1a1.047,1.047,0,0,1,1.047-1.047h5.779a1.868,1.868,0,0,0-.286.884Z" fill="#fff"/></g></svg>