<svg id="ssc" xmlns="http://www.w3.org/2000/svg" viewBox="0 0 31.078 29.896">
  <defs>
    <style>
      .cls-1 {
        fill: #dfa12e;
      }

      .cls-2 {
        fill: #fff;
      }
    </style>
  </defs>
  <path id="Path_2912" data-name="Path 2912" d="M15.539,29.9C6.971,29.9,0,23.191,0,14.949S6.971,0,15.539,0,31.078,6.706,31.078,14.949,24.107,29.9,15.539,29.9"/>
  <path id="Path_2913" data-name="Path 2913" class="cls-1" d="M22.413,10.042a3.167,3.167,0,0,1-6.33,0,3.167,3.167,0,0,1,6.33,0"/>
  <path id="Path_2914" data-name="Path 2914" class="cls-2" d="M25.3,20.6a16.236,16.236,0,0,0-3.506-2.468c-1.132-.351-2.848-1.194-4.674.035s-3.432,2.869-6.317,2.869a11.043,11.043,0,0,1-6.828-2.518c-.913-.984.584-2.378,1.388-2s2.227,1.892,5.331,1.892,4.442-2,5.392-2.6a6.146,6.146,0,0,1,3.445-.667,10.772,10.772,0,0,1,7.194,3.443s.767,1.282,0,1.827A1.385,1.385,0,0,1,25.3,20.6"/>
</svg>
