<svg id="ssp" xmlns="http://www.w3.org/2000/svg" xmlns:xlink="http://www.w3.org/1999/xlink" viewBox="0 0 29.898 29.898">
  <defs>
    <style>
      .cls-1 {
        fill: none;
      }

      .cls-2 {
        fill: #6059f3;
      }

      .cls-3 {
        fill: #fff;
      }

      .cls-4 {
        clip-path: url(#clip-path);
      }

      .cls-5 {
        clip-path: url(#clip-path-2);
      }
    </style>
    <clipPath id="clip-path">
      <path id="Path_2931" data-name="Path 2931" d="M8.13,23.962V12.324a6.406,6.406,0,0,0,3.022,5.458v6.18H8.13Z"/>
    </clipPath>
    <clipPath id="clip-path-2">
      <path id="Path_2933" data-name="Path 2933" d="M18.744,5.936h3.024V17.574a6.406,6.406,0,0,0-3.022-5.458V8.957Z"/>
    </clipPath>
  </defs>
  <circle id="Ellipse_246" data-name="Ellipse 246" class="cls-1" cx="14.843" cy="14.843" r="14.843" transform="translate(0.106 0.106)"/>
  <circle id="Ellipse_247" data-name="Ellipse 247" class="cls-2" cx="14.949" cy="14.949" r="14.949" transform="translate(0 0)"/>
  <g id="Group_1342" data-name="Group 1342">
    <path id="Path_2928" data-name="Path 2928" class="cls-3" d="M15.472,11.185h-.119c-.068,0-.138,0-.206.007h0a1.486,1.486,0,0,0-.763,2.648,1.462,1.462,0,0,0,.958.288l.113,0,.125,0a3.441,3.441,0,0,1,1.667,6.335,3.179,3.179,0,0,1-1.708.477H11.151v-6.08L8.13,11.955V23.962h7.342a6.189,6.189,0,0,0,2.111-.369,6.4,6.4,0,0,0-2.111-12.408Z"/>
    <path id="Path_2929" data-name="Path 2929" class="cls-3" d="M14.425,18.713h.119c.068,0,.138,0,.206-.007h0a1.486,1.486,0,0,0,.763-2.648,1.462,1.462,0,0,0-.958-.288l-.113,0-.125,0a3.441,3.441,0,0,1-1.667-6.335,3.179,3.179,0,0,1,1.708-.477h4.386v5.107l3.022,3.878V5.936H14.426a6.189,6.189,0,0,0-2.111.369,6.4,6.4,0,0,0,2.11,12.408Z"/>
    <g id="Group_1339" data-name="Group 1339">
      <path id="Path_2930" data-name="Path 2930" class="cls-3" d="M8.13,23.962V12.324a6.406,6.406,0,0,0,3.022,5.458v6.18H8.13Z"/>
      <g id="Group_1338" data-name="Group 1338" class="cls-4">
        <rect id="Rectangle_258" data-name="Rectangle 258" class="cls-3" width="3.499" height="9.326" transform="translate(7.92 11.804)"/>
      </g>
    </g>
    <g id="Group_1341" data-name="Group 1341">
      <path id="Path_2932" data-name="Path 2932" class="cls-3" d="M18.744,5.936h3.024V17.574a6.406,6.406,0,0,0-3.022-5.458V8.957Z"/>
      <g id="Group_1340" data-name="Group 1340" class="cls-5">
        <rect id="Rectangle_259" data-name="Rectangle 259" class="cls-3" width="3.499" height="9.326" transform="translate(18.506 8.757)"/>
      </g>
    </g>
  </g>
</svg>
