<svg xmlns="http://www.w3.org/2000/svg" viewBox="0 0 29.9 29.9"><defs><style>.cls-1{fill:#fff;}.cls-2{fill:#35b2ff;}.cls-3{fill:#252a7f;}</style></defs><title>trusd crypto</title><g id="Capa_2" data-name="Capa 2"><g id="banderas"><path class="cls-1" d="M29.45,18.57A14.94,14.94,0,1,1,18.56.45,14.94,14.94,0,0,1,29.45,18.57Z"/><path class="cls-2" d="M15.75,17.54V13h.82c1.05,0,2.36-.84,2.36-1.88H13.35c-1,0-2.67.84-2.67,1.88h3.18v7C14.9,20,15.75,18.58,15.75,17.54Z"/><path class="cls-2" d="M10.48,20.21a7.1,7.1,0,0,1-2.36-4.36A7.35,7.35,0,0,1,11,9.4c7-4.86,12.31,1.37,12.31,1.37S18.71,2.47,10,7.31a7.42,7.42,0,0,0-3.35,8.54A7.75,7.75,0,0,0,10.48,20.21Z"/><path class="cls-3" d="M23.23,14.05a7.75,7.75,0,0,0-3.81-4.36,7.1,7.1,0,0,1,2.36,4.36A7.39,7.39,0,0,1,19,20.5c-7,4.85-12.31-1.38-12.31-1.38s4.54,8.31,13.23,3.47A7.45,7.45,0,0,0,23.23,14.05Z"/></g></g></svg>