<svg xmlns="http://www.w3.org/2000/svg" xmlns:xlink="http://www.w3.org/1999/xlink" viewBox="0 0 500 500"><defs><style>.cls-1{fill:#efefef;}.cls-2{fill:none;}.cls-3{clip-path:url(#clip-path);}.cls-4{clip-path:url(#clip-path-2);}.cls-5{fill:#fff;}.cls-6{fill:#32347a;}.cls-7{fill:#83acf7;}</style><clipPath id="clip-path"><path class="cls-1" d="M10,250c0,132.55,107.45,240,240,240S490,382.55,490,250,382.55,10,250,10,10,117.45,10,250"/></clipPath><clipPath id="clip-path-2"><rect class="cls-2" width="500" height="500"/></clipPath></defs><title>TRUE_CIR</title><g id="Capa_2" data-name="Capa 2"><g id="Capa_1-2" data-name="Capa 1"><path class="cls-1" d="M10,250c0,132.55,107.45,240,240,240S490,382.55,490,250,382.55,10,250,10,10,117.45,10,250"/><g class="cls-3"><rect class="cls-1" x="10" y="10" width="480" height="480"/></g><g class="cls-4"><path class="cls-5" d="M250,0C111.93,0,0,111.93,0,250S111.93,500,250,500,500,388.07,500,250,388.07,0,250,0m0,480C123,480,20,377,20,250S123,20,250,20,480,123,480,250,377,480,250,480"/></g><path class="cls-6" d="M197.18,415.55c45.35,3.94,86.38-7.29,121.31-36.33,46.23-38.43,67.29-88.22,60.91-148.29-5.79-54.46-52.45-102.28-106.49-111a215.08,215.08,0,0,0-28.75-2.58c7.16-3.77,15.17-4.65,22.86-5.71,54.68-7.52,109.88,19.27,137.67,66.85,21.64,37,24.85,76.89,12.76,117.17-21.5,71.68-70.17,114.12-144,126.83-24.18,4.17-48.29,1.69-71.85-5.31C200.15,416.74,198.75,416.13,197.18,415.55Z"/><path class="cls-7" d="M299.46,83.71c-8.09.47-15.77-.47-23.49-.08-36.68,1.88-69,14.86-97.09,38.13-32.12,26.6-51.38,60.84-58.38,101.88-13,76,34.68,141.56,105.43,155.78a168.81,168.81,0,0,0,29.87,3,100.43,100.43,0,0,1-32.28,6.6C179.72,390.91,142,376.62,112,344.41c-20.08-21.52-32.17-47.24-35.31-76.62-5.74-53.84,11-100.48,48-139.34,28.7-30.14,64.49-47.22,106.1-51.94,21.58-2.45,42.67-.45,63.56,5C296,81.91,297.81,82.06,299.46,83.71Z"/><path class="cls-7" d="M231.7,279.42c0-15.83,0-31.65,0-47.47,0-9.79,1-8.44-8.77-8.48-14.82-.06-29.65-.16-44.47.07-4.85.08-6.08-.8-3.6-5.51,8.7-16.53,23-25.32,40.82-26.87,35.74-3.1,71.63-.67,107.46-1.32,3.89-.07,3.69,1.57,2.54,4.44C318.93,211,301.38,223,282.9,223.4c-14.91.3-14.91.3-14.91,15.31,0,17.22-.54,34.47.15,51.67.76,19.12-8.86,31.33-24.45,40-11.89,6.62-12,6.44-12-7.11Z"/></g></g></svg>