<svg id="Capa_1" data-name="Capa 1" xmlns="http://www.w3.org/2000/svg" xmlns:xlink="http://www.w3.org/1999/xlink" viewBox="0 0 500 500"><defs><style>.cls-1{fill:#fff;}.cls-2{fill:url(#未命名的渐变_19);}.cls-3{fill:url(#未命名的渐变_19-2);}.cls-4{fill:#d8a252;}</style><linearGradient id="未命名的渐变_19" x1="68.92" y1="145.46" x2="431.08" y2="354.54" gradientUnits="userSpaceOnUse"><stop offset="0" stop-color="#5e8ff0"/><stop offset="0.62" stop-color="#385ff1"/></linearGradient><linearGradient id="未命名的渐变_19-2" x1="100.94" y1="250" x2="350.85" y2="250" xlink:href="#未命名的渐变_19"/></defs><title>USC ETH0</title><circle class="cls-1" cx="250" cy="250" r="240"/><path class="cls-1" d="M250,0C111.93,0,0,111.93,0,250S111.93,500,250,500,500,388.07,500,250,388.07,0,250,0Zm0,480C123,480,20,377,20,250S123,20,250,20,480,123,480,250,377,480,250,480Z"/><g id="_Grupo_" data-name="&lt;Grupo&gt;"><path id="_Trazado_compuesto_" data-name="&lt;Trazado compuesto&gt;" class="cls-2" d="M250,40.87C134.69,40.87,40.87,134.69,40.87,250S134.69,459.13,250,459.13,459.13,365.31,459.13,250,365.31,40.87,250,40.87Zm0,397.55C146.1,438.42,61.58,353.9,61.58,250S146.1,61.58,250,61.58,438.42,146.1,438.42,250,353.9,438.42,250,438.42Z"/></g><g id="_Grupo_2" data-name="&lt;Grupo&gt;"><path id="_Trazado_compuesto_2" data-name="&lt;Trazado compuesto&gt;" class="cls-3" d="M174.42,258.79a60.68,60.68,0,0,0,113.24,22.73,9,9,0,0,1,7.83-4.66h46.43a8.92,8.92,0,0,1,7.73,13.38l-40.21,69.64a21.39,21.39,0,0,1-18.54,10.71H276.42v24.75a5.36,5.36,0,0,1-5.37,5.37H257.64a5.36,5.36,0,0,1-5.37-5.37V370.59h-34v24.75a5.37,5.37,0,0,1-5.37,5.37H199.5a5.36,5.36,0,0,1-5.36-5.37V370.59h-15.6A21.42,21.42,0,0,1,160,359.88l-56.18-97.3a21.45,21.45,0,0,1,0-21.42L160,143.86a21.42,21.42,0,0,1,18.55-10.71h15.6V104.66a5.36,5.36,0,0,1,5.36-5.37h13.42a5.37,5.37,0,0,1,5.37,5.37v28.49h34V104.66a5.36,5.36,0,0,1,5.37-5.37h13.41a5.36,5.36,0,0,1,5.37,5.37v28.49H290.9a21.39,21.39,0,0,1,18.54,10.71l40.21,69.64a8.92,8.92,0,0,1-7.73,13.38H295.49a9,9,0,0,1-7.85-4.69,60.69,60.69,0,0,0-113.22,36.6Z"/></g><g id="_Grupo_3" data-name="&lt;Grupo&gt;"><polygon id="_Trazado_" data-name="&lt;Trazado&gt;" class="cls-4" points="347.01 256.9 377.77 300.84 408.52 256.9 377.77 275.11 347.01 256.9"/><polygon id="_Trazado_2" data-name="&lt;Trazado&gt;" class="cls-4" points="408.52 250.63 377.77 199.16 347.01 250.63 377.77 268.83 408.52 250.63"/></g></svg>