<svg xmlns="http://www.w3.org/2000/svg" width="29.897" height="29.897" viewBox="0 0 29.897 29.897"><g transform="translate(-403.143 -407.073)"><path d="M418.091,436.97a14.9,14.9,0,1,1,5.819-1.175A14.843,14.843,0,0,1,418.091,436.97Z" fill="#e5e5e5"/><path d="M419.249,420.825v1.885h-2.156v-1.884c-2.637.121-4.629.658-4.629,1.2,0,.619,2.562,1.017,5.725,1.017h.024c.326,0,.641-.006.951-.015l.084-.005v0c2.662-.079,4.68-.452,4.68-1S421.91,420.941,419.249,420.825Z" fill="#50af95"/><path d="M424.445,414.285H411.586l-3.645,7.831,9.973,10.075,10.328-9.923Zm-5.2,9.267v4.7h-2.156v-4.7c-2.916-.122-5.2-.716-5.2-1.434s2.289-1.312,5.2-1.433v-1.906h-3.626v-1.96h9.408v1.96h-3.626v1.9c2.923.119,5.205.714,5.205,1.434S422.172,423.433,419.249,423.552Z" fill="#50af95"/></g></svg>