<svg xmlns="http://www.w3.org/2000/svg" width="29.897" height="29.897" viewBox="0 0 29.897 29.897"><g transform="translate(-510.017 -406.844)"><circle cx="14.948" cy="14.948" r="14.948" transform="translate(510.017 406.844)" fill="#d6d6d6"/><path d="M524.939,410.81A10.983,10.983,0,1,0,535.9,421.793,10.973,10.973,0,0,0,524.939,410.81Zm0,21.423a10.441,10.441,0,1,1,10.422-10.44A10.431,10.431,0,0,1,524.939,432.233Z" fill="#231f20"/><path d="M526.387,413.808a8.093,8.093,0,0,1,4.678,2.677l.765-.883.736,1.345.707-.338a9.8,9.8,0,0,0-8.019-4.638v.795h1.518Z" fill="#231f20"/><path d="M533.041,421.793a8.1,8.1,0,0,1-.473,2.735l1.111.2-.783,1.317.686.4a9.85,9.85,0,0,0,.01-9.29l-.722.344.757,1.384-1.064.158A8.13,8.13,0,0,1,533.041,421.793Z" fill="#231f20"/><path d="M532.573,426.593l-.807,1.357-.692-.859a8.093,8.093,0,0,1-4.719,2.693l.384,1.029-1.485.005v.8a9.8,9.8,0,0,0,8.009-4.622Z" fill="#231f20"/><path d="M523.392,429.758a8.092,8.092,0,0,1-4.616-2.7l-.709.86-.779-1.345-.687.4a9.8,9.8,0,0,0,8.022,4.643v-.794l-1.622.005Z" fill="#231f20"/><path d="M516.836,421.793a8.116,8.116,0,0,1,.442-2.644l-1.11-.186.789-1.378-.716-.342a9.842,9.842,0,0,0,.043,9.182l.687-.4-.78-1.348,1.105-.191A8.106,8.106,0,0,1,516.836,421.793Z" fill="#231f20"/><path d="M524.623,411.971a9.807,9.807,0,0,0-8.071,4.721l.72.343.755-1.32.712.854a8.092,8.092,0,0,1,4.685-2.748l-.39-1.055h1.589Z" fill="#231f20"/><path d="M528.084,421.794a3.179,3.179,0,0,0-.2-1.1l2.945-.986-1.172-2.037s-1.8,1.582-2.331,2.059a3.2,3.2,0,0,0-1.9-1.092l.624-3.077H523.71s.483,2.408.622,3.077a3.2,3.2,0,0,0-1.9,1.1l-2.389-2.049-1.141,2.055s2.314.741,2.977.948a3.184,3.184,0,0,0,0,2.2l-2.962.991,1.173,2.038s1.817-1.6,2.34-2.068a3.2,3.2,0,0,0,1.906,1.1c-.134.642-.626,3.1-.626,3.1h2.347l-.628-3.1a3.192,3.192,0,0,0,1.909-1.1c.544.485,2.324,2.052,2.324,2.052l1.172-2.037-2.942-.985A3.206,3.206,0,0,0,528.084,421.794Z" fill="#231f20"/></g></svg>