<svg xmlns="http://www.w3.org/2000/svg" viewBox="0 0 29.9 29.9"><defs><style>.cls-1{fill:#3da5d8;}.cls-2{fill:#fff;}</style></defs><title>xst crypto</title><g id="Capa_2" data-name="Capa 2"><g id="banderas"><circle class="cls-1" cx="14.95" cy="14.95" r="14.95"/><path class="cls-2" d="M15,1.16A13.79,13.79,0,1,0,28.74,15,13.8,13.8,0,0,0,15,1.16ZM15,27.9A13,13,0,1,1,27.9,15,13,13,0,0,1,15,27.9Z"/><path class="cls-2" d="M22.91,10.06,15,4.63,7,10.06,9.46,15,7,19.84l8,5.43,8-5.43L20.43,15Zm-3.07,3.72L16.35,6.86l5.2,3.55ZM10.65,15,15,6.44,19.25,15,15,23.46Zm-2.3-4.54,5.2-3.55-3.5,6.92Zm1.7,5.71L13.55,23l-5.2-3.55Zm11.5,3.37L16.35,23l3.49-6.92Z"/></g></g></svg>