<svg id="Ars" xmlns="http://www.w3.org/2000/svg" viewBox="0 0 35.175 34.867">
  <defs>
    <style>
      .cls-1 {
        fill: #80a9e1;
      }

      .cls-2 {
        fill: #fff;
      }

      .cls-3 {
        fill: #f1b634;
      }

      .cls-3, .cls-4 {
        fill-rule: evenodd;
      }

      .cls-4 {
        fill: #753c26;
      }
    </style>
  </defs>
  <path id="Path_2864" data-name="Path 2864" class="cls-1" d="M.52,13.246a17.575,17.575,0,0,1,34.136,8.375A17.593,17.593,0,0,1,13.363,34.353,17.418,17.418,0,0,1,.52,13.246"/>
  <path id="Path_2865" data-name="Path 2865" class="cls-1" d="M1.025,11.579H34.15a17.636,17.636,0,0,0-33.125,0"/>
  <path id="Path_2866" data-name="Path 2866" class="cls-2" d="M34.795,21.017c.008-.037.016-.074.023-.111l.039-.194c.007-.038.014-.075.022-.113q.02-.1.036-.2l.018-.1c.014-.084.027-.167.04-.251,0-.016.005-.033.008-.05.015-.1.029-.2.043-.3,0-.027.007-.053.01-.08.009-.074.019-.148.027-.222l.012-.1c.007-.066.014-.132.02-.2,0-.037.007-.073.01-.11.006-.067.012-.134.017-.2,0-.034.005-.068.008-.1.006-.077.01-.153.015-.23,0-.023,0-.047,0-.07.006-.1.01-.2.014-.3,0-.016,0-.033,0-.049,0-.083.006-.167.007-.25,0-.032,0-.063,0-.095,0-.069,0-.137,0-.206v-.1c0-.067,0-.134,0-.2,0-.033,0-.066,0-.1,0-.074,0-.147-.006-.221,0-.026,0-.051,0-.077q-.012-.3-.033-.6l-.006-.078-.018-.218-.009-.1c-.007-.068-.013-.137-.021-.2,0-.031-.007-.062-.01-.094-.008-.072-.017-.145-.026-.217l-.009-.076c-.026-.2-.055-.394-.088-.59l-.009-.053q-.02-.119-.042-.237l-.015-.081c-.013-.071-.027-.141-.041-.212-.006-.028-.011-.056-.017-.084-.015-.072-.031-.145-.046-.217-.005-.024-.01-.048-.016-.072-.02-.088-.04-.177-.062-.265l-.005-.02q-.033-.138-.069-.276h0q-.2-.766-.468-1.509H1.025q-.291.813-.506,1.668a17.222,17.222,0,0,0-.3,6.923c0,.01,0,.02,0,.03.013.082.027.163.042.245l.009.052c.014.076.028.152.043.228,0,.023.009.045.013.068.014.072.029.143.044.215l.018.081.045.2c.007.032.015.063.022.095l.045.19c.012.048.024.1.037.143.018.072.037.143.056.214s.038.141.058.211l.027.093c.019.066.039.133.059.2.009.031.019.062.029.093.02.066.041.132.062.2l.03.091.066.2c.01.03.021.059.031.089.023.066.047.133.071.2.006.015.011.031.016.046h0c.015.041.029.082.045.123H34.082l.044-.123h0c.037-.1.072-.2.107-.308,0-.01.007-.02.01-.03.046-.135.09-.27.132-.406l.018-.057c.039-.127.077-.256.113-.384l.024-.081c.043-.153.084-.307.122-.463.025-.1.049-.2.072-.3.008-.032.014-.064.022-.1.017-.067.033-.136.047-.205"/>
  <path id="Path_2867" data-name="Path 2867" class="cls-3" d="M17.857,15.5c0-.231-.017-.456-.021-.674,0-.243-.032-.52-.031-.743,0-.262-.02-.483-.02-.742,0-.133,0-.243-.01-.377,0-.069.01-.325-.062-.325s-.069.576-.072.681c-.008.229-.032.51-.031.732,0,.483-.038.957-.041,1.441-.034,0-.066,0-.1.007a5.185,5.185,0,0,0-.215-.517,1.507,1.507,0,0,1-.117-.718,1.192,1.192,0,0,0-.127-.708,1.139,1.139,0,0,1-.253-.594v-.03c0-.083.029-.125.031-.193-.1,0-.154.168-.154.275v.061c0,.343.287.456.287.935l0,.2-.024.3v.132a1.627,1.627,0,0,0,.118.422.985.985,0,0,1,.108.432v.078l-.1.029c-.038-.085-.1-.195-.128-.255-.055-.111-.1-.222-.155-.335s-.1-.22-.157-.333c-.046-.1-.128-.246-.159-.34s-.114-.232-.157-.333-.11-.233-.159-.33a3.383,3.383,0,0,0-.339-.651h-.01c-.024,0-.031.007-.031.03v.01c0,.059.43,1.147.482,1.261.045.1.482,1.241.482,1.271a.589.589,0,0,1,.055.119l-.087.046-.009-.012-.339-.346a1.633,1.633,0,0,1-.361-.456,3.541,3.541,0,0,0-.251-.565c-.154-.224-.246-.229-.433-.385a.666.666,0,0,1-.311-.516c-.044,0-.072.026-.072.061v.112a.666.666,0,0,0,.15.33,1.7,1.7,0,0,0,.263.227,1.363,1.363,0,0,1,.371.6,1.285,1.285,0,0,0,.338.631c.068.068.173.176.231.249a1.7,1.7,0,0,1,.135.239l-.066.046a.234.234,0,0,1-.025.029c-.14-.107-.4-.353-.506-.457-.169-.169-.374-.318-.544-.488-.092-.092-1.071-.968-1.1-.968h-.051v.03a3.891,3.891,0,0,0,.49.541c.175.174.334.352.508.524s.334.351.508.524c.11.109.375.36.481.493a.9.9,0,0,0-.06.073c-.2-.095-.428-.166-.623-.263a1.7,1.7,0,0,1-.285-.165c-.072-.059-.168-.17-.229-.211a1.193,1.193,0,0,0-.431-.346c-.121-.1-.53-.1-.76-.3l-.154-.193c-.016.011-.031.013-.031.041v.041c0,.12.2.308.3.352a1.046,1.046,0,0,0,.24.088.918.918,0,0,1,.249.089c.053.046.15.093.218.15a1.029,1.029,0,0,1,.192.186,3.2,3.2,0,0,0,.233.257,1.1,1.1,0,0,0,.3.2,1.825,1.825,0,0,1,.59.342c-.019.03-.038.062-.058.1l-.008-.006c-.2-.047-.472-.17-.681-.24s-.484-.163-.684-.248c-.107-.046-1.348-.488-1.375-.488a.039.039,0,0,0-.041.041c0,.063.259.143.318.173.1.051.233.108.338.153.234.1.46.192.693.3s.459.2.691.3c.068.029.488.207.638.277a.274.274,0,0,1-.022.043l-.014.053c-.147,0-.3-.019-.467-.019-.2,0-.376-.041-.534-.04l-.364-.155c-.033-.009-.187-.072-.236-.091a.937.937,0,0,0-.287-.051l-.063-.006-.358.057h-.2c-.191,0-.337-.148-.39-.153V16.6c0,.128.346.285.514.269l.3-.035h.082a1.671,1.671,0,0,1,.39.081,3.394,3.394,0,0,0,.317.143c.043.018.1.052.15.076s.114.037.174.062c.2.08.6,0,.817.106l.1.034-.008.107-1.182.043c-.308,0-.622.031-.934.031-.158,0-.314.015-.461.021-.086,0-.151,0-.227.009-.093.011-.163-.028-.163.072a5.1,5.1,0,0,0,.75.04c.233.008.537.032.759.031.488,0,.969.036,1.454.04,0,.034.005.066.009.1-.047.013-.1.027-.14.043-.107.038-.189.07-.286.113a1.879,1.879,0,0,1-.647.163H14.4a1.692,1.692,0,0,0-.834.1,1.36,1.36,0,0,1-.675.266h-.062c-.045,0-.08-.036-.133-.041V18.5c0,.02,0,.018.01.03l.01.01a.454.454,0,0,0,.277.081h.041c.354,0,.514-.285.985-.285h.133l.174.024.247,0a1.253,1.253,0,0,0,.556-.12,1.372,1.372,0,0,1,.494-.092c.012.037.024.072.038.107l-.041.014-1.437.641c-.054,0-.536.229-.616.264s-.585.227-.585.285v.031c.029.007.018.01.041.01.044,0,.576-.195.647-.224.1-.039.221-.086.324-.116s.225-.095.312-.118l1.221-.437c.031-.015.167-.053.251-.088l.042.08-.652.577a1.165,1.165,0,0,1-.253.135c-.055.024-.264.086-.291.109-.4.091-.52.447-.78.671a.769.769,0,0,1-.24.128c-.047.016-.144,0-.148.034-.006.046.081.062.131.062a.679.679,0,0,0,.37-.132c.17-.113.24-.29.456-.433a1.444,1.444,0,0,1,.29-.15c.094-.034.268-.07.342-.108.408-.094.6-.511.934-.6L16,18.875l.027.033.045.047-.8.839-.924.946a1.9,1.9,0,0,0-.267.3v.02c0,.023.007.03.031.03a1.5,1.5,0,0,0,.349-.3L16.246,19.2l.042-.039c.025.021.052.041.08.061l-.05.07a1.309,1.309,0,0,1-.082.183c-.025.059-.044.135-.071.194a3,3,0,0,1-.187.344c-.145.217-.408.357-.532.541v.01c-.238.158-.185.93-.606,1.027,0,.03.007.051.041.051h.01c.237,0,.419-.308.479-.512a1.138,1.138,0,0,1,.391-.6,1.977,1.977,0,0,0,.492-.5c.1-.184.225-.512.383-.617l.011-.012.022.013a.662.662,0,0,0,.073.039l-1,2.6-.011,0v.061c0,.023.007.03.031.03h.01a2.764,2.764,0,0,0,.314-.583c.09-.209.186-.408.284-.613s.188-.4.286-.612c.045-.095.1-.2.145-.3a2.261,2.261,0,0,1,.151-.308l.068-.152.095.031c0,.048-.02.036-.02.1v.408a1.916,1.916,0,0,1-.055.484,2.86,2.86,0,0,0-.284.8v.01l.055.508,0,.082a.718.718,0,0,1-.164.4c0,.014.014.02.031.02.149,0,.287-.316.287-.488v-.1l-.036-.223,0-.031a2.491,2.491,0,0,1,.342-.922,2.137,2.137,0,0,0,.078-.553,1.363,1.363,0,0,1,.041-.274c.01-.036.037-.1.058-.152.039,0,.078.006.117.008,0,.483.045.962.051,1.425,0,.258.021.516.02.753,0,.116-.015.691.072.691s.056-.518.076-.626c.023-.127.014-.536.016-.686.006-.442.052-.911.052-1.342v-.21h.085l.017,0c.037.153.18.417.221.534a1.6,1.6,0,0,1,.109.716,1.124,1.124,0,0,0,.14.706,1.253,1.253,0,0,1,.25.586v.041c0,.045-.041.107-.041.173.118,0,.154-.187.154-.315a1.181,1.181,0,0,0-.208-.556,1.519,1.519,0,0,1-.079-.684l.023-.274,0-.031c0-.28-.195-.529-.195-.7l-.034-.275.109-.029.028.06c.1.2.22.436.3.639.042.107.11.212.151.318a2.934,2.934,0,0,0,.149.31c.052.094.1.222.15.319s.093.2.147.312a6.459,6.459,0,0,0,.3.624h.051a.154.154,0,0,0,.01-.051c0-.082-.455-1.168-.52-1.356-.078-.229-.188-.447-.263-.675-.037-.114-.189-.447-.239-.607l.089-.047c.162.209.376.345.536.556a1.194,1.194,0,0,1,.22.372,2.043,2.043,0,0,0,.186.415c.04.149.315.321.437.411a.679.679,0,0,1,.322.525c.044,0,.072-.026.072-.061v-.092c0-.067-.021-.079-.021-.153-.032-.013-.054-.093-.072-.122a1.189,1.189,0,0,0-.084-.11,1.892,1.892,0,0,0-.215-.173.815.815,0,0,1-.185-.2c-.032-.048-.126-.228-.142-.246-.047-.1-.1-.29-.142-.4a1.1,1.1,0,0,0-.2-.34c-.075-.1-.192-.185-.265-.277a2.137,2.137,0,0,1-.165-.279l.088-.068c.125.125.4.338.492.434.172.171.378.322.549.493.094.094,1.084.984,1.111.984h.051V21.04c0-.076-.354-.378-.417-.462a5.948,5.948,0,0,0-.438-.451c-.15-.149-.286-.3-.436-.452a5.081,5.081,0,0,1-.434-.455c-.042-.028-.18-.183-.265-.265a.657.657,0,0,0,.056-.064.035.035,0,0,0,.006-.009.618.618,0,0,1,.1.053c.057.013.27.1.346.135a1.98,1.98,0,0,1,.317.154,2.426,2.426,0,0,1,.5.446,1.128,1.128,0,0,0,.645.306,1.268,1.268,0,0,1,.345.136.663.663,0,0,1,.129.106c.049.051.05.11.095.14.016-.011.031-.013.031-.041v-.01a.463.463,0,0,0-.2-.318.843.843,0,0,0-.366-.156,1.26,1.26,0,0,1-.622-.411,1.537,1.537,0,0,0-.558-.474c-.117-.057-.247-.1-.356-.166-.03-.018-.139-.109-.214-.169l.033-.051a.4.4,0,0,1,.018-.051c.144.049.612.215.653.234.207.095.48.167.7.252.108.042.23.085.347.124.09.03.269.112.343.128.152.032.613.244.708.244.024,0,.012,0,.041-.01v-.031c0-.063-.569-.282-.659-.324-.115-.053-.226-.1-.34-.151s-.237-.09-.348-.143c-.22-.107-.45-.2-.68-.3-.114-.049-.233-.1-.341-.15-.044-.022-.232-.107-.312-.138.01-.029.02-.059.031-.088l.023,0a1.669,1.669,0,0,0,.213.012,1.812,1.812,0,0,1,.441.01c.542,0,.777.325,1.2.325l.073.007.389-.058h.133a.671.671,0,0,1,.252.045c.081.032.136.1.19.107v-.041c0-.117-.319-.264-.452-.264l-.113,0-.277.032a1.452,1.452,0,0,1-.5-.108,3.8,3.8,0,0,1-.417-.2,1.714,1.714,0,0,0-.595-.1,1.139,1.139,0,0,1-.493-.1c0-.035.008-.069.011-.1l.759-.021c.363,0,.754-.042,1.119-.041.165,0,.4-.021.565-.02.1,0,.524.021.524-.061s-.225-.051-.308-.051c-.122,0-.229-.012-.339-.02-.206-.015-.508-.021-.708-.02-.446,0-.969-.016-1.4-.051h-.212c0-.031,0-.063-.009-.093a3.727,3.727,0,0,0,.484-.185,1.949,1.949,0,0,1,.548-.138h.031a2.109,2.109,0,0,0,.9-.085c.059-.021.231-.14.319-.183a.857.857,0,0,1,.4-.1c.042,0,.125.037.174.041v-.031c0-.073-.19-.122-.277-.122h-.072a.931.931,0,0,0-.462.163,1.534,1.534,0,0,1-.513.122H21.29l-.41-.031h-.072c-.343,0-.574.214-.862.214l-.147.007c-.01-.035-.022-.069-.034-.1l2.654-1.165.022-.029v-.032a.052.052,0,0,0-.041-.02c-.042,0-1.282.444-1.4.5s-.238.087-.353.128-.225.084-.347.124-.226.08-.348.123c-.081.029-.215.071-.3.107l-.018-.035-.027-.046c.184-.139.325-.31.5-.457a1.979,1.979,0,0,1,.714-.36,1.126,1.126,0,0,0,.586-.487.96.96,0,0,1,.277-.254.509.509,0,0,1,.194-.072c.189,0,.044-.081,0-.081H21.8a.821.821,0,0,0-.56.36,1.128,1.128,0,0,1-.558.352,1.773,1.773,0,0,1-.331.119,1.182,1.182,0,0,0-.3.151,3.872,3.872,0,0,1-.5.391l-.14.067-.017-.024a.77.77,0,0,0-.053-.063c.02-.021.038-.042.046-.052.1-.144.375-.351.489-.5.126-.169.35-.336.485-.506.1-.131.967-.956.967-1.015v-.02c0-.023-.007-.03-.031-.03h-.01c-.056,0-.8.726-.924.813-.15.108-.3.3-.458.411-.128.094-.348.351-.466.413l-.307.287c-.024-.02-.051-.04-.078-.061a4.972,4.972,0,0,0,.223-.489A2.177,2.177,0,0,1,19.566,15a3.44,3.44,0,0,0,.4-.369,1.085,1.085,0,0,0,.228-.526c.046-.072.064-.212.138-.321a.454.454,0,0,1,.257-.21l-.025-.049a.488.488,0,0,0-.367.216,1.013,1.013,0,0,0-.177.414,1.518,1.518,0,0,1-.493.6,1.291,1.291,0,0,0-.372.4c-.081.128-.17.414-.275.49l-.1.114-.1-.051.278-.7.174-.468c.026-.037.565-1.453.565-1.474v-.01c0-.02-.018-.041-.031-.041-.068,0-.285.521-.325.613-.013.031-.06.126-.077.158-.028.05-.049.118-.074.161a2.046,2.046,0,0,0-.15.319l-.523,1.1L18.4,15.6l-.09-.028.013-.065a5.228,5.228,0,0,1,.016-.726,1.142,1.142,0,0,1,.074-.3,1.937,1.937,0,0,0,.114-.263,1.066,1.066,0,0,0,.133-.437V13.6c0-.023-.008-.022-.019-.041l-.033-.335v-.04a.636.636,0,0,1,.06-.246c.024-.051.149-.171.073-.171-.143,0-.287.314-.287.468l0,.062.036.264v.051a2.488,2.488,0,0,1-.342.922,1.631,1.631,0,0,0-.079.552.952.952,0,0,1-.041.275c-.009.034-.038.1-.059.155a.93.93,0,0,0-.108-.01Z"/>
  <path id="Path_2868" data-name="Path 2868" class="cls-4" d="M17.765,19.759l.01-.163h.082v.285c0,.43-.045.9-.052,1.342,0,.149.007.559-.016.686-.02.109.021.626-.076.626s-.072-.575-.072-.691c0-.237-.016-.5-.02-.753-.007-.485-.052-.988-.052-1.494h.081l.011.224L17.7,20.9h.008l.055-1.14Zm1.047-.478a2.427,2.427,0,0,0,.472.519.915.915,0,0,1,.222.278c.023.046.144.349.149.352l-.023-.132a1.445,1.445,0,0,1-.058-.167,1,1,0,0,0-.066-.159,1.4,1.4,0,0,0-.2-.247,1.446,1.446,0,0,1-.222-.227,2.621,2.621,0,0,1-.16-.3l.09-.054a1.573,1.573,0,0,0,.195.361c.073.091.189.176.265.277a1.076,1.076,0,0,1,.2.34c.04.108.095.3.142.4.016.018.109.2.142.246a.815.815,0,0,0,.185.2,2.008,2.008,0,0,1,.215.173.97.97,0,0,1,.084.11c.018.029.04.109.072.122,0,.074.021.086.021.153v.092c0,.035-.028.06-.072.061a.679.679,0,0,0-.322-.525c-.122-.09-.4-.262-.437-.411a2.094,2.094,0,0,1-.186-.415,1.237,1.237,0,0,0-.22-.372c-.174-.23-.414-.372-.579-.616l.094-.061Zm.093-.092-.1.061-.308.163L18,19.545l-.072.01a3.286,3.286,0,0,1-.676-.043,2.329,2.329,0,0,1-.527-.2,2.583,2.583,0,0,1-.427-.3c-.063-.063-.113-.12-.175-.183s-.118-.183-.156-.211a1.993,1.993,0,0,1-.308-1.007l0-.01.024-.335.072-.275c.027-.042.083-.206.116-.271a1.7,1.7,0,0,1,.149-.239,1.466,1.466,0,0,1,.169-.219c.044-.043.179-.16.2-.2l.144-.1.421-.224a2.709,2.709,0,0,1,.657-.132,2.077,2.077,0,0,1,1.129.264,2.327,2.327,0,0,1,.4.292,1.892,1.892,0,0,1,.168.179c.027.036.129.186.148.2l.072.122a1.93,1.93,0,0,1,.236.885v.041a1.989,1.989,0,0,1-.072.5c-.027.068-.049.14-.075.21s-.078.161-.089.207l-.072.112c-.019.014-.121.163-.148.2-.05.066-.133.131-.17.187l-.236.184Zm-.893.376h.051a2,2,0,0,0,.2.607,1.136,1.136,0,0,1,.13.674H18.4l.032-.274c.036-.267-.236-.57-.236-.885v-.153l.1-.02,0,.061.036.284c0,.173.195.421.195.7l0,.031-.023.274a1.519,1.519,0,0,0,.079.684,1.181,1.181,0,0,1,.208.556c0,.128-.036.313-.154.315,0-.066.041-.128.041-.173v-.041a1.264,1.264,0,0,0-.25-.586,1.13,1.13,0,0,1-.14-.706,1.6,1.6,0,0,0-.109-.716,3.269,3.269,0,0,1-.23-.6v-.028l.062-.01Zm.42.051-.062-.132c.028-.007.042-.02.062-.02a3.781,3.781,0,0,1,.318.62c.043.084.276.607.309.63L18.566,19.4l.092-.02c.009.1.21.54.254.673.075.228.184.446.263.675.064.188.52,1.274.52,1.356a.159.159,0,0,1-.01.051h-.051a6.131,6.131,0,0,1-.3-.624c-.054-.106-.1-.206-.147-.312s-.1-.225-.15-.319a3.388,3.388,0,0,1-.149-.31c-.041-.106-.109-.211-.151-.318-.081-.2-.2-.441-.3-.639Zm-.954-.041c0,.047-.066.174-.082.234a1.243,1.243,0,0,0-.041.274,2.125,2.125,0,0,1-.078.553,2.467,2.467,0,0,0-.342.922l0,.031.036.223v.1c0,.172-.138.488-.287.488-.017,0-.031-.006-.031-.02a.714.714,0,0,0,.164-.4l0-.082-.055-.508v-.01a2.872,2.872,0,0,1,.284-.8A1.922,1.922,0,0,0,17.1,20.1v-.275c0-.044,0-.089,0-.133,0-.073.021-.049.021-.122l.01-.062.1.011c0,.124-.041.232-.041.366V20.3a.759.759,0,0,1-.065.343c-.032.079-.117.229-.13.278a1.21,1.21,0,0,0,.17-.259.7.7,0,0,0,.086-.352c0-.112.012-.294.021-.406a2.079,2.079,0,0,1,.1-.338l.1.013Zm-.452.123a2.876,2.876,0,0,1,.01.508,1.313,1.313,0,0,1-.076.433,2.375,2.375,0,0,0-.273.756v.051l.059.387,0,.172c0,.181-.164.329-.164.376a.084.084,0,0,0,.092.081h.01c.163,0,.361-.365.339-.559l-.034-.335a1.605,1.605,0,0,1,.229-.671l.113-.224c0-.048.05-.211.066-.3a2.083,2.083,0,0,0,.016-.35.754.754,0,0,1,.092-.325v.224L17.58,21.9c.016.056-.1.681.154.681.11-.025.092-.153.092-.285s.021-.246.021-.356c0-.243.021-.491.02-.732,0-.479.051-.967.051-1.454l.174.407.123.366c.017.2.01.339.01.559v.071c0,.489.38.639.38,1.047v.061c0,.064-.031.075-.031.122v.01c0,.034.018.071.051.071h.041c.135,0,.185-.22.185-.366v-.02c0-.368-.287-.459-.287-.946V20.9l.01-.091.01-.112V20.53c0-.322-.226-.514-.222-.917l.345.734c.025.108.172.349.222.481.015.039.095.2.118.239.04.067.072.164.109.238.077.156.156.318.228.476.051.112.142.417.287.417a.1.1,0,0,0,.072-.153l-.749-1.952-.082-.214-.031-.071-.1-.274.009-.007.23.22a1.915,1.915,0,0,1,.382.455c.095.153.142.417.25.576a1.308,1.308,0,0,0,.431.407.622.622,0,0,1,.322.5l.035.048.067,0c.042,0,.092-.086.092-.132v-.081a.7.7,0,0,0-.244-.47c-.143-.14-.232-.151-.36-.345a1.74,1.74,0,0,1-.122-.235c-.045-.091-.053-.164-.092-.254s-.075-.179-.1-.252-.126-.179-.135-.212a1.575,1.575,0,0,1-.411-.519l.493.437.749.671.133.122c.115.076.708.661.77.661h.062a.079.079,0,0,0,.062-.061v-.01c0-.156-.272-.349-.362-.455-.1-.123-.285-.293-.405-.412-.137-.136-.263-.282-.4-.417a5,5,0,0,1-.4-.414l-.287-.285L19.465,19a2.517,2.517,0,0,1,.544.214c.217.05.463.342.608.486a1.119,1.119,0,0,0,.323.23,1.458,1.458,0,0,0,.424.119,3.375,3.375,0,0,1,.305.145.336.336,0,0,1,.111.114c.022.045.049.117.107.117s.092-.063.092-.122c0-.209-.272-.417-.445-.474a2.464,2.464,0,0,1-.349-.112,1.771,1.771,0,0,1-.263-.187.569.569,0,0,1-.164-.163l-.257-.275-.144-.112-.144-.081-.39-.173-.158-.127.006-.011.162.056.534.2a3.92,3.92,0,0,1,.513.173c.154.069.35.112.5.183.046.021.206.076.256.092s.2.059.254.084a2.49,2.49,0,0,0,.506.17h.021a.076.076,0,0,0,.082-.081v-.03c0-.074-.23-.15-.3-.18-.093-.039-.235-.12-.325-.146a3.611,3.611,0,0,1-.334-.147c-.082-.048-.232-.1-.327-.143-.218-.1-.453-.185-.662-.29-.124-.062-.589-.236-.657-.3a4.953,4.953,0,0,1,.832.029c.163.033.543.235.625.235a.838.838,0,0,0,.318.071h.082l.379-.056.2,0c.195,0,.3.153.37.153h.01a.079.079,0,0,0,.062-.061v-.051c0-.163-.369-.315-.565-.315h-.031l-.287.034-.041,0a1.457,1.457,0,0,1-.257-.041.708.708,0,0,1-.222-.075,4.4,4.4,0,0,0-.4-.18l-.277-.081c-.12,0-.268-.018-.421-.02a.821.821,0,0,1-.338-.092l.1-.01.893-.03c.353,0,.694-.031,1.026-.031.149,0,.383.006.523-.011.107-.012.432.011.432-.091v-.051c0-.138-.521-.1-.677-.1-.129,0-.24-.01-.38-.01-.087,0-.291,0-.379-.011-.2-.023-.533-.031-.75-.03-.241,0-.507-.02-.759-.02a4.5,4.5,0,0,1,.455-.18,1.441,1.441,0,0,1,.5-.125,2.459,2.459,0,0,0,.9-.068c.193-.069.4-.3.674-.3h.051c.084,0,.124.03.185.03h.021a.057.057,0,0,0,.051-.051v-.031c0-.12-.214-.183-.349-.183h-.092a.985.985,0,0,0-.449.165,1.287,1.287,0,0,1-.5.12l-.739-.02c-.032.02-.315.086-.392.12a.789.789,0,0,1-.419.083l.944-.427,1.653-.732c.018-.012.051-.033.051-.061V15.7a.1.1,0,0,0-.1-.092h-.01a.13.13,0,0,0-.092.03l-.029,0-1.535.554-.581.2-.441.163.338-.326a2.2,2.2,0,0,1,.285-.227,1.786,1.786,0,0,1,.363-.159,1.836,1.836,0,0,0,.364-.158,3.394,3.394,0,0,0,.281-.24l.123-.173a.874.874,0,0,1,.24-.22.544.544,0,0,1,.16-.065c.067-.005.165,0,.165-.071v-.01c0-.067-.074-.112-.144-.112h-.133a1.123,1.123,0,0,0-.164.041c-.064.044-.119.066-.189.118s-.117.125-.16.157l-.062.081-.236.193c-.07.037-.145.071-.218.11a2.245,2.245,0,0,1-.258.08c-.078.028-.171.054-.242.086-.043.019-.2.115-.217.12-.02.03-.2.173-.249.221a3.1,3.1,0,0,1-.275.2l-.073.02.011-.02.585-.6.872-.9.164-.173.287-.3c.027-.041.062-.063.062-.132v-.02c0-.024-.017-.03-.031-.051a.169.169,0,0,0-.164.02l-.328.3-1.5,1.352-.01.02-.195.173.236-.539c.061-.258.516-.554.686-.805a1.644,1.644,0,0,0,.2-.547.846.846,0,0,1,.13-.247c.07-.091.127-.1.218-.16l.012-.091-.063-.042H20.47c-.131.011-.286.181-.353.27a2.319,2.319,0,0,0-.181.452l-.144.214-.154.163-.138.127-.2.183c-.036.053-.091.1-.138.169a1.219,1.219,0,0,0-.109.2c-.031.069-.068.137-.1.208a1.094,1.094,0,0,1-.127.189l-.07.063.2-.551.185-.447c.008-.094.26-.681.312-.82s.3-.743.3-.827v-.02a.1.1,0,0,0-.072-.071h-.051c-.082,0-.232.386-.281.474s-.084.183-.118.259-.084.17-.123.254c-.07.153-.188.37-.238.517-.023.07-.1.182-.127.251a2.356,2.356,0,0,1-.12.268l-.113.224-.051.142-.021.041-.051.071a5,5,0,0,1,0-.506c.011-.069.013-.158.018-.236a.953.953,0,0,1,.061-.2c.066-.234.268-.454.268-.772V13.67c0-.122-.062-.245-.062-.4V13.2c0-.244.164-.363.164-.417a.083.083,0,0,0-.082-.081c-.195,0-.359.336-.359.529v.091l.03.275a1.428,1.428,0,0,1-.236.681l-.072.142a3.212,3.212,0,0,0-.091.316,2.488,2.488,0,0,0-.022.385.579.579,0,0,1-.092.325l-.031-.9c0-.346-.031-.675-.031-1.027,0-.185-.021-.344-.021-.508,0-.118.01-.437-.092-.437h-.021c-.127,0-.123.108-.123.234s-.01.224-.01.356c0,.213-.016.494-.031.7s-.022.5-.02.7c0,.231-.031.473-.031.7v.092a2.935,2.935,0,0,1-.256-.57,2.169,2.169,0,0,1-.052-.762c0-.525-.38-.684-.38-1.057v-.112c0-.025.031-.038.031-.1v-.02c0-.029-.043-.061-.072-.061-.119,0-.2.192-.2.315v.122a1.4,1.4,0,0,0,.2.5,1.434,1.434,0,0,1,.082.63l-.023.244,0,.153a1.738,1.738,0,0,0,.125.445,2.131,2.131,0,0,1,.078.208,1.222,1.222,0,0,1,.023.252l-.421-.9-.79-1.637c-.029-.019-.035-.041-.082-.041h-.031c-.057,0-.072.078-.072.142l.339.87.544,1.407.1.242-.011.008-.251-.23-.072-.081a1.312,1.312,0,0,1-.329-.457,3.087,3.087,0,0,0-.249-.536,1.494,1.494,0,0,0-.416-.37.6.6,0,0,1-.3-.486c-.012-.018-.033-.051-.062-.051H14.92c-.03,0-.092.075-.092.1v.142a.745.745,0,0,0,.277.468c.088.058.311.243.339.346.1.073.208.519.277.661.015.017.056.1.072.132a1.073,1.073,0,0,0,.088.116c.055.073.148.15.189.209a.746.746,0,0,1,.226.325l-.318-.285-.39-.346-.031-.031-.327-.293c-.154-.1-1.007-.935-1.078-.935h-.021c-.046,0-.1.019-.1.061v.03c0,.1.159.207.2.275l.144.142.154.163.092.092.328.346.2.214.431.437.082.092.01.01.284.278-.008.009L15.6,16.04a1.835,1.835,0,0,1-.475-.252,2.285,2.285,0,0,1-.19-.178,1.161,1.161,0,0,0-.175-.182,1.131,1.131,0,0,0-.472-.255,1.375,1.375,0,0,1-.526-.191h-.01l-.092-.082v-.019c-.038-.027-.041-.122-.1-.122h-.041c-.044,0-.072.063-.072.112v.03a.537.537,0,0,0,.146.252.8.8,0,0,0,.227.161,1.189,1.189,0,0,0,.3.1,1.177,1.177,0,0,1,.257.132l.277.254.01.01.133.153.01.01.226.2.123.071.441.2.161.126,0,.016-.226-.081L15,16.314l-1.93-.691h-.092c-.031.02-.062.029-.062.081v.03c0,.023.028.049.041.061l.7.315.236.112,1.635.7a3.229,3.229,0,0,1-.989-.064,2.412,2.412,0,0,0-.78-.265h-.133l-.338.055-.206,0c-.167,0-.3-.153-.359-.153h-.01c-.033,0-.062.044-.062.081,0,.19.338.346.523.346h.062l.287-.032H13.6a1.775,1.775,0,0,1,.706.236,1.756,1.756,0,0,0,.342.129,2.378,2.378,0,0,0,.419.042,1.075,1.075,0,0,1,.24.016,1.461,1.461,0,0,0,.2.055v.02h-.431c-.015.007-1.213.051-1.334.051-.215,0-.444.021-.667.02-.094,0-.236.017-.328.021-.107,0-.236-.012-.236.1v.01c0,.163.439.088.591.116a6.059,6.059,0,0,0,.682.016l1.673.056c-.013.012-.4.152-.46.179a1.511,1.511,0,0,1-.515.12,2.111,2.111,0,0,0-.915.09,1.32,1.32,0,0,1-.737.276l-.163-.035c-.019,0-.042.048-.042.076a.129.129,0,0,0,.062.112.57.57,0,0,0,.328.081h.021a.985.985,0,0,0,.48-.165,1.3,1.3,0,0,1,.515-.12h.031l.451.024.144,0a1.431,1.431,0,0,0,.38-.081c.01-.007.188-.073.207-.079a.482.482,0,0,1,.244-.043h.072l-.493.224c-.087.057-.432.193-.552.246-.182.079-.376.173-.556.242s-.368.16-.558.24c-.081.034-.2.086-.274.125s-.216.061-.216.183c0,.045.057.081.1.081h.01c.039,0,.625-.214.7-.244s.637-.243.7-.244l.37-.142.585-.2.257-.1.073-.019-.206.192-.339.305a1.386,1.386,0,0,1-.2.122,2.128,2.128,0,0,0-.226.091,1.333,1.333,0,0,0-.382.16,1.1,1.1,0,0,0-.285.256l-.185.234a.872.872,0,0,1-.219.17c-.081.039-.274.018-.274.1v.01c0,.067.074.112.144.112h.113a.792.792,0,0,0,.495-.273,1.094,1.094,0,0,1,.4-.354,3,3,0,0,1,.555-.2,1.349,1.349,0,0,0,.468-.289l.133-.122a.9.9,0,0,1,.308-.183l-.216.224-.277.285-.051.051-.154.163-.565.58-.1.112c-.07.1-.616.6-.616.661v.061a.079.079,0,0,0,.062.061h.072a4.293,4.293,0,0,0,.37-.305l.195-.183.2-.183.123-.112.021-.01.144-.132.8-.722.255-.235-.194.428a1.3,1.3,0,0,1-.259.425c-.112.11-.249.216-.349.325a1.115,1.115,0,0,0-.255.419,1.788,1.788,0,0,1-.174.5l-.123.132c-.031.042-.144.053-.144.112v.02a.1.1,0,0,0,.082.092h.082a1.307,1.307,0,0,0,.195-.1l.195-.214c.072-.134.09-.267.151-.41a1.423,1.423,0,0,1,.233-.328c.079-.089.209-.178.3-.261.054-.049.091-.081.144-.132.037-.037.1-.132.126-.15,0-.023.146-.3.171-.349a.745.745,0,0,1,.219-.291l-.287.732-.7,1.83a.054.054,0,0,0-.021.051v.051c0,.025.026.038.041.061a.123.123,0,0,0,.154-.041l.062-.112,1.088-2.318.015-.02Zm-.072.02a2.261,2.261,0,0,0-.151.308c-.043.1-.1.208-.145.3-.1.208-.187.405-.286.612s-.194.4-.284.613a2.739,2.739,0,0,1-.314.583h-.01c-.024,0-.031-.007-.031-.03v-.061l.011,0,1.006-2.617.031-.052.086.023L16.375,20.7l.592-1.247.092.036-.1.233Zm-.318-.305c-.159.1-.282.433-.383.617a1.944,1.944,0,0,1-.492.5,1.134,1.134,0,0,0-.391.6c-.06.2-.241.512-.479.512h-.01c-.034,0-.039-.021-.041-.051.421-.1.368-.869.606-1.027v-.01c.124-.183.387-.323.532-.541a2.914,2.914,0,0,0,.187-.344c.028-.059.046-.135.071-.194a1.16,1.16,0,0,0,.082-.183l.1-.145.08.064a4.066,4.066,0,0,0-.322.627.892.892,0,0,1-.173.3c-.052.053-.216.195-.244.236a1.1,1.1,0,0,0,.275-.206.867.867,0,0,0,.2-.289c.061-.119.089-.216.157-.332a1.329,1.329,0,0,1,.231-.263l.083.055-.074.08Zm-.39-.214L14.47,20.785a1.5,1.5,0,0,1-.349.3c-.024,0-.031-.007-.031-.03v-.02a1.9,1.9,0,0,1,.267-.3l.924-.946.811-.854c.011-.008.035-.031.041-.031.028,0,.05.033.067.056l-.836.86L15.2,20c.136-.09,1.041-.956,1.088-.956.028,0,.05.033.065.054l-.107.1Zm-.267-.315c-.338.089-.526.506-.934.6-.074.039-.249.075-.342.108a1.444,1.444,0,0,0-.29.15c-.215.143-.285.32-.456.433a.676.676,0,0,1-.37.132c-.05,0-.137-.015-.131-.062,0-.029.1-.018.148-.034a.826.826,0,0,0,.24-.128c.26-.2.384-.559.78-.671.026-.023.236-.085.291-.109a1.185,1.185,0,0,0,.253-.135l.71-.629.014,0,.055.095a2.946,2.946,0,0,0-.521.44,1.209,1.209,0,0,1-.267.213c-.05.031-.318.124-.331.14l.225-.045a2.524,2.524,0,0,0,.271-.135c.082-.062.148-.141.217-.192.088-.065.12-.112.226-.183a1.011,1.011,0,0,1,.273-.126l.047.078-.108.055Zm3.634.336a5.08,5.08,0,0,0,.434.455c.15.149.286.3.436.452a6.147,6.147,0,0,1,.438.451c.062.083.417.385.417.462v.031h-.051c-.027,0-1.017-.89-1.111-.984-.171-.171-.378-.322-.549-.493-.115-.115-.48-.4-.547-.5l.043-.049.029,0,1.047.935c-.088-.131-.965-.99-.965-1.017a.1.1,0,0,1,.051-.061c.032,0,.27.277.328.316Zm-.1-.285c-.038-.033-.164-.066-.164-.112a.156.156,0,0,1,.051-.071s.274.151.311.169a3.456,3.456,0,0,0,.347.134,1.142,1.142,0,0,1,.309.172c.086.066.173.189.244.236A1.256,1.256,0,0,0,20.4,19.2.949.949,0,0,0,20.1,19a2.836,2.836,0,0,1-.343-.148c-.112-.07-.186-.156-.275-.216,0-.021.034-.081.051-.081s.241.2.287.224c.109.063.239.109.356.166a1.545,1.545,0,0,1,.558.474,1.26,1.26,0,0,0,.622.411.843.843,0,0,1,.366.156.459.459,0,0,1,.2.318v.01c0,.027-.015.03-.031.041-.045-.03-.046-.089-.095-.14a.663.663,0,0,0-.129-.106,1.268,1.268,0,0,0-.345-.136,1.134,1.134,0,0,1-.645-.306,2.4,2.4,0,0,0-.5-.446,2.069,2.069,0,0,0-.317-.154c-.075-.031-.288-.123-.345-.136Zm-3.941-1.708.081.024.011.016-.023.091-.182-.06c-.218-.1-.619-.026-.817-.106-.06-.024-.114-.034-.174-.062s-.107-.058-.15-.076c-.066-.028-.272-.112-.317-.143a1.671,1.671,0,0,0-.39-.081h-.082l-.3.035c-.168.016-.514-.141-.514-.269v-.041c.053,0,.2.153.39.153h.2l.358-.057.063.006a.937.937,0,0,1,.287.051c.049.019.2.083.236.091l.369.153c.158,0,.332.04.534.04s.372.02.544.02v.041a.714.714,0,0,1-.01.071H15.65a2.927,2.927,0,0,0-.76-.051.75.75,0,0,1-.343-.057c-.1-.033-.21-.1-.284-.116a1.309,1.309,0,0,0,.575.244c.12.008.3-.015.409,0,.056.009.117.016.175.03a.668.668,0,0,0,.147.051Zm.195-.58c.073.063.1-.043.062.112l-1.376-.488c.02.026.586.268.667.305.1.045.235.116.331.15.052.019.316.125.316.165s-.009.008-.021.051h-.031c-.026-.022-.609-.269-.689-.3-.232-.1-.46-.2-.691-.3s-.46-.2-.693-.3c-.106-.045-.237-.1-.338-.153-.059-.029-.318-.11-.318-.173a.039.039,0,0,1,.041-.041c.028,0,1.268.442,1.375.488.2.085.472.177.684.248s.478.2.681.241Zm.564-.61.022.029c-.009.012-.039.052-.053.052-.042,0-.088-.068-.123-.092l-.113-.1-.764-.688-.011.011.692.718.1.112c.021.032.113.1.113.132a.1.1,0,0,1-.062.051.175.175,0,0,1-.031-.02,6.307,6.307,0,0,0-.505-.526c-.174-.172-.333-.35-.508-.524s-.333-.35-.508-.524a3.948,3.948,0,0,1-.49-.541V14.1h.051c.025,0,1,.877,1.1.968.17.17.375.319.544.488a5.94,5.94,0,0,0,.547.486Zm-.308.244.069.045c0,.021-.041.087-.069.087-.006,0-.272-.155-.315-.176a2.748,2.748,0,0,0-.347-.135.983.983,0,0,1-.306-.175c-.035-.034-.222-.229-.244-.237a1.116,1.116,0,0,0,.522.469,1.417,1.417,0,0,1,.617.375c-.012.022-.031.071-.062.071a.175.175,0,0,1-.031-.02,1.582,1.582,0,0,0-.616-.376,1.059,1.059,0,0,1-.3-.2,2.879,2.879,0,0,1-.233-.257,1.06,1.06,0,0,0-.192-.186c-.069-.057-.165-.1-.218-.15a.906.906,0,0,0-.249-.089,1.046,1.046,0,0,1-.24-.088c-.1-.043-.3-.231-.3-.352v-.041c0-.027.015-.03.031-.041l.155.2c.229.2.639.191.76.3a1.185,1.185,0,0,1,.431.346c.061.04.157.151.229.211a1.594,1.594,0,0,0,.285.165c.2.1.424.168.625.264Zm3.459.244A2.965,2.965,0,0,0,20,16.09a1.119,1.119,0,0,1,.26-.21c.052-.031.321-.132.333-.148a1.042,1.042,0,0,0-.356.1.9.9,0,0,0-.273.2,2.455,2.455,0,0,1-.242.218,1.732,1.732,0,0,1-.31.161c-.031,0-.055-.054-.061-.08l.215-.1a3.835,3.835,0,0,0,.5-.391,1.15,1.15,0,0,1,.3-.151,1.722,1.722,0,0,0,.331-.119,1.124,1.124,0,0,0,.558-.352.821.821,0,0,1,.56-.36h.072c.043,0,.189.076,0,.081a.509.509,0,0,0-.194.072.948.948,0,0,0-.277.254,1.126,1.126,0,0,1-.586.487,1.979,1.979,0,0,0-.714.36,6.529,6.529,0,0,1-.573.51l-.057-.1Zm-.082-.366c-.018.021-.084.1-.113.1-.014,0-.044-.04-.051-.051l1.006-1.047c-.023.006-.5.43-.552.48s-.528.475-.546.475-.05-.033-.062-.051l.369-.346c.118-.062.338-.319.466-.413.155-.113.308-.3.458-.411.122-.088.868-.813.924-.813h.01c.024,0,.031.007.031.03v.02c0,.059-.863.884-.967,1.015-.134.17-.358.337-.485.506-.112.153-.39.36-.488.5Zm-.349-.183-.037.044-.089-.059a2.271,2.271,0,0,0,.279-.525,1.024,1.024,0,0,1,.309-.487l.156-.15-.054.018c-.015.02-.2.167-.254.216a.949.949,0,0,0-.184.286,2.565,2.565,0,0,1-.151.318,1.3,1.3,0,0,1-.222.248l-.082-.051.164-.183c.1-.076.194-.363.275-.49a1.279,1.279,0,0,1,.372-.4,1.518,1.518,0,0,0,.493-.6,1.007,1.007,0,0,1,.177-.414.488.488,0,0,1,.367-.216l.025.049a.454.454,0,0,0-.257.21c-.074.11-.091.249-.138.321a1.1,1.1,0,0,1-.228.526,3.36,3.36,0,0,1-.4.369,2.177,2.177,0,0,0-.286.459,4.684,4.684,0,0,1-.237.516Zm-.092-.966-.3.77-.085-.02.487-1.266-.011-.005-.587,1.219-.084-.03.143-.313.523-1.1a2.046,2.046,0,0,1,.15-.319c.025-.043.046-.111.074-.161.017-.032.064-.127.077-.158.04-.093.257-.613.325-.613.012,0,.031.021.031.041v.01c0,.021-.538,1.437-.565,1.474l-.174.469Zm-.626.5-.029.143-.1-.012V15.58c0-.092.041-.206.041-.346s0-.258,0-.386a.969.969,0,0,1,.065-.322c.023-.047.113-.238.12-.268a1.211,1.211,0,0,0-.164.264.909.909,0,0,0-.088.34c-.022.121.011.3-.014.414s-.082.231-.1.325l-.1-.01c0-.043.067-.179.082-.234a.988.988,0,0,0,.041-.275,1.631,1.631,0,0,1,.079-.552,2.471,2.471,0,0,0,.342-.922v-.051l-.036-.264,0-.062c0-.154.145-.468.287-.468.076,0-.049.12-.073.171a.631.631,0,0,0-.06.246v.041l.033.335c.011.019.019.018.019.041v.183a1.061,1.061,0,0,1-.133.437,1.936,1.936,0,0,1-.114.263,1.1,1.1,0,0,0-.074.3,4.79,4.79,0,0,0-.019.726Zm-1.673.245.053.07-.09.068a2.354,2.354,0,0,0-.482-.528.9.9,0,0,1-.22-.281c-.029-.058-.049-.1-.076-.169a1.344,1.344,0,0,0-.068-.177l.024.131a3.435,3.435,0,0,0,.122.324,1.313,1.313,0,0,0,.2.249,1.448,1.448,0,0,1,.222.227c.068.1.1.2.16.289l-.09.065a1.533,1.533,0,0,0-.17-.327,2.988,2.988,0,0,0-.231-.249,1.29,1.29,0,0,1-.338-.631,1.354,1.354,0,0,0-.371-.6,1.755,1.755,0,0,1-.263-.227.675.675,0,0,1-.15-.33v-.112c0-.035.028-.06.072-.061a.669.669,0,0,0,.311.516c.187.156.279.16.433.385a3.541,3.541,0,0,1,.251.565,1.633,1.633,0,0,0,.361.456l.339.346Zm.308-.041-.591-1.273.492,1.322c-.04.01-.039.022-.076.022s-.061-.148-.092-.183c0-.03-.437-1.174-.482-1.271-.053-.114-.482-1.2-.482-1.261v-.01c0-.023.007-.03.031-.03h.01a3.354,3.354,0,0,1,.339.651c.049.1.117.231.159.33s.13.253.157.333.113.243.159.34c.053.112.107.218.157.333s.1.224.155.335a2.842,2.842,0,0,1,.158.332l-.094.03Zm5.481-.02v.032l-.022.029-2.71,1.19h-.031l-.031-.071,1.315-.576-1.364.471-.026-.088.034-.011c.082-.039.251-.091.346-.125.122-.044.228-.083.348-.123s.224-.08.347-.124.243-.081.353-.128,1.358-.495,1.4-.495a.046.046,0,0,1,.041.019ZM19.613,18.5l-.034-.011L19.6,18.4l1.332.475c-.024-.021-.58-.271-.639-.293a5.169,5.169,0,0,1-.634-.3c0-.02.014-.033.021-.063l.051.012c.039.01.29.123.342.149.109.054.227.1.341.15.229.1.459.2.68.3.111.054.234.091.348.143s.225.1.34.151c.089.041.659.261.659.324v.031c-.029.007-.018.01-.041.01-.095,0-.556-.212-.708-.244-.074-.016-.253-.1-.343-.128-.117-.039-.238-.082-.347-.124-.22-.085-.493-.157-.7-.252-.047-.024-.681-.248-.694-.249Zm.862-.315a1.812,1.812,0,0,0-.441-.01,1.875,1.875,0,0,1-.213-.012c-.143-.021-.084,0-.084-.12.1,0,.247.051.359.051h.411a.811.811,0,0,1,.358.052c.089.032.231.1.3.121a1.206,1.206,0,0,0-.626-.244,2.619,2.619,0,0,1-.429-.012c-.127-.026-.233-.074-.343-.1l.022-.1a1.586,1.586,0,0,0,.575.122,1.714,1.714,0,0,1,.595.1,3.712,3.712,0,0,0,.417.2,1.447,1.447,0,0,0,.5.108l.277-.032.113,0c.133,0,.452.147.452.264v.041c-.054,0-.109-.075-.19-.107a.652.652,0,0,0-.252-.045h-.133l-.389.058-.073-.007c-.425,0-.66-.328-1.2-.328Zm.164-.478-.842.024v-.095l1.416-.04v-.011L19.8,17.527v-.086h.3c.427.035.95.053,1.4.051.2,0,.5,0,.708.02.109.008.217.02.339.02.083,0,.308-.028.308.051s-.422.061-.524.061c-.165,0-.4.021-.565.02-.364,0-.755.041-1.118.041Zm-.78-.356-.071.013a.6.6,0,0,1-.011-.074v-.01c0-.042.274-.089.318-.1a2.554,2.554,0,0,0,.3-.12,1.343,1.343,0,0,1,.717-.124l-.225-.044-.093,0a1.282,1.282,0,0,0-.508.137,1.319,1.319,0,0,1-.549.1l-.012-.1.228-.01c.289,0,.519-.214.862-.214h.072l.41.031h.113a1.534,1.534,0,0,0,.513-.122.931.931,0,0,1,.462-.163h.072c.088,0,.277.049.277.122V16.7c-.049,0-.133-.041-.174-.041a.857.857,0,0,0-.4.1c-.087.043-.259.162-.319.183a2.109,2.109,0,0,1-.9.085h-.031a1.95,1.95,0,0,0-.548.138,3.3,3.3,0,0,1-.5.186Zm-7.144,1.189-.01-.01c-.007-.012-.01-.011-.01-.03v-.031c.053,0,.088.041.133.041h.062a1.36,1.36,0,0,0,.675-.266,1.7,1.7,0,0,1,.834-.1h.082a1.863,1.863,0,0,0,.647-.163c.1-.044.179-.075.286-.113.049-.017.1-.033.157-.048.09-.026.082-.006.09.09a2.679,2.679,0,0,0-.63.2,1.378,1.378,0,0,1-.716.135l.227.031h.031c.44,0,.605-.234,1.016-.234h.1l.013.1a1.49,1.49,0,0,0-.573.093,1.236,1.236,0,0,1-.556.12l-.247,0-.174-.024h-.133c-.472,0-.631.285-.985.285h-.041a.438.438,0,0,1-.278-.08Zm4.855-3c0-.5.043-.987.041-1.485,0-.222.023-.5.031-.732,0-.1-.011-.681.072-.681s.059.256.062.325c0,.133.01.243.01.377,0,.259.022.48.02.742,0,.222.027.5.031.743s.021.488.021.742h-.082v-.041c0-.144-.033-1.221-.062-1.261l-.062,1.3H17.57v-.03ZM15.528,18.6l-1.221.437c-.087.023-.209.088-.312.118s-.229.077-.324.116c-.071.029-.6.224-.647.224-.024,0-.012,0-.041-.01v-.031c0-.058.505-.248.585-.285a6.7,6.7,0,0,1,.616-.264l1.437-.641.125-.041.02.075-1.3.581,1.364-.472c.007.028.021.041.021.061,0,.038-.275.111-.32.132Zm-1.16-1.118,1.262-.046v.1l-1.478.041v.01l1.406.053.072,0v.092c-.514,0-1.023-.043-1.54-.041-.223,0-.526-.023-.759-.031a5.1,5.1,0,0,1-.75-.04c0-.1.071-.061.163-.072.076-.009.141-.006.227-.009.147-.006.3-.021.461-.021.314,0,.628-.031.936-.031Zm2.268-4.464c0-.107.05-.272.154-.275,0,.068-.031.11-.031.193v.03a1.131,1.131,0,0,0,.253.594,1.182,1.182,0,0,1,.127.708,1.509,1.509,0,0,0,.117.718,2.842,2.842,0,0,1,.232.6l-.123.011v-.052a2.579,2.579,0,0,0-.209-.576,1.137,1.137,0,0,1-.12-.654h-.01l-.036.223,0,.052c0,.383.236.523.236.966v.081l-.1.012V15.5a.972.972,0,0,0-.108-.432,1.578,1.578,0,0,1-.118-.422v-.132l.024-.3,0-.2c0-.48-.287-.592-.287-.935v-.061Zm1.057,5.755a.337.337,0,0,1-.218-.089c-.063-.06-.146-.074-.193-.114l0-.011.379.056.112.006c.053,0,.144-.051.226-.051h.123a1.477,1.477,0,0,1-.349.2h-.082Zm-.462-.213a.429.429,0,0,1,.277-.163h.041c.062,0,.114.041.133.041h.031c.043,0,.1-.041.164-.041h.041a.436.436,0,0,1,.277.163l-.328-.044a.607.607,0,0,1-.144.044H17.7c-.053,0-.141-.044-.164-.041l-.307.041Zm-.082.03.082.01c.044.029.072.019.1.039s.049.057.072.081a.28.28,0,0,0,.2.1v.02a.308.308,0,0,0-.216.305c.035-.05.026-.1.084-.16a.3.3,0,0,1,.162-.094h.082a.27.27,0,0,1,.2.073c.081.076.067.127.1.171a.3.3,0,0,0-.226-.3v-.02c.247,0,.178-.227.482-.234v-.02c-.143-.033-.206-.234-.39-.234a.982.982,0,0,0-.185.041c-.044,0-.094-.041-.164-.041a.341.341,0,0,0-.229.1c-.023.023-.165.139-.17.155Zm.154-.711c-.038.01-.1.063-.1.1v.061c0,.072.094.132.185.132a.458.458,0,0,0,.113-.041c.046,0,.093.041.174.041h.041a1.033,1.033,0,0,0,.2-.041c.025,0,.052.041.123.041h.051a.177.177,0,0,0,.133-.142V17.98c0-.038-.053-.076-.082-.091l-.061-.012c.019.028.072.047.072.083v.03a.093.093,0,0,1-.092.092.11.11,0,0,1-.123-.1l-.051.071a.171.171,0,0,1-.144.071h-.062a.192.192,0,0,1-.185-.142c-.034.039-.039.1-.113.1h-.021a.092.092,0,0,1-.092-.092v-.03c0-.054.082-.065.113-.092l-.081.01Zm-.636-.387a.871.871,0,0,0,.328.061h.1c.135,0,.245-.128.328-.183v-.031c-.133.011-.216.163-.472.163a1.592,1.592,0,0,1-.452-.122l-.007.011.172.1Zm.185-.325a.146.146,0,0,0-.051.183l.024.038-.009.012-.184-.1c.029-.046.17-.161.22-.13Zm.215.223a.1.1,0,0,0,.041-.061v-.061a.17.17,0,0,0-.041-.092c.043-.025.17.085.195.122a.321.321,0,0,1-.216.122l.021-.03Zm-.02-.264h-.021c-.074-.047-.249.006-.3.03s-.215.132-.216.132c.026.1.327.153.472.153h.041a.544.544,0,0,0,.328-.122.567.567,0,0,0-.306-.193Zm-.657.183c.114-.009.18-.244.493-.244h.133c.189,0,.354.272.452.224a.053.053,0,0,0,.021-.041c0-.026-.074-.02-.107-.037a.628.628,0,0,1-.088-.055.566.566,0,0,0-.185-.112l-.174-.036a.7.7,0,0,0-.545.27v.031Zm-.082-.234-.01.031c.024-.006.254-.152.318-.183a.9.9,0,0,1,.39-.1c.073,0,.246.009.267.061l.051.01a.865.865,0,0,1,.172.1c.035.035.059.166.094.181l.022.2a.8.8,0,0,1-.123.4l-.082.1h.05l.022.029h.031c0-.014.07-.181.086-.23a1,1,0,0,0,.057-.269V17.3a.874.874,0,0,0-.039-.246c-.028-.1-.034-.116-.119-.167a1.166,1.166,0,0,0-.417-.157h-.123a.9.9,0,0,0-.374.118.874.874,0,0,0-.142.1,1.269,1.269,0,0,1-.131.126Zm1.509.58.1.259.09-.056a.688.688,0,0,1-.195-.427v-.081a.665.665,0,0,1,.092-.315.463.463,0,0,1,.257-.163.546.546,0,0,1,.236-.051h.041a1.358,1.358,0,0,1,.677.285c.019-.042-.2-.213-.246-.244a.919.919,0,0,0-.39-.132H18.34a1.329,1.329,0,0,0-.406.157.185.185,0,0,0-.116.159.893.893,0,0,0-.042.243l-.007.083.048.283ZM18,17.369c.1.066.186.183.349.183h.216a.951.951,0,0,0,.359-.163,2.982,2.982,0,0,1-.431.1h-.072c-.2,0-.34-.153-.4-.153h-.031l.01.031Zm.36-.183a.1.1,0,0,0-.041.081.143.143,0,0,0,.041.122l.021.03a.327.327,0,0,1-.216-.122l-.007-.011.2-.131.007.01v.021Zm.225-.01-.01-.02a.382.382,0,0,1,.22.14l-.184.1,0-.009c.011-.041.031-.033.031-.081v-.02a.124.124,0,0,0-.052-.113Zm.319.142.01-.03c-.086-.023-.169-.173-.4-.173h-.082a.575.575,0,0,0-.359.2.579.579,0,0,0,.339.122h.041a.852.852,0,0,0,.25-.037c.093-.026.155-.073.2-.085Zm-.657-.244-.195.132c-.034.021-.113.014-.113.041s.015.051.031.051c.134,0,.252-.234.431-.234h.072c.342,0,.343.087.513.234l.051.012.01-.009-.072-.1a.755.755,0,0,0-.462-.183h-.031a.441.441,0,0,0-.235.061Z"/>
</svg>
