<svg id="bob" xmlns="http://www.w3.org/2000/svg" viewBox="0 0 35.175 34.867">
  <defs>
    <style>
      .cls-1 {
        fill: #329542;
      }

      .cls-2 {
        fill: #c33c18;
      }

      .cls-3 {
        fill: #f3d601;
      }

      .cls-15, .cls-4 {
        fill: #57562b;
      }

      .cls-10, .cls-11, .cls-12, .cls-13, .cls-14, .cls-15, .cls-16, .cls-18, .cls-19, .cls-20, .cls-21, .cls-4, .cls-5, .cls-6, .cls-7, .cls-8, .cls-9 {
        stroke: #000;
        stroke-width: 0.125px;
      }

      .cls-16, .cls-5 {
        fill: #007948;
      }

      .cls-13, .cls-6 {
        fill: #fff;
      }

      .cls-18, .cls-20, .cls-7 {
        fill: none;
      }

      .cls-17, .cls-19, .cls-8 {
        fill: #f9e333;
      }

      .cls-14, .cls-22, .cls-9 {
        fill: #bc433c;
      }

      .cls-10 {
        fill: #006480;
      }

      .cls-11 {
        fill: #95c7e5;
      }

      .cls-12 {
        fill: #3e9a63;
      }

      .cls-13, .cls-14, .cls-15, .cls-16, .cls-18, .cls-19, .cls-20 {
        stroke-linejoin: bevel;
      }

      .cls-20 {
        stroke-linecap: round;
      }

      .cls-21 {
        fill: #dfaec7;
      }
    </style>
  </defs>
  <path id="Path_2869" data-name="Path 2869" class="cls-1" d="M.52,13.246a17.575,17.575,0,0,1,34.136,8.375A17.593,17.593,0,0,1,13.363,34.353,17.418,17.418,0,0,1,.52,13.246"/>
  <path id="Path_2870" data-name="Path 2870" class="cls-2" d="M1.025,11.579H34.15a17.636,17.636,0,0,0-33.125,0"/>
  <path id="Path_2871" data-name="Path 2871" class="cls-3" d="M34.795,21.017c.008-.037.016-.074.023-.111l.039-.194c.007-.038.014-.075.022-.113q.02-.1.036-.2l.018-.1c.014-.084.027-.167.04-.251,0-.016.005-.033.008-.05.015-.1.029-.2.043-.3,0-.027.007-.053.01-.08.009-.074.019-.148.027-.222l.012-.1c.007-.066.014-.132.02-.2,0-.037.007-.073.01-.11.006-.067.012-.134.017-.2,0-.034.005-.068.008-.1.006-.077.01-.153.015-.23,0-.023,0-.047,0-.07.006-.1.01-.2.014-.3,0-.016,0-.033,0-.049,0-.083.006-.167.007-.25,0-.032,0-.063,0-.095,0-.069,0-.137,0-.206v-.1c0-.067,0-.134,0-.2,0-.033,0-.066,0-.1,0-.074,0-.147-.006-.221,0-.026,0-.051,0-.077q-.012-.3-.033-.6l-.006-.078-.018-.218-.009-.1c-.007-.068-.013-.137-.021-.2,0-.031-.007-.062-.01-.094-.008-.072-.017-.145-.026-.217l-.009-.076c-.026-.2-.055-.394-.088-.59l-.009-.053q-.02-.119-.042-.237l-.015-.081c-.013-.071-.027-.141-.041-.212-.006-.028-.011-.056-.017-.084-.015-.072-.031-.145-.046-.217-.005-.024-.01-.048-.016-.072-.02-.088-.04-.177-.062-.265l-.005-.02q-.033-.138-.069-.276h0q-.2-.766-.468-1.509H1.025q-.291.813-.506,1.668a17.222,17.222,0,0,0-.3,6.923c0,.01,0,.02,0,.03.013.082.027.163.042.245l.009.052c.014.076.028.152.043.228,0,.023.009.045.013.068.014.072.029.143.044.215l.018.081.045.2c.007.032.015.063.022.095l.045.19c.012.048.024.1.037.143.018.072.037.143.056.214s.038.141.058.211l.027.093c.019.066.039.133.059.2.009.031.019.062.029.093.02.066.041.132.062.2l.03.091.066.2c.01.03.021.059.031.089.023.066.047.133.071.2.006.015.011.031.016.046h0c.015.041.029.082.045.123H34.082l.044-.123h0c.037-.1.072-.2.107-.308,0-.01.007-.02.01-.03.046-.135.09-.27.132-.406l.018-.057c.039-.127.077-.256.113-.384l.024-.081c.043-.153.084-.307.122-.463.025-.1.049-.2.072-.3.008-.032.014-.064.022-.1.017-.067.033-.136.047-.205"/>
  <g id="Group_1374" data-name="Group 1374">
    <g id="Group_1320" data-name="Group 1320">
      <path id="Path_2872" data-name="Path 2872" class="cls-4" d="M15.575,21.224c-.216.237-.38.388-.228.474a.512.512,0,0,1,.233.293c.036.108.142.145.2-.028a7.491,7.491,0,0,1,.757-1.2Z"/>
      <path id="Path_2873" data-name="Path 2873" class="cls-4" d="M15.162,21.184c-.216.237-.38.388-.228.474a.512.512,0,0,1,.233.293c.036.108.142.145.2-.028a2.988,2.988,0,0,1,.473-.762Z"/>
      <path id="Path_2874" data-name="Path 2874" class="cls-4" d="M19.6,21.224c.216.237.38.388.228.474a.512.512,0,0,0-.233.293c-.036.108-.142.145-.2-.028a7.563,7.563,0,0,0-.757-1.2Z"/>
      <path id="Path_2875" data-name="Path 2875" class="cls-4" d="M20.013,21.184c.216.237.38.388.228.474a.512.512,0,0,0-.233.293c-.036.108-.142.145-.2-.028a2.988,2.988,0,0,0-.473-.762Z"/>
    </g>
    <g id="Group_1323" data-name="Group 1323">
      <g id="Group_1321" data-name="Group 1321">
        <path id="Path_2876" data-name="Path 2876" class="cls-5" d="M18,16.291a1.755,1.755,0,0,0,1.62-2.036A1.767,1.767,0,0,1,18,16.353"/>
        <path id="Path_2877" data-name="Path 2877" class="cls-5" d="M19.624,14.346c.018-.123.013-.285-.066-.346s-.074-.01-.064.073c.024.188.132.263.125.333"/>
        <path id="Path_2878" data-name="Path 2878" class="cls-5" d="M19.617,14.32a.812.812,0,0,1,.13-.437c.058-.062.09-.071.087.073-.006.308-.208.348-.212.418"/>
        <path id="Path_2879" data-name="Path 2879" class="cls-5" d="M19.615,14.557a.3.3,0,0,1,.191-.312c.113-.039.116.023.074.109-.055.11-.243.108-.261.28"/>
        <path id="Path_2880" data-name="Path 2880" class="cls-5" d="M19.621,14.608a.447.447,0,0,0-.135-.392c-.1-.068-.132-.055-.113.039.038.189.252.232.238.381"/>
        <path id="Path_2881" data-name="Path 2881" class="cls-5" d="M19.6,14.754c.012-.118.1-.235.2-.238s.145-.014.092.081c-.07.126-.268.056-.284.176"/>
        <path id="Path_2882" data-name="Path 2882" class="cls-5" d="M19.589,14.872a.477.477,0,0,0-.1-.35c-.075-.081-.16-.153-.163-.034-.008.24.283.284.241.474"/>
        <path id="Path_2883" data-name="Path 2883" class="cls-5" d="M19.552,15.02c.047-.218.171-.31.282-.3s.095.036.043.107-.264.028-.321.239"/>
        <path id="Path_2884" data-name="Path 2884" class="cls-5" d="M19.517,15.126a.477.477,0,0,0-.1-.35c-.075-.08-.16-.153-.163-.035-.008.24.283.284.241.474"/>
        <path id="Path_2885" data-name="Path 2885" class="cls-5" d="M19.521,15.156a.485.485,0,0,1,.281-.235c.108-.025.219-.038.155.062-.129.2-.4.078-.468.258"/>
        <path id="Path_2886" data-name="Path 2886" class="cls-5" d="M19.442,15.353a.424.424,0,0,0-.141-.378c-.1-.068-.132-.055-.113.039.038.189.252.232.238.381"/>
        <path id="Path_2887" data-name="Path 2887" class="cls-5" d="M19.434,15.375a.431.431,0,0,1,.361-.185c.119.016.135.048.057.1-.156.114-.344,0-.435.122"/>
        <path id="Path_2888" data-name="Path 2888" class="cls-5" d="M19.322,15.582a.4.4,0,0,0-.125-.4c-.1-.071-.13-.059-.115.035.032.19.232.25.213.4"/>
        <path id="Path_2889" data-name="Path 2889" class="cls-5" d="M19.292,15.617a.421.421,0,0,1,.408-.176c.118.02.134.052.054.106-.16.109-.372-.007-.467.11"/>
        <path id="Path_2890" data-name="Path 2890" class="cls-5" d="M19.163,15.779a.4.4,0,0,0-.077-.414c-.088-.081-.123-.074-.118.022.009.192.2.275.165.421"/>
        <path id="Path_2891" data-name="Path 2891" class="cls-5" d="M19.13,15.81a.423.423,0,0,1,.425-.128c.115.034.127.067.041.112-.171.09-.369-.049-.476.056"/>
        <path id="Path_2892" data-name="Path 2892" class="cls-5" d="M18.993,15.938a.4.4,0,0,0-.047-.418c-.081-.088-.117-.082-.119.013,0,.192.181.289.134.431"/>
        <path id="Path_2893" data-name="Path 2893" class="cls-5" d="M18.957,15.967a.423.423,0,0,1,.434-.1c.112.042.121.076.033.114-.177.078-.364-.076-.479.022"/>
        <path id="Path_2894" data-name="Path 2894" class="cls-5" d="M18.789,16.078a.4.4,0,0,0,.013-.42c-.068-.1-.1-.1-.12,0-.032.19.138.311.072.446"/>
        <path id="Path_2895" data-name="Path 2895" class="cls-5" d="M18.737,16.107a.422.422,0,0,1,.442-.049c.107.054.112.088.02.117-.185.058-.354-.115-.479-.031"/>
        <path id="Path_2896" data-name="Path 2896" class="cls-5" d="M18.566,16.176a.394.394,0,0,0,.076-.414c-.053-.107-.088-.112-.118-.021-.06.183.09.328,0,.451"/>
        <path id="Path_2897" data-name="Path 2897" class="cls-5" d="M18.511,16.2a.424.424,0,0,1,.444.016c.1.069.1.1,0,.119-.192.03-.333-.165-.469-.1"/>
      </g>
      <g id="Group_1322" data-name="Group 1322">
        <path id="Path_2898" data-name="Path 2898" class="cls-5" d="M17.178,16.291a1.755,1.755,0,0,1-1.62-2.036,1.767,1.767,0,0,0,1.618,2.1"/>
        <path id="Path_2899" data-name="Path 2899" class="cls-5" d="M15.551,14.346c-.018-.123-.013-.285.066-.346s.074-.01.064.073c-.024.188-.132.263-.125.333"/>
        <path id="Path_2900" data-name="Path 2900" class="cls-5" d="M15.558,14.32a.82.82,0,0,0-.13-.437c-.058-.062-.09-.071-.087.073.006.308.208.348.212.418"/>
        <path id="Path_2901" data-name="Path 2901" class="cls-5" d="M15.56,14.557a.3.3,0,0,0-.191-.312c-.113-.039-.116.023-.074.109.055.11.243.108.261.28"/>
        <path id="Path_2902" data-name="Path 2902" class="cls-5" d="M15.555,14.608a.447.447,0,0,1,.135-.392c.1-.068.132-.055.113.039-.038.189-.252.232-.238.381"/>
        <path id="Path_2903" data-name="Path 2903" class="cls-5" d="M15.577,14.754c-.012-.118-.1-.235-.2-.238s-.145-.014-.092.081c.07.126.268.056.284.176"/>
        <path id="Path_2904" data-name="Path 2904" class="cls-5" d="M15.587,14.872a.477.477,0,0,1,.1-.35c.075-.081.16-.153.163-.034.008.24-.283.284-.241.474"/>
        <path id="Path_2905" data-name="Path 2905" class="cls-5" d="M15.623,15.02c-.047-.218-.171-.31-.282-.3s-.1.036-.043.107.264.028.321.239"/>
        <path id="Path_2906" data-name="Path 2906" class="cls-5" d="M15.658,15.126a.477.477,0,0,1,.1-.35c.075-.08.16-.153.163-.035.008.24-.283.284-.241.474"/>
        <path id="Path_2907" data-name="Path 2907" class="cls-5" d="M15.654,15.156a.485.485,0,0,0-.281-.235c-.108-.025-.219-.038-.155.062.129.2.4.078.468.258"/>
        <path id="Path_2908" data-name="Path 2908" class="cls-5" d="M15.733,15.353a.424.424,0,0,1,.141-.378c.1-.068.132-.055.113.039-.038.189-.252.232-.238.381"/>
        <path id="Path_2909" data-name="Path 2909" class="cls-5" d="M15.741,15.375a.431.431,0,0,0-.361-.185c-.119.016-.135.048-.057.1.156.114.344,0,.435.122"/>
        <path id="Path_2910" data-name="Path 2910" class="cls-5" d="M15.853,15.582a.4.4,0,0,1,.125-.4c.1-.071.13-.059.115.035-.032.19-.232.25-.213.4"/>
        <path id="Path_2911" data-name="Path 2911" class="cls-5" d="M15.883,15.617a.421.421,0,0,0-.408-.176c-.118.02-.134.052-.054.106.16.109.372-.007.467.11"/>
        <path id="Path_2912" data-name="Path 2912" class="cls-5" d="M16.012,15.779a.4.4,0,0,1,.077-.414c.088-.081.123-.074.118.022-.009.192-.2.275-.165.421"/>
        <path id="Path_2913" data-name="Path 2913" class="cls-5" d="M16.046,15.81a.423.423,0,0,0-.425-.128c-.115.034-.127.067-.041.112.171.09.369-.049.476.056"/>
        <path id="Path_2914" data-name="Path 2914" class="cls-5" d="M16.182,15.938a.4.4,0,0,1,.047-.418c.081-.088.117-.082.119.013,0,.192-.181.289-.134.431"/>
        <path id="Path_2915" data-name="Path 2915" class="cls-5" d="M16.218,15.967a.423.423,0,0,0-.434-.1c-.112.042-.121.076-.033.114.177.078.364-.076.479.022"/>
        <path id="Path_2916" data-name="Path 2916" class="cls-5" d="M16.387,16.078a.4.4,0,0,1-.013-.42c.068-.1.1-.1.12,0,.032.19-.138.311-.072.446"/>
        <path id="Path_2917" data-name="Path 2917" class="cls-5" d="M16.438,16.107A.422.422,0,0,0,16,16.058c-.107.054-.112.088-.02.117.185.058.354-.115.479-.031"/>
        <path id="Path_2918" data-name="Path 2918" class="cls-5" d="M16.609,16.176a.394.394,0,0,1-.076-.414c.053-.107.088-.112.118-.021.06.183-.09.328,0,.451"/>
        <path id="Path_2919" data-name="Path 2919" class="cls-5" d="M16.665,16.2a.424.424,0,0,0-.444.016c-.1.069-.1.1,0,.119.192.03.333-.165.469-.1"/>
      </g>
    </g>
    <g id="Group_1329" data-name="Group 1329">
      <g id="Group_1326" data-name="Group 1326">
        <g id="Group_1324" data-name="Group 1324">
          <path id="Path_2920" data-name="Path 2920" class="cls-4" d="M19.2,17.2l2.58-1.95-.075-.075L19.154,17.1Z"/>
          <path id="Path_2921" data-name="Path 2921" class="cls-4" d="M19,16.88l2.133-2.347-.088-.059-2.11,2.32Z"/>
          <path id="Path_2922" data-name="Path 2922" class="cls-4" d="M19.344,17.577l2.994-1.392L22.28,16.1l-2.961,1.375Z"/>
        </g>
        <g id="Group_1325" data-name="Group 1325">
          <path id="Path_2923" data-name="Path 2923" class="cls-4" d="M15.973,17.2l-2.579-1.95.075-.075L16.021,17.1Z"/>
          <path id="Path_2924" data-name="Path 2924" class="cls-4" d="M16.178,16.88l-2.132-2.347.087-.059,2.11,2.32Z"/>
          <path id="Path_2925" data-name="Path 2925" class="cls-4" d="M15.832,17.577l-2.994-1.392L12.9,16.1l2.961,1.375Z"/>
        </g>
      </g>
      <g id="Group_1327" data-name="Group 1327">
        <path id="Path_2926" data-name="Path 2926" class="cls-6" d="M21.579,15.336c.037.047.071.112.106.085s-.017-.077-.053-.125-.072-.111-.108-.084S21.542,15.289,21.579,15.336Z"/>
        <path id="Path_2927" data-name="Path 2927" class="cls-6" d="M20.946,14.654c.045.039.09.1.12.064s-.032-.073-.075-.113-.091-.1-.121-.063S20.9,14.615,20.946,14.654Z"/>
        <path id="Path_2928" data-name="Path 2928" class="cls-6" d="M22.121,16.226c.026.053.045.124.086.1s0-.079-.025-.133-.047-.123-.087-.1S22.095,16.173,22.121,16.226Z"/>
        <path id="Path_2929" data-name="Path 2929" class="cls-6" d="M21.684,15.261l.244.054.571-.672-.8.37Z"/>
        <path id="Path_2930" data-name="Path 2930" class="cls-6" d="M21.035,14.562l.251.008.435-.765L21,14.317Z"/>
        <path id="Path_2931" data-name="Path 2931" class="cls-6" d="M22.239,16.176l.228.1.7-.537-.865.194Z"/>
        <path id="Path_2932" data-name="Path 2932" class="cls-6" d="M13.6,15.336c-.037.047-.071.112-.106.085s.017-.077.053-.125.072-.111.108-.084S13.633,15.289,13.6,15.336Z"/>
        <path id="Path_2933" data-name="Path 2933" class="cls-6" d="M14.229,14.654c-.045.039-.09.1-.12.064s.032-.073.075-.113.091-.1.121-.063S14.274,14.615,14.229,14.654Z"/>
        <path id="Path_2934" data-name="Path 2934" class="cls-6" d="M13.054,16.226c-.026.053-.045.124-.086.1s0-.079.025-.133.047-.123.087-.1S13.08,16.173,13.054,16.226Z"/>
        <path id="Path_2935" data-name="Path 2935" class="cls-6" d="M13.492,15.261l-.245.054-.57-.672.8.37Z"/>
        <path id="Path_2936" data-name="Path 2936" class="cls-6" d="M14.14,14.562l-.251.008-.435-.765.721.512Z"/>
        <path id="Path_2937" data-name="Path 2937" class="cls-6" d="M12.936,16.176l-.228.1-.7-.537.865.194Z"/>
      </g>
      <g id="Group_1328" data-name="Group 1328">
        <line id="Line_415" data-name="Line 415" class="cls-7" x1="0.815" y2="0.618" transform="translate(21.684 14.643)"/>
        <line id="Line_416" data-name="Line 416" class="cls-7" x1="0.686" y2="0.757" transform="translate(21.035 13.805)"/>
        <line id="Line_417" data-name="Line 417" class="cls-7" x1="0.929" y2="0.434" transform="translate(22.239 15.742)"/>
        <line id="Line_418" data-name="Line 418" class="cls-7" x2="0.815" y2="0.618" transform="translate(12.677 14.643)"/>
        <line id="Line_419" data-name="Line 419" class="cls-7" x2="0.686" y2="0.757" transform="translate(13.454 13.805)"/>
        <line id="Line_420" data-name="Line 420" class="cls-7" x2="0.929" y2="0.434" transform="translate(12.007 15.742)"/>
      </g>
    </g>
    <g id="Group_1332" data-name="Group 1332">
      <g id="Group_1330" data-name="Group 1330">
        <path id="Path_2938" data-name="Path 2938" class="cls-6" d="M18.4,16.989l1.535-2.129.186-.04.464-.887-.637.779-.123.03-1.535,2.129Z"/>
        <path id="Path_2939" data-name="Path 2939" class="cls-6" d="M18.584,17.249l1.535-2.129.186-.039.464-.888-.636.779-.124.03-1.534,2.129Z"/>
      </g>
      <g id="Group_1331" data-name="Group 1331">
        <path id="Path_2940" data-name="Path 2940" class="cls-6" d="M16.778,16.989,15.244,14.86l-.186-.04-.465-.887.637.779.123.03,1.535,2.129Z"/>
        <path id="Path_2941" data-name="Path 2941" class="cls-6" d="M16.591,17.249,15.056,15.12l-.186-.039-.464-.888.637.779.123.03L16.7,17.131Z"/>
      </g>
    </g>
    <g id="Group_1333" data-name="Group 1333">
      <path id="Path_2942" data-name="Path 2942" class="cls-5" d="M17.008,20.817v.8c0-.093-.306.014-.4.071V20.6A2.184,2.184,0,0,0,17.008,20.817Z"/>
      <path id="Path_2943" data-name="Path 2943" class="cls-5" d="M18.167,20.817v.8c0-.093.306.014.4.071V20.6A2.183,2.183,0,0,1,18.167,20.817Z"/>
      <path id="Path_2944" data-name="Path 2944" class="cls-8" d="M17.216,20.9v.955c0,.03-.02.062-.089.092s-.072.051-.072.1v-.216l-.031.013c-.076.032-.193.056-.193,0,0-.113,0-.239,0-.239.094-.025.177-.033.177.016v-.8A1.217,1.217,0,0,0,17.216,20.9Z"/>
      <path id="Path_2945" data-name="Path 2945" class="cls-9" d="M17.482,20.919V22.09a.331.331,0,0,0-.228.006c-.142.051-.2,0-.2-.048s.01-.078.072-.1.089-.062.089-.092V20.829A1.67,1.67,0,0,0,17.482,20.919Z"/>
      <path id="Path_2946" data-name="Path 2946" class="cls-7" d="M17.008,21.622c0,.044,0,.076-.082.116s-.094.056-.094.107"/>
      <path id="Path_2947" data-name="Path 2947" class="cls-7" d="M17.055,21.832c.088-.035.161-.055.161.02"/>
      <path id="Path_2948" data-name="Path 2948" class="cls-8" d="M17.959,20.9v.955c0,.03.02.062.089.092s.072.051.072.1v-.216l.031.013c.076.032.193.056.193,0,0-.113,0-.239,0-.239-.094-.025-.177-.033-.177.016v-.8A1.217,1.217,0,0,1,17.959,20.9Z"/>
      <path id="Path_2949" data-name="Path 2949" class="cls-9" d="M17.693,20.919V22.09a.331.331,0,0,1,.228.006c.142.051.2,0,.2-.048s-.01-.078-.072-.1-.089-.062-.089-.092V20.829A1.637,1.637,0,0,1,17.693,20.919Z"/>
      <path id="Path_2950" data-name="Path 2950" class="cls-7" d="M18.167,21.622c0,.044,0,.076.082.116s.094.056.094.107"/>
      <path id="Path_2951" data-name="Path 2951" class="cls-7" d="M18.12,21.832c-.088-.035-.161-.055-.161.02"/>
      <path id="Path_2952" data-name="Path 2952" class="cls-6" d="M17.693,20.919v.965a.217.217,0,0,0-.1-.024.214.214,0,0,0-.1.024v-.965Z"/>
    </g>
    <g id="Group_1334" data-name="Group 1334">
      <path id="Path_2953" data-name="Path 2953" class="cls-8" d="M18.168,19.954c.752.7,2.608,1.016,2.608-.88V15.879l-.763.576V18.78C20.013,19.57,19.5,20.349,18.168,19.954Z"/>
      <path id="Path_2954" data-name="Path 2954" class="cls-9" d="M20.776,15.879v3.195c0,1.9-1.856,1.58-2.608.88,2.255,2.122,3.371.452,3.371-.835V15.3Z"/>
      <path id="Path_2955" data-name="Path 2955" class="cls-5" d="M18.168,19.954c1.332.4,1.845-.384,1.845-1.174V16.455l-.789.6C19.224,18.163,19.33,20.157,18.168,19.954Z"/>
      <path id="Path_2956" data-name="Path 2956" class="cls-9" d="M22.084,16.186V19.5c0,1.513-2.094,3.025-4.212.587l.3-.136c2.255,2.122,3.371.452,3.371-.835V16.44Z"/>
      <path id="Path_2957" data-name="Path 2957" class="cls-8" d="M17.007,19.954c-.752.7-2.608,1.016-2.608-.88V15.879l.763.576V18.78C15.162,19.57,15.675,20.349,17.007,19.954Z"/>
      <path id="Path_2958" data-name="Path 2958" class="cls-9" d="M14.4,15.879v3.195c0,1.9,1.856,1.58,2.608.88-2.255,2.122-3.371.452-3.371-.835V15.3Z"/>
      <path id="Path_2959" data-name="Path 2959" class="cls-5" d="M17.007,19.954c-1.332.4-1.845-.384-1.845-1.174V16.455l.789.6C15.951,18.163,15.845,20.157,17.007,19.954Z"/>
      <path id="Path_2960" data-name="Path 2960" class="cls-9" d="M13.091,16.186V19.5c0,1.513,2.094,3.025,4.212.587l-.3-.136c-2.255,2.122-3.371.452-3.371-.835V16.44Z"/>
    </g>
    <g id="Group_1335" data-name="Group 1335">
      <path id="Path_2961" data-name="Path 2961" class="cls-9" d="M20.908,14.621v1.16l-.513.386v-.984Z"/>
      <path id="Path_2962" data-name="Path 2962" class="cls-8" d="M20.4,15.183l-.719.792v.733l.719-.541Z"/>
      <path id="Path_2963" data-name="Path 2963" class="cls-5" d="M19.676,15.975l-.6.659v.526l.6-.452Z"/>
      <path id="Path_2964" data-name="Path 2964" class="cls-9" d="M14.267,14.621v1.16l.514.386v-.984Z"/>
      <path id="Path_2965" data-name="Path 2965" class="cls-8" d="M14.781,15.183l.718.792v.733l-.718-.541Z"/>
      <path id="Path_2966" data-name="Path 2966" class="cls-5" d="M15.5,15.975l.6.659v.526l-.6-.452Z"/>
    </g>
    <g id="Group_1336" data-name="Group 1336">
      <path id="Path_2967" data-name="Path 2967" class="cls-9" d="M15.963,15.382c.04.048-.042.18-.182.3s-.282.166-.326.123a.643.643,0,0,1-.156-.582c.04-.175.159-.288.285-.254a.173.173,0,0,1,.12.215A.639.639,0,0,1,15.963,15.382Z"/>
      <path id="Path_2968" data-name="Path 2968" class="cls-7" d="M15.866,15.28c.042.11-.149.265-.285.35"/>
      <path id="Path_2969" data-name="Path 2969" class="cls-7" d="M15.7,15.179a.2.2,0,0,0-.188.031"/>
    </g>
    <g id="Group_1337" data-name="Group 1337">
      <path id="Path_2970" data-name="Path 2970" class="cls-6" d="M19.193,15.743l.575-.751c.068-.082.187.027.132.1l-.575.751"/>
      <path id="Path_2971" data-name="Path 2971" class="cls-6" d="M19.613,15.472a.935.935,0,0,1,.421.584.9.9,0,0,0,.337-.281.764.764,0,0,0,.183-.4.948.948,0,0,1-.681-.245Z"/>
    </g>
    <g id="Group_1342" data-name="Group 1342">
      <path id="Path_2972" data-name="Path 2972" class="cls-8" d="M15.675,20.834l3.88-4.8-.574-.464-4.007,4.661A1.277,1.277,0,0,0,15.675,20.834Z"/>
      <path id="Path_2973" data-name="Path 2973" class="cls-8" d="M18.864,16.286a.566.566,0,0,0,.367.15c.065-.006.117-.078.095-.119-.031.04-.176.051-.386-.121s-.226-.315-.191-.353c-.044-.014-.109.054-.1.119A.543.543,0,0,0,18.864,16.286Z"/>
      <path id="Path_2974" data-name="Path 2974" class="cls-8" d="M15.687,20.093a.688.688,0,0,0,.442.181c.079-.007.141-.094.115-.143-.038.049-.212.061-.465-.146s-.272-.38-.231-.425c-.053-.017-.131.065-.124.143A.679.679,0,0,0,15.687,20.093Z"/>
      <path id="Path_2975" data-name="Path 2975" class="cls-8" d="M15.082,20.678a.165.165,0,1,0,.145.117"/>
      <path id="Path_2976" data-name="Path 2976" class="cls-8" d="M15.2,20.83l.125-.151-.145-.116-.133.16"/>
      <path id="Path_2977" data-name="Path 2977" class="cls-8" d="M15.206,20.671a.7.7,0,0,0,.452.185c.08-.008.144-.1.117-.146-.039.05-.217.063-.476-.149s-.278-.388-.236-.435c-.054-.017-.134.066-.126.146A.7.7,0,0,0,15.206,20.671Z"/>
      <g id="Group_1338" data-name="Group 1338">
        <path id="Path_2978" data-name="Path 2978" class="cls-8" d="M19.166,15.926c.159.128.333.177.389.108s-.027-.228-.185-.356-.333-.177-.389-.108S19.007,15.8,19.166,15.926Z"/>
        <path id="Path_2979" data-name="Path 2979" class="cls-8" d="M19.268,15.8"/>
      </g>
      <g id="Group_1339" data-name="Group 1339">
        <path id="Path_2980" data-name="Path 2980" d="M19.2,15.874c.1.083.2.118.244.08s-.008-.136-.1-.219-.2-.118-.244-.08S19.106,15.792,19.2,15.874Z"/>
        <path id="Path_2981" data-name="Path 2981" d="M19.272,15.805"/>
      </g>
      <path id="Path_2982" data-name="Path 2982" class="cls-8" d="M19.5,20.834l-3.88-4.8.574-.464L20.2,20.231A1.284,1.284,0,0,1,19.5,20.834Z"/>
      <path id="Path_2983" data-name="Path 2983" class="cls-8" d="M16.312,16.286a.566.566,0,0,1-.367.15c-.065-.006-.117-.078-.1-.119.031.04.176.051.386-.121s.226-.315.191-.353c.044-.014.109.054.1.119A.561.561,0,0,1,16.312,16.286Z"/>
      <path id="Path_2984" data-name="Path 2984" class="cls-8" d="M19.488,20.093a.688.688,0,0,1-.442.181c-.079-.007-.141-.094-.115-.143.038.049.212.061.465-.146s.272-.38.231-.425c.053-.017.131.065.124.143A.679.679,0,0,1,19.488,20.093Z"/>
      <path id="Path_2985" data-name="Path 2985" class="cls-8" d="M20.093,20.678a.165.165,0,1,1-.145.117"/>
      <path id="Path_2986" data-name="Path 2986" class="cls-8" d="M19.977,20.83l-.125-.151L20,20.563l.132.16"/>
      <path id="Path_2987" data-name="Path 2987" class="cls-8" d="M19.969,20.671a.7.7,0,0,1-.452.185c-.08-.008-.144-.1-.117-.146.039.05.217.063.476-.149s.278-.388.236-.435c.054-.017.134.066.126.146A.7.7,0,0,1,19.969,20.671Z"/>
      <g id="Group_1340" data-name="Group 1340">
        <path id="Path_2988" data-name="Path 2988" class="cls-8" d="M16.009,15.926c-.159.128-.333.177-.389.108s.027-.228.185-.356.333-.177.389-.108S16.168,15.8,16.009,15.926Z"/>
        <path id="Path_2989" data-name="Path 2989" class="cls-8" d="M15.907,15.8"/>
      </g>
      <g id="Group_1341" data-name="Group 1341">
        <path id="Path_2990" data-name="Path 2990" d="M15.973,15.874c-.1.083-.2.118-.244.08s.008-.136.1-.219.205-.118.244-.08S16.069,15.792,15.973,15.874Z"/>
        <path id="Path_2991" data-name="Path 2991" d="M15.9,15.805"/>
      </g>
    </g>
    <g id="Group_1351" data-name="Group 1351">
      <g id="Group_1346" data-name="Group 1346">
        <g id="Group_1343" data-name="Group 1343">
          <path id="Path_2992" data-name="Path 2992" class="cls-8" d="M21.512,15.4c.118-.015.42.106.2.257s-.242-.164-.209-.245h0c-.016.053.026.245.14.186s-.063-.175-.14-.186c0-.077-.083-.27-.162-.168s.106.174.162.168h0c-.086.019-.384-.065-.209-.245S21.547,15.282,21.512,15.4Z"/>
          <path id="Path_2993" data-name="Path 2993" class="cls-8" d="M21.5,16.8a.4.4,0,0,0-.031-.392,8.348,8.348,0,0,0,.033-1.025c-.019.158-.062.781-.089,1.03a.4.4,0,0,0-.1.367C21.341,16.82,21.477,16.833,21.5,16.8Z"/>
          <path id="Path_2994" data-name="Path 2994" class="cls-8" d="M21.647,16.929a.435.435,0,0,0-.074-.418,8.787,8.787,0,0,0-.073-1.1c0,.172.016.844.013,1.115a.433.433,0,0,0-.068.4C21.479,16.968,21.627,16.968,21.647,16.929Z"/>
          <path id="Path_2995" data-name="Path 2995" class="cls-8" d="M21.534,15.367c-.066-.07-.145,0-.078.072S21.6,15.437,21.534,15.367Z"/>
          <path id="Path_2996" data-name="Path 2996" class="cls-8" d="M21.546,16.46a.04.04,0,1,0,0,.079A.04.04,0,1,0,21.546,16.46Z"/>
          <path id="Path_2997" data-name="Path 2997" class="cls-8" d="M21.441,16.357a.04.04,0,1,0,0,.079A.04.04,0,1,0,21.441,16.357Z"/>
        </g>
        <g id="Group_1344" data-name="Group 1344">
          <path id="Path_2998" data-name="Path 2998" class="cls-8" d="M22.064,16.269c.117-.019.424.092.206.251s-.248-.156-.217-.238h0c-.014.053.034.244.146.181s-.068-.173-.146-.181c0-.077-.092-.267-.167-.162s.112.171.167.162h0c-.085.022-.387-.052-.217-.238S22.095,16.155,22.064,16.269Z"/>
          <path id="Path_2999" data-name="Path 2999" class="cls-8" d="M22.1,17.673a.4.4,0,0,0-.044-.391,8.3,8.3,0,0,0,0-1.026c-.014.159-.036.782-.055,1.033a.4.4,0,0,0-.087.37C21.94,17.7,22.077,17.708,22.1,17.673Z"/>
          <path id="Path_3000" data-name="Path 3000" class="cls-8" d="M22.251,17.8a.432.432,0,0,0-.088-.415,8.953,8.953,0,0,0-.109-1.1c0,.172.044.843.05,1.114a.432.432,0,0,0-.055.406C22.084,17.843,22.232,17.838,22.251,17.8Z"/>
          <path id="Path_3001" data-name="Path 3001" class="cls-8" d="M22.085,16.241c-.068-.068-.145.006-.076.075S22.154,16.309,22.085,16.241Z"/>
          <path id="Path_3002" data-name="Path 3002" class="cls-8" d="M22.134,17.333a.04.04,0,1,0,0,.079A.04.04,0,1,0,22.134,17.333Z"/>
          <path id="Path_3003" data-name="Path 3003" class="cls-8" d="M22.025,17.233a.04.04,0,1,0,0,.079A.04.04,0,1,0,22.025,17.233Z"/>
        </g>
        <g id="Group_1345" data-name="Group 1345">
          <path id="Path_3004" data-name="Path 3004" class="cls-8" d="M20.863,14.729c.118-.015.42.106.2.257s-.242-.164-.209-.245h0c-.016.053.026.245.14.186s-.063-.175-.14-.186c0-.077-.083-.27-.162-.168s.107.174.162.168h0c-.086.019-.385-.065-.209-.245S20.9,14.616,20.863,14.729Z"/>
          <path id="Path_3005" data-name="Path 3005" class="cls-8" d="M20.861,15.815a.272.272,0,0,0-.041-.075,8.348,8.348,0,0,0,.033-1.025c-.019.158-.062.781-.089,1.03a.409.409,0,0,0-.107.225Z"/>
          <path id="Path_3006" data-name="Path 3006" class="cls-8" d="M20.926,15.766a10.185,10.185,0,0,0-.075-1.025c0,.163.014.778.013,1.071Z"/>
          <path id="Path_3007" data-name="Path 3007" class="cls-8" d="M20.885,14.7c-.066-.07-.145,0-.078.072S20.951,14.771,20.885,14.7Z"/>
          <path id="Path_3008" data-name="Path 3008" class="cls-8" d="M20.792,15.691a.04.04,0,1,0,0,.079A.04.04,0,1,0,20.792,15.691Z"/>
        </g>
      </g>
      <g id="Group_1350" data-name="Group 1350">
        <g id="Group_1347" data-name="Group 1347">
          <path id="Path_3009" data-name="Path 3009" class="cls-8" d="M13.663,15.4c-.118-.015-.42.106-.2.257s.242-.164.209-.245h0c.016.053-.026.245-.14.186s.063-.175.14-.186c0-.077.083-.27.162-.168s-.106.174-.162.168h0c.086.019.384-.065.209-.245S13.628,15.282,13.663,15.4Z"/>
          <path id="Path_3010" data-name="Path 3010" class="cls-8" d="M13.676,16.8a.4.4,0,0,1,.031-.392,8.348,8.348,0,0,1-.033-1.025c.019.158.062.781.089,1.03a.4.4,0,0,1,.1.367C13.835,16.82,13.7,16.833,13.676,16.8Z"/>
          <path id="Path_3011" data-name="Path 3011" class="cls-8" d="M13.528,16.929a.435.435,0,0,1,.074-.418,8.787,8.787,0,0,1,.073-1.1c0,.172-.016.844-.013,1.115a.433.433,0,0,1,.068.4C13.7,16.968,13.548,16.968,13.528,16.929Z"/>
          <path id="Path_3012" data-name="Path 3012" class="cls-8" d="M13.641,15.367c.066-.07.145,0,.078.072S13.575,15.437,13.641,15.367Z"/>
          <path id="Path_3013" data-name="Path 3013" class="cls-8" d="M13.629,16.46a.04.04,0,1,1,0,.079A.04.04,0,1,1,13.629,16.46Z"/>
          <path id="Path_3014" data-name="Path 3014" class="cls-8" d="M13.734,16.357a.04.04,0,1,1,0,.079A.04.04,0,1,1,13.734,16.357Z"/>
        </g>
        <g id="Group_1348" data-name="Group 1348">
          <path id="Path_3015" data-name="Path 3015" class="cls-8" d="M13.111,16.269c-.117-.019-.424.092-.206.251s.248-.156.217-.238h0c.014.053-.034.244-.146.181s.068-.173.146-.181c0-.077.092-.267.167-.162s-.112.171-.167.162h0c.085.022.387-.052.217-.238S13.08,16.155,13.111,16.269Z"/>
          <path id="Path_3016" data-name="Path 3016" class="cls-8" d="M13.077,17.673a.4.4,0,0,1,.044-.391,8.3,8.3,0,0,1,0-1.026c.014.159.036.782.055,1.033a.4.4,0,0,1,.087.37C13.235,17.7,13.1,17.708,13.077,17.673Z"/>
          <path id="Path_3017" data-name="Path 3017" class="cls-8" d="M12.925,17.8a.432.432,0,0,1,.088-.415,8.953,8.953,0,0,1,.109-1.1c0,.172-.044.843-.05,1.114a.432.432,0,0,1,.055.406C13.091,17.843,12.943,17.838,12.925,17.8Z"/>
          <path id="Path_3018" data-name="Path 3018" class="cls-8" d="M13.09,16.241c.068-.068.145.006.076.075S13.022,16.309,13.09,16.241Z"/>
          <path id="Path_3019" data-name="Path 3019" class="cls-8" d="M13.041,17.333a.04.04,0,1,1,0,.079A.04.04,0,1,1,13.041,17.333Z"/>
          <path id="Path_3020" data-name="Path 3020" class="cls-8" d="M13.15,17.233a.04.04,0,1,1,0,.079A.04.04,0,1,1,13.15,17.233Z"/>
        </g>
        <g id="Group_1349" data-name="Group 1349">
          <path id="Path_3021" data-name="Path 3021" class="cls-8" d="M14.312,14.729c-.118-.015-.42.106-.2.257s.242-.164.209-.245h0c.016.053-.026.245-.14.186s.063-.175.14-.186c0-.077.083-.27.162-.168s-.107.174-.162.168h0c.086.019.384-.065.209-.245S14.277,14.616,14.312,14.729Z"/>
          <path id="Path_3022" data-name="Path 3022" class="cls-8" d="M14.314,15.815a.272.272,0,0,1,.041-.075,8.348,8.348,0,0,1-.033-1.025c.019.158.062.781.089,1.03a.409.409,0,0,1,.107.225Z"/>
          <path id="Path_3023" data-name="Path 3023" class="cls-8" d="M14.249,15.766a10.185,10.185,0,0,1,.075-1.025c0,.163-.014.778-.013,1.071Z"/>
          <path id="Path_3024" data-name="Path 3024" class="cls-8" d="M14.29,14.7c.066-.07.145,0,.078.072S14.224,14.771,14.29,14.7Z"/>
          <path id="Path_3025" data-name="Path 3025" class="cls-8" d="M14.383,15.691a.04.04,0,1,1,0,.079A.04.04,0,1,1,14.383,15.691Z"/>
        </g>
      </g>
    </g>
    <g id="Group_1352" data-name="Group 1352">
      <path id="Path_3026" data-name="Path 3026" class="cls-10" d="M17.588,21a2.417,2.417,0,0,0,2.077-2.65,2.416,2.416,0,0,0-2.077-2.65,2.416,2.416,0,0,0-2.077,2.65A2.415,2.415,0,0,0,17.588,21Z"/>
      <path id="Path_3027" data-name="Path 3027" class="cls-10" d="M17.588,18.351"/>
    </g>
    <g id="Group_1353" data-name="Group 1353">
      <path id="Path_3028" data-name="Path 3028" class="cls-11" d="M17.588,20.4c.756,0,1.368-.918,1.368-2.05s-.613-2.05-1.368-2.05-1.368.918-1.368,2.05S16.832,20.4,17.588,20.4Z"/>
      <path id="Path_3029" data-name="Path 3029" class="cls-11" d="M17.588,18.351"/>
    </g>
    <g id="Group_1354" data-name="Group 1354">
      <path id="Path_3030" data-name="Path 3030" class="cls-4" d="M18.954,18.464a6.188,6.188,0,0,1-1.446,0,5.086,5.086,0,0,0-1.284.045c0-.052,0-.1,0-.158a2.888,2.888,0,0,1,.019-.339,2.842,2.842,0,0,0,1.042-.609c.216-.2.319-.135.524.023a4.5,4.5,0,0,0,1.144.711c0,.07.007.142.007.214C18.956,18.389,18.955,18.426,18.954,18.464Z"/>
      <path id="Path_3031" data-name="Path 3031" class="cls-5" d="M16.466,19.522a2.738,2.738,0,0,1-.242-1.013,5.041,5.041,0,0,1,1.284-.045,6.188,6.188,0,0,0,1.446,0,2.762,2.762,0,0,1-.245,1.06S16.466,19.522,16.466,19.522Z"/>
      <path id="Path_3032" data-name="Path 3032" class="cls-12" d="M18.708,19.524s-2.242,0-2.242,0a1.322,1.322,0,0,0,1.122.879A1.32,1.32,0,0,0,18.708,19.524Z"/>
    </g>
    <g id="Group_1355" data-name="Group 1355">
      <path id="Path_3033" data-name="Path 3033" class="cls-4" d="M17.368,19.6a.085.085,0,0,0,.015.03c.029.037.013.058-.017.056s-.085-.011-.071-.093-.02-.195-.014-.265-.057-.147-.051-.257a.357.357,0,0,1-.386-.006c-.036.052-.047.1-.13.138a.035.035,0,0,0-.012.007.371.371,0,0,0,.012.041.392.392,0,0,1,.024.158c0,.056,0,.1.04.137s.012.054-.008.059c.044.032,0,.061-.015.061s-.07,0-.08-.049-.061-.08-.058-.128a.4.4,0,0,0-.046-.186.2.2,0,0,1,0-.124c-.068-.118-.02-.361.089-.406.1-.121.336-.073.467-.04s.137-.065.08-.223a.464.464,0,0,1,.094-.4c0-.068.014-.116.031-.09s.051.065.074.1c.057,0,.063.037.09.051s.014.068.1.078a.053.053,0,0,1,.053.071c-.013.064-.1.051-.213.049a2.294,2.294,0,0,1,.1.463.251.251,0,0,1-.108.241.157.157,0,0,0-.01.076.353.353,0,0,1,0,.141c-.011.031,0,.082-.011.124a.186.186,0,0,0,.014.141C17.455,19.6,17.4,19.608,17.368,19.6Z"/>
      <path id="Path_3034" data-name="Path 3034" class="cls-7" d="M17.475,18.239c-.008-.018-.036-.015-.044-.008"/>
      <path id="Path_3035" data-name="Path 3035" class="cls-7" d="M16.843,19.065A.108.108,0,0,0,16.866,19"/>
      <path id="Path_3036" data-name="Path 3036" class="cls-7" d="M16.657,18.771c-.085.1.016.173-.043.282a.564.564,0,0,0-.046.124"/>
      <path id="Path_3037" data-name="Path 3037" class="cls-7" d="M16.7,19.21c-.023.019-.011.058,0,.1a.375.375,0,0,1,.024.158c0,.056,0,.1.04.137"/>
      <path id="Path_3038" data-name="Path 3038" class="cls-7" d="M17.387,19.093a.119.119,0,0,0,.041-.022"/>
      <path id="Path_3039" data-name="Path 3039" class="cls-7" d="M17.414,18.969c-.006.118-.06.127-.031.254a.353.353,0,0,1,0,.141c-.011.031,0,.082-.011.124a.245.245,0,0,0,0,.111"/>
    </g>
    <g id="Group_1356" data-name="Group 1356">
      <path id="Path_3040" data-name="Path 3040" class="cls-13" d="M18.226,18.506V18.39l-.267.018-.172-.027v.11C17.9,18.5,18.149,18.506,18.226,18.506Z"/>
      <line id="Line_421" data-name="Line 421" class="cls-13" y2="0.088" transform="translate(17.959 18.411)"/>
      <path id="Path_3041" data-name="Path 3041" class="cls-14" d="M18.146,18.218l.1.176-.278.021-.1-.19Z"/>
      <path id="Path_3042" data-name="Path 3042" class="cls-14" d="M17.964,18.415l-.1-.19-.1.16Z"/>
      <path id="Path_3043" data-name="Path 3043" class="cls-14" d="M18.085,18.155l.049,0v.061l-.049,0Z"/>
      <rect id="Rectangle_243" data-name="Rectangle 243" class="cls-14" width="0.038" height="0.063" transform="translate(18.044 18.161) rotate(-6.8)"/>
    </g>
    <g id="Group_1357" data-name="Group 1357">
      <path id="Path_3044" data-name="Path 3044" class="cls-15" d="M18.428,18.187a2.731,2.731,0,0,1-.046.725c.012-.006.066-.037.071-.051,0,.028.034.059.037.071.007-.031.039-.051.044-.062a.216.216,0,0,0,.066.056,3.5,3.5,0,0,1-.059-.731"/>
      <path id="Path_3045" data-name="Path 3045" class="cls-16" d="M18.339,17.558a1.266,1.266,0,0,0-.188.149.112.112,0,0,0-.048.124.093.093,0,0,0,0,.124c-.031.042.011.118.06.133,0,.051.074.088.111.079a.118.118,0,0,0,.157.04c.02.042.122.04.148,0,.051.031.111-.02.114-.071a.09.09,0,0,0,.077-.1A.122.122,0,0,0,18.8,17.9c.031-.062.028-.138-.026-.158,0-.059-.051-.116-.1-.107,0-.045-.074-.076-.108-.062-.02-.034-.088-.062-.114-.034A.088.088,0,0,0,18.339,17.558Z"/>
      <path id="Path_3046" data-name="Path 3046" class="cls-17" d="M18.314,18a.056.056,0,1,0,0,.111A.056.056,0,1,0,18.314,18Z"/>
      <path id="Path_3047" data-name="Path 3047" class="cls-17" d="M18.531,17.9a.056.056,0,1,0,0,.111A.056.056,0,1,0,18.531,17.9Z"/>
      <path id="Path_3048" data-name="Path 3048" class="cls-17" d="M18.588,18.047a.056.056,0,1,0,0,.111A.056.056,0,1,0,18.588,18.047Z"/>
      <path id="Path_3049" data-name="Path 3049" class="cls-17" d="M18.28,17.833a.056.056,0,1,0,0,.111A.056.056,0,1,0,18.28,17.833Z"/>
      <path id="Path_3050" data-name="Path 3050" class="cls-17" d="M18.633,17.725a.056.056,0,1,0,0,.111A.056.056,0,1,0,18.633,17.725Z"/>
      <path id="Path_3051" data-name="Path 3051" class="cls-17" d="M18.394,17.652a.056.056,0,1,0,0,.111A.056.056,0,1,0,18.394,17.652Z"/>
    </g>
    <g id="Group_1359" data-name="Group 1359">
      <path id="Path_3052" data-name="Path 3052" class="cls-17" d="M17.751,18.973c.126-.094.409-.169.548-.012-.22-.069-.151.406-.094.681a.459.459,0,0,1-.328-.006C17.953,19.154,17.984,18.873,17.751,18.973Z"/>
      <g id="Group_1358" data-name="Group 1358">
        <path id="Path_3053" data-name="Path 3053" class="cls-7" d="M18.042,18.852v.837"/>
        <path id="Path_3054" data-name="Path 3054" class="cls-18" d="M17.967,18.853a2.9,2.9,0,0,1,.027.834"/>
        <path id="Path_3055" data-name="Path 3055" class="cls-18" d="M17.892,18.883c.115-.021.09.554.052.8"/>
        <path id="Path_3056" data-name="Path 3056" class="cls-18" d="M17.818,18.928c.173-.1.134.445.078.742"/>
        <path id="Path_3057" data-name="Path 3057" class="cls-18" d="M17.85,19.644c.074-.351.123-.805-.1-.632"/>
        <path id="Path_3058" data-name="Path 3058" class="cls-18" d="M18.116,18.853a2.9,2.9,0,0,0-.027.834"/>
        <path id="Path_3059" data-name="Path 3059" class="cls-18" d="M18.191,18.883c-.115-.021-.09.554-.052.8"/>
        <path id="Path_3060" data-name="Path 3060" class="cls-18" d="M18.265,18.928c-.173-.1-.134.445-.078.742"/>
        <path id="Path_3061" data-name="Path 3061" class="cls-18" d="M18.337,19.012c-.227-.173-.178.281-.1.632"/>
      </g>
      <path id="Path_3062" data-name="Path 3062" class="cls-19" d="M18.042,19.3c.041,0,.135-.019.133-.044,0-.009,0-.03,0-.036,0,.025-.092.04-.133.04s-.134-.016-.133-.04a.228.228,0,0,1,0,.036C17.906,19.281,18,19.3,18.042,19.3Z"/>
    </g>
    <g id="Group_1361" data-name="Group 1361">
      <g id="Group_1360" data-name="Group 1360">
        <path id="Path_3063" data-name="Path 3063" class="cls-19" d="M17.007,17.138a.2.2,0,1,0-.2-.2A.2.2,0,0,0,17.007,17.138Z"/>
        <path id="Path_3064" data-name="Path 3064" class="cls-19" d="M17.007,16.934"/>
      </g>
      <line id="Line_422" data-name="Line 422" class="cls-18" y1="0.133" transform="translate(17.007 16.502)"/>
      <line id="Line_423" data-name="Line 423" class="cls-18" x1="0.019" y1="0.068" transform="translate(16.91 16.577)"/>
      <line id="Line_424" data-name="Line 424" class="cls-18" x1="0.018" y1="0.031" transform="translate(16.838 16.644)"/>
      <line id="Line_425" data-name="Line 425" class="cls-18" x1="0.016" y1="0.017" transform="translate(16.777 16.706)"/>
      <line id="Line_426" data-name="Line 426" class="cls-18" x1="0.024" y1="0.014" transform="translate(16.721 16.771)"/>
      <line id="Line_427" data-name="Line 427" class="cls-18" x1="0.05" y1="0.013" transform="translate(16.665 16.844)"/>
      <line id="Line_428" data-name="Line 428" class="cls-18" x1="0.102" transform="translate(16.603 16.934)"/>
      <line id="Line_429" data-name="Line 429" class="cls-18" x1="0.148" y2="0.039" transform="translate(16.567 17.012)"/>
      <line id="Line_430" data-name="Line 430" class="cls-18" x1="0.211" y2="0.121" transform="translate(16.534 17.084)"/>
      <line id="Line_431" data-name="Line 431" class="cls-18" x1="0.108" y2="0.108" transform="translate(16.685 17.146)"/>
      <line id="Line_432" data-name="Line 432" class="cls-18" x1="0.15" y2="0.257" transform="translate(16.706 17.193)"/>
      <line id="Line_433" data-name="Line 433" class="cls-18" x1="0.04" y2="0.147" transform="translate(16.889 17.223)"/>
      <line id="Line_434" data-name="Line 434" class="cls-18" y2="0.242" transform="translate(17.007 17.233)"/>
      <line id="Line_435" data-name="Line 435" class="cls-18" x2="0.04" y2="0.147" transform="translate(17.085 17.223)"/>
      <line id="Line_436" data-name="Line 436" class="cls-18" x2="0.122" y2="0.21" transform="translate(17.158 17.193)"/>
      <line id="Line_437" data-name="Line 437" class="cls-18" x2="0.109" y2="0.108" transform="translate(17.22 17.146)"/>
      <line id="Line_438" data-name="Line 438" class="cls-18" x2="0.259" y2="0.148" transform="translate(17.268 17.084)"/>
      <line id="Line_439" data-name="Line 439" class="cls-18" x2="0.149" y2="0.039" transform="translate(17.298 17.012)"/>
      <line id="Line_440" data-name="Line 440" class="cls-18" x2="0.243" transform="translate(17.309 16.934)"/>
      <line id="Line_441" data-name="Line 441" class="cls-18" y1="0.077" x2="0.289" transform="translate(17.298 16.78)"/>
      <line id="Line_442" data-name="Line 442" class="cls-18" y1="0.077" x2="0.133" transform="translate(17.268 16.708)"/>
      <line id="Line_443" data-name="Line 443" class="cls-18" y1="0.171" x2="0.173" transform="translate(17.22 16.552)"/>
      <line id="Line_444" data-name="Line 444" class="cls-18" y1="0.132" x2="0.077" transform="translate(17.158 16.543)"/>
      <line id="Line_445" data-name="Line 445" class="cls-18" y1="0.226" x2="0.061" transform="translate(17.085 16.419)"/>
      <path id="Path_3065" data-name="Path 3065" class="cls-20" d="M16.884,16.879c.016-.007.067-.021.091,0"/>
      <path id="Path_3066" data-name="Path 3066" class="cls-20" d="M16.913,16.883a.035.035,0,0,0,.037,0"/>
      <path id="Path_3067" data-name="Path 3067" class="cls-20" d="M16.961,17.008a.143.143,0,0,0,.087,0"/>
      <path id="Path_3068" data-name="Path 3068" class="cls-20" d="M16.984,16.96a.059.059,0,0,0,.047,0"/>
      <path id="Path_3069" data-name="Path 3069" class="cls-20" d="M17.129,16.879c-.016-.007-.067-.021-.091,0"/>
      <path id="Path_3070" data-name="Path 3070" class="cls-20" d="M17.1,16.883a.035.035,0,0,1-.037,0"/>
    </g>
    <g id="Group_1362" data-name="Group 1362">
      <path id="Path_3071" data-name="Path 3071" class="cls-17" d="M18.182,20.309l.1.146.173-.052-.109.144.1.145-.17-.058-.108.143,0-.18-.17-.056.172-.053Z"/>
      <path id="Path_3072" data-name="Path 3072" class="cls-17" d="M18.671,19.838l.144.107.148-.1-.059.17.144.107-.18,0-.058.169-.054-.172h-.179l.147-.1Z"/>
      <path id="Path_3073" data-name="Path 3073" class="cls-17" d="M18.928,19.316l.172.053.1-.147,0,.181.172.052-.171.057,0,.179-.109-.144-.17.059.105-.147Z"/>
      <path id="Path_3074" data-name="Path 3074" class="cls-17" d="M19.067,18.7l.179-.015.041-.175.07.166.18-.017-.137.117.071.165-.155-.093-.135.118.04-.174Z"/>
      <path id="Path_3075" data-name="Path 3075" class="cls-17" d="M17.587,20.477l-.055.17h-.181l.147.106-.056.169.145-.105.146.105-.056-.171.147-.1h-.181Z"/>
      <path id="Path_3076" data-name="Path 3076" class="cls-17" d="M16.993,20.309l-.1.146-.173-.052.109.144-.1.145.17-.058.109.143,0-.18.171-.056L17,20.488Z"/>
      <path id="Path_3077" data-name="Path 3077" class="cls-17" d="M16.5,19.838l-.144.107-.148-.1.059.17-.144.107.18,0,.058.169.054-.172h.18l-.148-.1Z"/>
      <path id="Path_3078" data-name="Path 3078" class="cls-17" d="M16.247,19.316l-.172.053-.1-.147,0,.181-.172.052.171.057,0,.179.109-.144.17.059-.1-.147Z"/>
      <path id="Path_3079" data-name="Path 3079" class="cls-17" d="M16.109,18.7l-.18-.015-.04-.175-.071.166-.18-.017.137.117-.071.165.156-.093.134.118-.04-.174Z"/>
    </g>
    <g id="Group_1364" data-name="Group 1364">
      <path id="Path_3080" data-name="Path 3080" class="cls-21" d="M15.552,14.883c-.006-.036.219-.02.256-.152a.347.347,0,0,1,.148-.172.408.408,0,0,1,.464.085.3.3,0,0,0,.226.091.219.219,0,0,1-.051.281.445.445,0,0,0-.289-.05.752.752,0,0,1-.424-.037C15.8,14.878,15.566,14.967,15.552,14.883Z"/>
      <path id="Path_3081" data-name="Path 3081" class="cls-4" d="M16.6,15.014a.289.289,0,0,1,.075.063c.2.243.325.389.661.356l.176-.019c-.142.136-.182.177-.29.177s-.293.09-.288.26a1.757,1.757,0,0,1,.7-.124c0-.034-.046-.124-.1-.135s-.063-.088.148-.195a1,1,0,0,1,.456.026c.1.04.171.073.171.169,0,.034-.012.109-.088.079a.252.252,0,0,0-.344.1,1.255,1.255,0,0,1,.658.248c.011-.068.006-.152-.046-.175a.153.153,0,0,1-.071-.124.322.322,0,0,1,.028-.172.091.091,0,0,0-.043-.138.119.119,0,0,1-.063-.138,1.25,1.25,0,0,1,.689.217c.111.088.2.023.2-.031.046.025.074-.054.051-.1.053.021.095-.1.074-.126.053-.1-.111-.156-.359-.185-.39-.045-.467-.244-.695-.272a.078.078,0,0,0,.1-.087c.108.034.168-.011.165-.085.194.025.276-.045.253-.113.117-.006.145-.1.083-.155.1-.02.122-.079.114-.124.094-.008.157-.076.125-.124.151-.006.2-.056.2-.127.122,0,.222-.076.216-.138.162-.006.273-.09.256-.161.174-.006.268-.062.245-.15.211,0,.419-.017.376-.11.2,0,.305-.1.287-.135.248,0,.313-.206-.043-.212,0-.036-.154-.029-.3-.028-.74.006-1.452.017-1.691.011s-.848.119-.82.536-.051.519-.268.632c-.047.024-.09.049-.129.074,0-.119-.054-.305-.128-.3-.006-.152-.1-.226-.159-.192-.011-.141-.137-.282-.216-.226-.034-.079-.085-.147-.188-.124-.057-.152-.194-.2-.256-.135-.063-.107-.188-.141-.245-.073-.068-.1-.2-.147-.256-.079-.083-.073-.159-.119-.242-.082-.122-.107-.273-.15-.344-.079-.168-.093-.225-.045-.253.02-.119-.09-.288-.088-.316,0-.239-.147-.606-.017-.265.113a3.76,3.76,0,0,1,1.125.691,1.046,1.046,0,0,0,.712.316.6.6,0,0,1,.433.113.357.357,0,0,1,.137.334.334.334,0,0,0-.234.1.2.2,0,0,1-.132.068A.228.228,0,0,1,16.6,15.014Z"/>
      <path id="Path_3082" data-name="Path 3082" class="cls-13" d="M16.611,14.736c.023,0,.037.088.028.136s-.048.141-.083.124c0,.04.073.061.083.01a.047.047,0,0,0,.044-.065c.024-.013.041-.068.017-.079a.043.043,0,0,0-.01-.069c.014-.018.007-.048-.011-.051C16.685,14.713,16.618,14.7,16.611,14.736Z"/>
      <g id="Group_1363" data-name="Group 1363">
        <path id="Path_3083" data-name="Path 3083" class="cls-7" d="M18.4,13.322a3.5,3.5,0,0,0,.564-.017c.073-.018.151-.082.108-.164"/>
        <path id="Path_3084" data-name="Path 3084" class="cls-7" d="M18.96,13.305c.327,0,.589-.008.7-.014s.211-.076.128-.172"/>
        <path id="Path_3085" data-name="Path 3085" class="cls-7" d="M18.294,13.455c.3,0,.652.028.621-.138"/>
        <path id="Path_3086" data-name="Path 3086" class="cls-7" d="M18.826,13.429c.211-.006.532-.014.638-.014s.225-.023.2-.124"/>
        <path id="Path_3087" data-name="Path 3087" class="cls-7" d="M18.22,13.6c.439,0,.592.006.555-.15"/>
        <path id="Path_3088" data-name="Path 3088" class="cls-7" d="M18.174,13.717c.25,0,.549.025.5-.135"/>
        <path id="Path_3089" data-name="Path 3089" class="cls-7" d="M18.143,13.819c.165.008.461.037.421-.116"/>
        <path id="Path_3090" data-name="Path 3090" class="cls-7" d="M18.094,13.977c.211,0,.418-.006.356-.158"/>
        <path id="Path_3091" data-name="Path 3091" class="cls-7" d="M18.02,14.112c.159,0,.367-.011.33-.15"/>
        <path id="Path_3092" data-name="Path 3092" class="cls-7" d="M18.724,13.563c.139-.011.433-.007.567-.01s.268-.02.233-.141"/>
        <path id="Path_3093" data-name="Path 3093" class="cls-7" d="M18.624,13.686c.174,0,.45-.023.535-.023s.222-.006.2-.113"/>
        <path id="Path_3094" data-name="Path 3094" class="cls-7" d="M18.51,13.805c.111-.008.413-.02.515-.023s.248-.02.231-.124"/>
        <path id="Path_3095" data-name="Path 3095" class="cls-7" d="M18.4,13.943c.148-.008.336,0,.424-.008.111-.007.27-.032.233-.154"/>
        <path id="Path_3096" data-name="Path 3096" class="cls-7" d="M18.3,14.07c.111,0,.236,0,.336,0s.3-.006.253-.141"/>
        <path id="Path_3097" data-name="Path 3097" class="cls-7" d="M17.909,14.256c.1,0,.4.04.356-.166"/>
        <path id="Path_3098" data-name="Path 3098" class="cls-7" d="M18.211,14.228c.134-.006.3-.008.384-.011s.185-.045.151-.152"/>
        <path id="Path_3099" data-name="Path 3099" class="cls-7" d="M17.778,14.386c.186.013.421.027.36-.133"/>
        <path id="Path_3100" data-name="Path 3100" class="cls-7" d="M17.61,14.516a1.879,1.879,0,0,1,.214,0c.048,0,.168-.011.157-.124"/>
        <path id="Path_3101" data-name="Path 3101" class="cls-7" d="M18.055,14.383c.213.006.584.02.541-.167"/>
        <path id="Path_3102" data-name="Path 3102" class="cls-7" d="M20.728,13.263c-.088.008-.76-.023-.959,0"/>
        <path id="Path_3103" data-name="Path 3103" class="cls-7" d="M20.44,13.4c-.148,0-.615-.011-.837,0"/>
        <path id="Path_3104" data-name="Path 3104" class="cls-7" d="M20.064,13.508c-.131,0-.4,0-.578.011"/>
        <path id="Path_3105" data-name="Path 3105" class="cls-7" d="M19.82,13.658c-.085.006-.31-.025-.532-.008"/>
        <path id="Path_3106" data-name="Path 3106" class="cls-7" d="M19.563,13.819c-.111.006-.333-.017-.5-.011"/>
        <path id="Path_3107" data-name="Path 3107" class="cls-7" d="M19.347,13.957c-.071.006-.339,0-.45-.008"/>
        <path id="Path_3108" data-name="Path 3108" class="cls-7" d="M19.142,14.084c-.065,0-.29.011-.39.011"/>
        <path id="Path_3109" data-name="Path 3109" class="cls-7" d="M19.017,14.208c-.091.011-.265.014-.421.023"/>
        <path id="Path_3110" data-name="Path 3110" class="cls-7" d="M18.9,14.332a2.569,2.569,0,0,1-.4.02"/>
        <path id="Path_3111" data-name="Path 3111" class="cls-7" d="M18.82,14.487a1.741,1.741,0,0,1-.549-.1"/>
        <path id="Path_3112" data-name="Path 3112" class="cls-7" d="M18.567,14.6a1.541,1.541,0,0,1-.549-.209"/>
        <path id="Path_3113" data-name="Path 3113" class="cls-7" d="M18.4,14.685a1.363,1.363,0,0,1-.444-.209"/>
        <path id="Path_3114" data-name="Path 3114" class="cls-7" d="M17.457,14.589a.887.887,0,0,1,.347.042c.063.031.159.023.128-.054"/>
        <path id="Path_3115" data-name="Path 3115" class="cls-7" d="M18.208,14.73c.011.051-.088.116-.211.051a1.187,1.187,0,0,0-.641-.164"/>
        <path id="Path_3116" data-name="Path 3116" class="cls-7" d="M17.195,14.541a.813.813,0,0,1-.182.03"/>
        <path id="Path_3117" data-name="Path 3117" class="cls-7" d="M17.24,14.479c-.051.04-.141.031-.171-.1-.074-.31-.256-.368-.513-.361a1.318,1.318,0,0,1-.962-.429c-.057-.048-.148-.107-.1-.152s.214.1.325.183"/>
        <path id="Path_3118" data-name="Path 3118" class="cls-7" d="M15.976,13.762c-.117-.1-.384-.291-.316-.381s.319.189.444.3"/>
        <path id="Path_3119" data-name="Path 3119" class="cls-7" d="M15.956,13.542c-.063-.056-.139-.113-.085-.175s.359.226.544.406"/>
        <path id="Path_3120" data-name="Path 3120" class="cls-7" d="M16.141,13.522c-.034-.025-.06-.082-.028-.113s.3.079.552.387"/>
        <path id="Path_3121" data-name="Path 3121" class="cls-7" d="M16.375,13.514c.04-.037.185,0,.285.09a2.591,2.591,0,0,1,.251.268"/>
        <path id="Path_3122" data-name="Path 3122" class="cls-7" d="M16.651,13.593c.077-.008.213.093.333.234a.54.54,0,0,1,.176.494"/>
        <path id="Path_3123" data-name="Path 3123" class="cls-7" d="M14.872,13c.137.087.438.3.618.437"/>
        <path id="Path_3124" data-name="Path 3124" class="cls-7" d="M15.188,13.006a4.155,4.155,0,0,1,.483.368"/>
        <path id="Path_3125" data-name="Path 3125" class="cls-7" d="M15.441,12.986a6.6,6.6,0,0,1,.541.412"/>
        <path id="Path_3126" data-name="Path 3126" class="cls-7" d="M15.786,13.065c.1.076.333.268.416.35"/>
        <path id="Path_3127" data-name="Path 3127" class="cls-7" d="M16.027,13.147c.08.065.268.271.35.358"/>
        <path id="Path_3128" data-name="Path 3128" class="cls-7" d="M16.284,13.226c.04.054.142.2.2.282"/>
        <path id="Path_3129" data-name="Path 3129" class="cls-7" d="M16.529,13.3c.037.056.122.217.159.3"/>
        <path id="Path_3130" data-name="Path 3130" class="cls-7" d="M16.785,13.435a1.867,1.867,0,0,1,.071.26"/>
        <path id="Path_3131" data-name="Path 3131" class="cls-7" d="M16.973,13.559a1.637,1.637,0,0,1,.066.339"/>
        <path id="Path_3132" data-name="Path 3132" class="cls-7" d="M17.189,13.785a.815.815,0,0,1-.023.361"/>
        <path id="Path_3133" data-name="Path 3133" class="cls-7" d="M17.348,13.977a.484.484,0,0,1-.043.186"/>
        <path id="Path_3134" data-name="Path 3134" class="cls-7" d="M17.405,14.671a.534.534,0,0,1,.279.1c.046.051.236.076.191-.039"/>
        <path id="Path_3135" data-name="Path 3135" class="cls-7" d="M17.166,15.1a1.5,1.5,0,0,0,.427-.011c.085-.017.08-.068.017-.073"/>
        <path id="Path_3136" data-name="Path 3136" class="cls-7" d="M17.377,15.015c.08,0,.2-.056.142-.068s-.251-.04-.307-.045"/>
        <path id="Path_3137" data-name="Path 3137" class="cls-7" d="M19.227,15.453a1.679,1.679,0,0,0-.382-.171"/>
        <path id="Path_3138" data-name="Path 3138" class="cls-7" d="M19.279,15.354a2.731,2.731,0,0,0-.333-.13"/>
        <path id="Path_3139" data-name="Path 3139" class="cls-7" d="M19.353,15.228c-.031.042-.209-.007-.316-.058"/>
        <path id="Path_3140" data-name="Path 3140" class="cls-7" d="M16.013,14.75a.1.1,0,0,1,.14-.065c-.02.063-.108.025-.117.032"/>
        <path id="Path_3141" data-name="Path 3141" class="cls-7" d="M17.508,15.414l.171-.018"/>
        <path id="Path_3142" data-name="Path 3142" class="cls-7" d="M17.476,14.276a1.007,1.007,0,0,0-.281.265c-.114.158-.307.051-.433.254"/>
        <path id="Path_3143" data-name="Path 3143" class="cls-7" d="M18.3,14.772a.211.211,0,0,1-.046-.016,2.015,2.015,0,0,0-.5-.243"/>
        <path id="Path_3144" data-name="Path 3144" class="cls-7" d="M20.685,13.051c.006.136-.325.09-.626.073a8.84,8.84,0,0,0-1.424.062c-.385.068-.478.615-.541.79a1.291,1.291,0,0,1-.678.626"/>
      </g>
    </g>
    <path id="Path_3145" data-name="Path 3145" class="cls-8" d="M19.663,18.458c0-.036,0-.071,0-.107a2.416,2.416,0,0,0-2.077-2.65,2.416,2.416,0,0,0-2.077,2.65c0,.036,0,.072,0,.107l.712-.281c.059-1.051.647-1.877,1.363-1.877s1.3.826,1.363,1.877Z"/>
    <g id="Group_1373" data-name="Group 1373">
      <g id="Group_1372" data-name="Group 1372">
        <g id="Group_1365" data-name="Group 1365">
          <path id="Path_3146" data-name="Path 3146" class="cls-22" d="M16.249,17.567a.071.071,0,0,0-.048-.088l-.08-.02a.083.083,0,0,0-.1.066c-.014.055-.02.077-.022.086L15.98,17.6c.032-.122.006-.156-.031-.166l-.076-.02a.053.053,0,0,0-.068.04c-.005.016-.011.042-.016.06s-.006.035.013.04l.177.045L16,17.61l.2.051c.015,0,.027-.014.03-.028s.009-.029.019-.066l.026,0-.09.345-.014,0c0-.038.006-.084-.035-.095l-.353-.09c-.042-.011-.063.03-.078.066l-.014,0,.081-.311c.031-.119.094-.216.175-.195s.078.108.074.174c.031-.075.089-.165.173-.143s.111.145.081.257Z"/>
        </g>
        <g id="Group_1366" data-name="Group 1366">
          <path id="Path_3147" data-name="Path 3147" class="cls-22" d="M16.545,16.9c-.06.092-.182.086-.293.015s-.167-.179-.107-.271.182-.085.293-.014.167.178.107.27l.014.009c.116-.177.085-.338-.034-.414s-.279-.038-.4.14-.085.339.033.415.279.037.4-.14Z"/>
        </g>
        <g id="Group_1367" data-name="Group 1367">
          <path id="Path_3148" data-name="Path 3148" class="cls-22" d="M16.847,15.941l.007.013c-.036.026-.067.056-.046.092l.176.306a.049.049,0,0,0,.076.02l.074-.042a.213.213,0,0,0,.108-.225l.025-.014.05.166-.5.284-.007-.013c.035-.026.075-.06.053-.1l-.181-.314c-.021-.037-.062-.025-.1-.008l-.007-.013Z"/>
        </g>
        <g id="Group_1368" data-name="Group 1368">
          <path id="Path_3149" data-name="Path 3149" class="cls-22" d="M17.678,16.181c0,.042.049.054.092.061v.015l-.349-.012V16.23c.043,0,.095-.012.1-.054l.013-.361c0-.042-.05-.054-.092-.061v-.015l.349.012v.015c-.044,0-.095.012-.1.054Z"/>
        </g>
        <g id="Group_1369" data-name="Group 1369">
          <path id="Path_3150" data-name="Path 3150" class="cls-22" d="M18.236,15.933a.07.07,0,0,0-.036-.081l.009-.012.263.183-.009.012c-.035-.022-.09-.058-.1,0l-.032.308.273-.134c.067-.035.012-.068-.025-.095l.009-.012.169.118-.009.012c-.033-.021-.038-.029-.083-.006l-.46.227-.025-.018Z"/>
        </g>
        <g id="Group_1370" data-name="Group 1370">
          <path id="Path_3151" data-name="Path 3151" class="cls-22" d="M18.713,16.91c-.036.023-.018.07,0,.11l-.012.008-.187-.292.012-.008c.027.033.064.071.1.048l.308-.194c.036-.023.017-.071,0-.11l.012-.008.187.292-.012.008c-.028-.034-.064-.071-.1-.048Z"/>
        </g>
        <g id="Group_1371" data-name="Group 1371">
          <path id="Path_3152" data-name="Path 3152" class="cls-22" d="M19.024,17.3l.055.185.146-.145s-.071-.013-.2-.04l-.036-.008c-.022,0-.047-.009-.072-.016-.065-.013-.056.03-.049.085l-.014,0-.056-.189.014,0a.119.119,0,0,0,.081.06l.484.1.01.033s-.016.017-.346.344a.089.089,0,0,0-.038.1l-.014,0-.093-.313.014,0c.026.062.044.1.084.067l.06-.06-.065-.218Z"/>
        </g>
      </g>
    </g>
  </g>
</svg>
