<svg id="bsl" xmlns="http://www.w3.org/2000/svg" viewBox="0 0 35.249 34.939">
  <defs>
    <style>
      .cls-1 {
        fill: #7dab39;
      }

      .cls-2 {
        fill: #f3d601;
      }

      .cls-3 {
        fill: #001d7e;
      }

      .cls-4 {
        fill: #fff;
      }

      .cls-5 {
        fill: #55944c;
      }

      .cls-6 {
        fill: #488038;
      }
    </style>
  </defs>
  <g id="Group_1375" data-name="Group 1375">
    <path id="Path_3153" data-name="Path 3153" class="cls-1" d="M.521,13.274A17.628,17.628,0,0,1,21.858.516a17.475,17.475,0,1,1-8.467,33.908A17.452,17.452,0,0,1,.521,13.274"/>
  </g>
  <path id="Path_3154" data-name="Path 3154" class="cls-2" d="M1.222,17.54l16.272,10.3,16.271-10.3L17.494,7.241Z"/>
  <g id="Group_1376" data-name="Group 1376">
    <path id="Path_3155" data-name="Path 3155" class="cls-3" d="M17.494,10.632a6.909,6.909,0,1,1-6.971,6.909,6.939,6.939,0,0,1,6.971-6.909"/>
    <path id="Path_3156" data-name="Path 3156" class="cls-4" d="M24.427,18.236a16.939,16.939,0,0,0-11.146-3.651,16.61,16.61,0,0,0-2.19.222,6.836,6.836,0,0,0-.362,1.067,16.031,16.031,0,0,1,13.493,3.468,6.745,6.745,0,0,0,.2-1.106"/>
  </g>
  <path id="Path_3157" data-name="Path 3157" class="cls-5" d="M11.43,15.242l.078.163.143.039.125-.076.026-.182-.075-.164-.143-.036-.127.076Zm-.138.023.006-.175.048-.1.08-.073.143-.047.25.058.127.241-.054.267-.223.125-.252-.057Z"/>
  <path id="Path_3158" data-name="Path 3158" class="cls-5" d="M12.355,15.074l.1-.009.123-.019.036-.032.01-.051-.022-.054-.056-.021-.1.007-.1.009Zm-.1.4-.059-.673.286-.025.163,0,.083.057.04.1-.034.128-.129.074.08.05.085.1.1.124-.163.014-.113-.137-.079-.092-.044-.025h-.071l-.028,0,.026.281Z"/>
  <path id="Path_3159" data-name="Path 3159" class="cls-5" d="M13.217,14.842l.012.447.1,0,.084-.008.054-.031.034-.067.012-.123-.018-.119-.042-.065-.064-.03-.113,0Zm-.141-.111.252-.006.129.008.1.06.069.107.026.16-.018.144-.068.121-.1.056-.123.019-.259.007Z"/>
  <path id="Path_3160" data-name="Path 3160" class="cls-5" d="M13.932,15.387l.008-.676.507.008,0,.115-.368-.006v.15l.341.005,0,.115-.341-.006,0,.185.381,0,0,.114Z"/>
  <path id="Path_3161" data-name="Path 3161" class="cls-5" d="M14.723,15.4l.048-.674.2.014.091.469.153-.451.207.014-.048.673-.127-.008.038-.53-.173.521-.131-.009-.1-.541-.037.53Z"/>
  <path id="Path_3162" data-name="Path 3162" class="cls-5" d="M16.085,15.531l.1-.668.5.076-.018.113L16.305,15l-.024.148.34.05-.018.113-.337-.051-.028.182.377.056-.018.114Z"/>
  <path id="Path_3163" data-name="Path 3163" class="cls-5" d="M17.529,15.22l-.044.187.073.017.11.015.05-.024.026-.047-.008-.065-.048-.041-.093-.027Zm-.262.516.155-.658.215.049.157.045.081.087.008.137-.046.1-.071.052-.078.015-.141-.023-.087-.02-.058.249Z"/>
  <path id="Path_3164" data-name="Path 3164" class="cls-5" d="M18.282,15.584l.1.028.121.024.046-.015.028-.046,0-.057-.042-.04-.1-.03-.1-.028Zm-.24.336.187-.65.278.08.147.061.059.084v.11l-.079.109-.147.022.056.075.044.128.046.15-.159-.045-.056-.169-.042-.115-.032-.038-.066-.026-.026-.008-.077.272Z"/>
  <path id="Path_3165" data-name="Path 3165" class="cls-5" d="M19.063,15.873l-.008.181.109.1.145-.014.109-.148.01-.181-.111-.1-.147.01Zm-.135-.043.085-.154.089-.067.1-.028.149.023.2.166v.273l-.169.213-.256.009-.2-.165Z"/>
  <path id="Path_3166" data-name="Path 3166" class="cls-5" d="M20.077,16.345l.044-.106.274.111-.1.249-.145.021-.164-.033-.158-.111-.059-.163.032-.183.113-.156.169-.067.163.032.163.123.028.169L20.3,16.2l-.02-.094-.08-.064-.155,0-.115.136-.018.187.108.11.087.016.084-.008.033-.08Z"/>
  <path id="Path_3167" data-name="Path 3167" class="cls-5" d="M20.81,16.507l.093.044.113.046.048-.01.033-.04.008-.057-.035-.046-.087-.044-.1-.046Zm-.292.3.292-.61.26.123.135.084.045.092-.022.109-.093.095-.149,0,.041.082.024.133.018.155-.149-.07-.026-.175-.022-.121-.026-.043-.06-.036-.024-.012-.124.255Z"/>
  <path id="Path_3168" data-name="Path 3168" class="cls-5" d="M21.269,17.165l.326-.594.443.24-.053.1-.326-.173-.072.132.3.161-.055.1-.3-.161-.088.161.334.18-.054.1Z"/>
  <path id="Path_3169" data-name="Path 3169" class="cls-5" d="M22.044,17.338l.122.057-.01.11.067.078.1.027.063-.038.01-.043-.028-.05-.079-.081-.1-.137.018-.148.076-.069.107-.014.127.048.135.147-.017.164-.121-.066.007-.084-.063-.065-.093-.028-.04.026,0,.045.085.1.1.118.027.1-.031.106-.084.078-.119.015-.14-.055-.138-.152Z"/>
  <path id="Path_3170" data-name="Path 3170" class="cls-5" d="M22.726,17.755l.119.064-.016.107.066.082.1.033L23.058,18l.012-.04-.024-.052-.076-.086-.091-.142.026-.147.079-.065.11-.009.123.056.127.154-.026.161-.117-.071.01-.084-.058-.067-.091-.031-.044.02-.006.047.08.107.1.122.024.1-.038.1-.089.072-.118.012-.137-.063-.131-.159Z"/>
  <path id="Path_3171" data-name="Path 3171" class="cls-5" d="M23.577,18.2l-.062.173.072.127.143.035.151-.109.064-.169-.075-.127-.143-.036Zm-.116-.081L23.592,18l.1-.036.107,0,.135.067.135.218-.085.26-.227.15-.249-.069-.135-.219Z"/>
  <path id="Path_3172" data-name="Path 3172" class="cls-4" d="M19.706,14.918l.065.2h.207l-.167.121.063.194-.168-.12-.168.12.066-.194-.167-.121h.207Z"/>
  <path id="Path_3173" data-name="Path 3173" class="cls-4" d="M17.521,20.5l.064.195h.207l-.167.12.063.2-.167-.121-.166.121.063-.2-.167-.12h.207Z"/>
  <path id="Path_3174" data-name="Path 3174" class="cls-4" d="M22.468,19.813l.065.2h.211l-.171.122.066.2-.171-.122-.169.122.063-.2-.169-.122H22.4Z"/>
  <path id="Path_3175" data-name="Path 3175" class="cls-4" d="M23.444,19.978l.041.126h.135l-.109.079.042.127-.109-.077-.108.077.04-.127-.107-.079H23.4Z"/>
  <path id="Path_3176" data-name="Path 3176" class="cls-4" d="M22.75,20.472l.057.172h.183l-.149.106.058.172-.149-.106-.147.106.058-.172-.15-.106h.183Z"/>
  <path id="Path_3177" data-name="Path 3177" class="cls-4" d="M22.315,21.042l.055.169h.179l-.143.1.056.17-.147-.1-.143.1.056-.17-.148-.1h.181Z"/>
  <path id="Path_3178" data-name="Path 3178" class="cls-4" d="M21.756,21.456l.044.129h.137l-.111.082.043.13-.113-.081-.111.081.042-.13-.112-.082h.139Z"/>
  <path id="Path_3179" data-name="Path 3179" class="cls-4" d="M21.023,21.316l.044.129H21.2l-.11.079.042.129-.111-.079-.109.079.041-.129-.109-.079h.137Z"/>
  <path id="Path_3180" data-name="Path 3180" class="cls-4" d="M20.234,21.553l.046.14h.147l-.119.086.046.139-.12-.087-.119.087.045-.139-.119-.086h.147Z"/>
  <path id="Path_3181" data-name="Path 3181" class="cls-4" d="M21.037,22.694l.042.132h.139l-.112.079.044.132-.113-.081-.114.081.044-.132-.111-.079h.137Z"/>
  <path id="Path_3182" data-name="Path 3182" class="cls-4" d="M19.614,22.093l.057.177h.189l-.153.111.06.177-.153-.111-.153.111.06-.177-.153-.111h.188Z"/>
  <path id="Path_3183" data-name="Path 3183" class="cls-4" d="M19.067,21.372l.046.136h.145l-.117.082.046.137-.12-.083-.115.083L19,21.59l-.115-.082h.143Z"/>
  <path id="Path_3184" data-name="Path 3184" class="cls-4" d="M21.059,21.937l.057.172H21.3l-.149.107.056.172-.147-.106-.147.106.055-.172-.147-.107H21Z"/>
  <path id="Path_3185" data-name="Path 3185" class="cls-4" d="M17.514,23.047l.019.063H17.6l-.054.039.02.061-.051-.038-.054.038.02-.061-.052-.039h.066Z"/>
  <path id="Path_3186" data-name="Path 3186" class="cls-4" d="M19.362,17.02l.048.142h.148l-.121.087.048.141-.123-.086-.12.086.046-.141-.121-.087h.149Z"/>
  <path id="Path_3187" data-name="Path 3187" class="cls-4" d="M17.517,18.543l.05.15h.159l-.129.091.05.15-.13-.093-.127.093.05-.15-.129-.091h.159Z"/>
  <path id="Path_3188" data-name="Path 3188" class="cls-4" d="M18.336,19.171l.052.16h.171l-.137.1.053.16-.139-.1-.137.1.054-.16-.139-.1h.17Z"/>
  <path id="Path_3189" data-name="Path 3189" class="cls-4" d="M16.81,19.193l.04.126h.135l-.109.077.041.128-.107-.079-.109.079.041-.128-.109-.077h.133Z"/>
  <path id="Path_3190" data-name="Path 3190" class="cls-4" d="M17.148,19.761l.028.086h.089l-.073.051.027.084-.071-.052-.072.052L17.1,19.9l-.072-.051h.088Z"/>
  <path id="Path_3191" data-name="Path 3191" class="cls-4" d="M11.735,16.122l.063.2h.207l-.167.119.064.2-.167-.121-.167.121.063-.2-.167-.119h.207Z"/>
  <path id="Path_3192" data-name="Path 3192" class="cls-4" d="M14.783,17.69l.052.161h.171l-.138.1.054.162-.139-.1-.139.1.056-.162-.139-.1h.17Z"/>
  <path id="Path_3193" data-name="Path 3193" class="cls-4" d="M12.367,19.056l.063.2h.207l-.167.122.063.195-.166-.122-.169.122.063-.195-.167-.122H12.3Z"/>
  <path id="Path_3194" data-name="Path 3194" class="cls-4" d="M13.05,18.765l.032.1h.1l-.083.06.032.1-.084-.059-.083.059.031-.1-.083-.06h.1Z"/>
  <path id="Path_3195" data-name="Path 3195" class="cls-4" d="M13.845,19.792l.054.166h.177l-.144.1.054.166-.141-.1-.145.1.056-.166-.144-.1h.177Z"/>
  <path id="Path_3196" data-name="Path 3196" class="cls-4" d="M14.674,21.076l.063.195h.207l-.167.121.064.194-.167-.12-.167.12.063-.194-.167-.121h.207Z"/>
  <path id="Path_3197" data-name="Path 3197" class="cls-4" d="M13.615,20.489l.055.166h.175l-.141.1.054.166-.143-.1-.141.1.053-.166-.143-.1h.177Z"/>
  <path id="Path_3198" data-name="Path 3198" class="cls-4" d="M11.492,19.766l.042.129h.137l-.111.08.043.129-.111-.078-.111.078.041-.129-.111-.08h.137Z"/>
  <path id="Path_3199" data-name="Path 3199" class="cls-6" d="M18.229,15.27l-.187.65.133.039.077-.272.026.008.066.026.032.038.042.115.056.169.159.045-.046-.15-.043-.128-.056-.075.147-.022.079-.109v-.11l-.059-.084-.147-.061Zm.272.366-.121-.024-.1-.027.05-.166.1.029.1.03.042.04,0,.057-.028.046Z"/>
  <path id="Path_3200" data-name="Path 3200" class="cls-6" d="M19.207,15.581l-.1.028-.089.067-.085.154v.27l.2.163.256-.009.169-.213V15.77l-.2-.166Zm-.042.575-.109-.1.008-.181.107-.149.147-.01.111.1-.01.181-.109.148Z"/>
  <path id="Path_3201" data-name="Path 3201" class="cls-6" d="M20.081,15.907l-.169.067-.113.156-.032.183.06.163.157.111.164.033.146-.021.1-.249-.274-.111-.044.106.147.059-.033.08-.084.008-.087-.016-.108-.11.018-.187.115-.136.155,0,.08.064.02.094.135.028-.028-.169-.163-.123Z"/>
  <path id="Path_3202" data-name="Path 3202" class="cls-6" d="M20.81,16.192l-.292.61.123.059.124-.255.024.012.06.036.025.043.022.121.026.175.149.07-.018-.155-.024-.133-.041-.082.149,0,.093-.095.022-.109-.046-.091-.135-.084Zm.207.405-.113-.046-.093-.044.074-.154.1.046.087.044.035.046-.008.057-.033.04Z"/>
  <path id="Path_3203" data-name="Path 3203" class="cls-6" d="M21.595,16.571l-.326.594.457.245.054-.1-.334-.18.088-.161.3.161.055-.1-.3-.161.072-.132.326.173.053-.1Z"/>
  <path id="Path_3204" data-name="Path 3204" class="cls-6" d="M22.394,17.03l-.107.014-.076.069-.018.148.1.137.079.081.028.05-.01.043-.063.038-.1-.027-.067-.078.01-.11-.122-.057-.019.19.138.152.14.055.119-.015.084-.078.031-.106-.027-.1-.1-.118-.085-.1,0-.045.04-.026.093.028.063.065-.007.084.121.066.017-.164-.135-.146Z"/>
  <path id="Path_3205" data-name="Path 3205" class="cls-6" d="M23.094,17.464l-.11.009-.079.065-.026.147.091.142.076.086.024.052-.012.04-.064.036-.1-.033-.066-.082.016-.107-.119-.064-.028.189.131.159.137.063.118-.012.089-.072.038-.1-.024-.1-.1-.122-.08-.107.006-.047.044-.02.091.031.058.067-.01.084.117.071.026-.162-.127-.153Z"/>
  <path id="Path_3206" data-name="Path 3206" class="cls-6" d="M23.7,17.961l-.1.036-.131.118-.081.256.135.219.249.069.226-.15.086-.26-.135-.218-.135-.067Zm.031.57-.143-.035-.072-.127.062-.173.149-.107.143.036.075.127-.064.169Z"/>
</svg>
