<svg id="bsf" xmlns="http://www.w3.org/2000/svg" viewBox="0 0 35.175 34.867">
  <defs>
    <style>
      .cls-1 {
        fill: #c33c18;
      }

      .cls-2 {
        fill: #f3d601;
      }

      .cls-3 {
        fill: #034a89;
      }

      .cls-4 {
        fill: #fff;
      }
    </style>
  </defs>
  <path id="Path_3528" data-name="Path 3528" class="cls-1" d="M.52,13.246a17.575,17.575,0,0,1,34.136,8.375A17.593,17.593,0,0,1,13.363,34.353,17.418,17.418,0,0,1,.52,13.246"/>
  <path id="Path_3529" data-name="Path 3529" class="cls-2" d="M1.025,11.579H34.15a17.636,17.636,0,0,0-33.125,0"/>
  <path id="Path_3530" data-name="Path 3530" class="cls-3" d="M34.795,21.017c.008-.037.016-.074.023-.111l.039-.194c.007-.038.014-.075.022-.113q.02-.1.036-.2l.018-.1c.014-.084.027-.167.04-.251,0-.016.005-.033.008-.05.015-.1.029-.2.043-.3,0-.027.007-.053.01-.08.009-.074.019-.148.027-.222l.012-.1c.007-.066.014-.132.02-.2,0-.037.007-.073.01-.11.006-.067.012-.134.017-.2,0-.034.005-.068.008-.1.006-.077.01-.153.015-.23,0-.023,0-.047,0-.07.006-.1.01-.2.014-.3,0-.016,0-.033,0-.049,0-.083.006-.167.007-.25,0-.032,0-.063,0-.095,0-.069,0-.137,0-.206v-.1c0-.067,0-.134,0-.2,0-.033,0-.066,0-.1,0-.074,0-.147-.006-.221,0-.026,0-.051,0-.077q-.012-.3-.033-.6l-.006-.078-.018-.218-.009-.1c-.007-.068-.013-.137-.021-.2,0-.031-.007-.062-.01-.094-.008-.072-.017-.145-.026-.217l-.009-.076c-.026-.2-.055-.394-.088-.59l-.009-.053q-.02-.119-.042-.237l-.015-.081c-.013-.071-.027-.141-.041-.212-.006-.028-.011-.056-.017-.084-.015-.072-.031-.145-.046-.217-.005-.024-.01-.048-.016-.072-.02-.088-.04-.177-.062-.265l-.005-.02q-.033-.138-.069-.276h0q-.2-.766-.468-1.509H1.025q-.291.813-.506,1.668a17.222,17.222,0,0,0-.3,6.923c0,.01,0,.02,0,.03.013.082.027.163.042.245l.009.052c.014.076.028.152.043.228,0,.023.009.045.013.068.014.072.029.143.044.215l.018.081.045.2c.007.032.015.063.022.095l.045.19c.012.048.024.1.037.143.018.072.037.143.056.214s.038.141.058.211l.027.093c.019.066.039.133.059.2.009.031.019.062.029.093.02.066.041.132.062.2l.03.091.066.2c.01.03.021.059.031.089.023.066.047.133.071.2.006.015.011.031.016.046h0c.015.041.029.082.045.123H34.082l.044-.123h0c.037-.1.072-.2.107-.308,0-.01.007-.02.01-.03.046-.135.09-.27.132-.406l.018-.057c.039-.127.077-.256.113-.384l.024-.081c.043-.153.084-.307.122-.463.025-.1.049-.2.072-.3.008-.032.014-.064.022-.1.017-.067.033-.136.047-.205"/>
  <g id="Group_1423" data-name="Group 1423">
    <g id="Group_1416" data-name="Group 1416">
      <path id="Path_3531" data-name="Path 3531" class="cls-4" d="M8.744,20.322H9.908l-.938.7.364,1.106L8.4,21.444l-.934.681.368-1.106-.946-.7h1.16L8.4,19.245Z"/>
    </g>
    <g id="Group_1417" data-name="Group 1417">
      <path id="Path_3532" data-name="Path 3532" class="cls-4" d="M27.123,20.322h1.164l-.938.7.364,1.106-.934-.681-.933.681.368-1.106-.946-.7h1.16l.351-1.077Z"/>
    </g>
    <g id="Group_1418" data-name="Group 1418">
      <path id="Path_3533" data-name="Path 3533" class="cls-4" d="M17.763,13.82h1.164l-.938.7.364,1.106-.934-.681-.933.681.367-1.106-.945-.7h1.16l.351-1.077Z"/>
    </g>
    <g id="Group_1419" data-name="Group 1419">
      <path id="Path_3534" data-name="Path 3534" class="cls-4" d="M13.5,14.445l1.007-.577-.46,1.068.873.778-1.152-.127-.465,1.052-.239-1.14L11.9,15.364l1-.575-.239-1.107Z"/>
    </g>
    <g id="Group_1420" data-name="Group 1420">
      <path id="Path_3535" data-name="Path 3535" class="cls-4" d="M10.082,16.548l.582-1L10.8,16.7l1.148.24L10.89,17.4l.128,1.142-.782-.869-1.082.464.58-1L8.968,16.3Z"/>
    </g>
    <g id="Group_1421" data-name="Group 1421">
      <path id="Path_3536" data-name="Path 3536" class="cls-4" d="M21.332,14.445l-1.008-.577.46,1.068-.872.778,1.152-.127.464,1.052.239-1.14,1.171-.135-1-.575.239-1.107Z"/>
    </g>
    <g id="Group_1422" data-name="Group 1422">
      <path id="Path_3537" data-name="Path 3537" class="cls-4" d="M24.753,16.548l-.582-1L24.03,16.7l-1.147.24,1.061.461-.128,1.142.782-.869,1.082.464-.58-1,.766-.841Z"/>
    </g>
  </g>
</svg>
