<svg id="cny" xmlns="http://www.w3.org/2000/svg" viewBox="0 0 35.175 34.867">
  <defs>
    <style>
      .cls-1 {
        fill: #c33c18;
      }

      .cls-2 {
        fill: #f3d601;
      }
    </style>
  </defs>
  <g id="Group_1379" data-name="Group 1379">
    <path id="Path_3214" data-name="Path 3214" class="cls-1" d="M.52,13.246A17.591,17.591,0,0,1,21.812.515a17.439,17.439,0,1,1-8.449,33.838A17.418,17.418,0,0,1,.52,13.246"/>
  </g>
  <path id="Path_3215" data-name="Path 3215" class="cls-2" d="M18.7,16.874l-.822.985-1.2-.474.685,1.08-.822.982,1.25-.315.688,1.08.081-1.275,1.25-.315-1.2-.473Zm4.766-2.68H22.179l-.394-1.214-.4,1.216H20.1l1.04.75-.4,1.215,1.043-.75,1.041.751-.4-1.216Zm-2.1-4.676.2,1.262.591-1.138,1.27.2-.909-.9L23.1,7.805l-1.15.578-.906-.9.2,1.26L20.1,9.316ZM18.71,3.67l-.822.984-1.194-.471.685,1.077-.822.983L17.8,5.927l.688,1.08.084-1.275,1.248-.315L18.63,4.946ZM9.72,9.285,8.512,5.6,7.3,9.285H3.387l3.167,2.282L5.346,15.258l3.166-2.282,3.164,2.282-1.208-3.691,3.166-2.282Z"/>
</svg>
