<svg id="Eur" xmlns="http://www.w3.org/2000/svg" viewBox="0 0 35.175 34.867">
  <defs>
    <style>
      .cls-1 {
        fill: #006baf;
      }

      .cls-2 {
        fill: #f3d601;
      }
    </style>
  </defs>
  <g id="Group_1319" data-name="Group 1319">
    <path id="Path_2862" data-name="Path 2862" class="cls-1" d="M.52,13.246A17.591,17.591,0,0,1,21.812.515a17.439,17.439,0,1,1-8.449,33.838A17.418,17.418,0,0,1,.52,13.246"/>
  </g>
  <path id="Path_2863" data-name="Path 2863" class="cls-2" d="M6.371,23.65l-.452-1.373L5.47,23.653H4.015l1.178.849-.449,1.37,1.178-.849,1.178.848L6.648,24.5l1.175-.848H6.371ZM4.162,18.573l1.181.846-.455-1.37L6.063,17.2l-1.455,0-.455-1.369L3.707,17.2l-1.455.006,1.181.843-.446,1.372Zm20.55,10.034-.446-1.372-.455,1.37L22.359,28.6l1.175.852-.457,1.373,1.181-.846,1.175.852-.446-1.372,1.181-.846Zm-13.376.032-.449-1.369-.449,1.372-1.455,0,1.178.846-.446,1.372,1.175-.852,1.178.846-.452-1.37,1.175-.849H11.336Zm6.8,1.779-.452-1.369-.449,1.375H15.782l1.175.849-.443,1.37,1.175-.849,1.181.843-.454-1.37,1.172-.849H18.135Zm11.533-6.759-.452-1.369-.449,1.369-1.455,0,1.181.846-.449,1.373,1.175-.849,1.178.846-.452-1.37,1.178-.852Zm3.215-6.479-1.455-.006L30.985,15.8l-.458,1.37-1.455-.006,1.175.852-.454,1.37,1.18-.843,1.175.854L31.7,18.024Zm-4.951-4.53,1.175-.848,1.178.848-.451-1.369,1.178-.852-1.455,0L29.1,9.057l-.449,1.375H27.2l1.181.849ZM24.343,4.269,23.9,5.638l-1.455,0,1.181.846L23.174,7.86l1.175-.846,1.178.843-.452-1.37,1.175-.852-1.452,0Zm-19.7,8.486,1.175-.849,1.178.846L6.542,11.38l1.178-.849H6.264L5.813,9.162l-.449,1.372-1.455,0,1.178.846ZM9.6,7.839l1.178-.849,1.175.846-.449-1.373,1.175-.848H11.23l-.452-1.37-.449,1.372H8.874l1.178.846Zm6.787-1.8,1.178-.849,1.178.849L18.3,4.67l1.175-.846H18.017l-.449-1.372-.449,1.372H15.664l1.175.846Z"/>
</svg>
