<svg id="mex" xmlns="http://www.w3.org/2000/svg" viewBox="0 0 35.174 34.869">
  <defs>
    <style>
      .cls-1 {
        fill: #c33c18;
      }

      .cls-2 {
        fill: #329542;
      }

      .cls-3 {
        fill: #f7f7f8;
      }

      .cls-4 {
        fill: #008ecd;
      }

      .cls-10, .cls-11, .cls-13, .cls-14, .cls-15, .cls-4, .cls-5, .cls-6, .cls-7, .cls-8, .cls-9 {
        stroke: #000;
        stroke-width: 0.125px;
      }

      .cls-5 {
        fill: #eac000;
      }

      .cls-6 {
        fill: none;
      }

      .cls-7 {
        fill: #fff;
      }

      .cls-8 {
        fill: #786528;
      }

      .cls-9 {
        fill: #b97a0b;
      }

      .cls-10 {
        fill: #007948;
      }

      .cls-11 {
        fill: #be0024;
      }

      .cls-12, .cls-15 {
        fill: #71912f;
      }

      .cls-12 {
        stroke: #bbc65f;
        stroke-width: 0.063px;
      }

      .cls-13 {
        fill: #9c681e;
      }

      .cls-14 {
        fill: #e6b986;
      }
    </style>
  </defs>
  <path id="Path_3222" data-name="Path 3222" class="cls-1" d="M13.363,34.353A17.439,17.439,0,1,1,21.811.514a17.439,17.439,0,1,1-8.448,33.839"/>
  <path id="Path_3223" data-name="Path 3223" class="cls-2" d="M11.681,33.852V1.016a17.383,17.383,0,0,0,0,32.836"/>
  <path id="Path_3224" data-name="Path 3224" class="cls-3" d="M21.2.377,21.09.354l-.2-.039L20.78.294l-.2-.036-.1-.018L20.222.2l-.05-.008-.3-.042L19.787.14,19.564.113,19.458.1l-.2-.02-.111-.01-.2-.017-.1-.008c-.077-.006-.155-.01-.232-.015l-.07,0c-.1-.006-.2-.01-.305-.014l-.05,0L17.933,0h-.1l-.208,0h-.1l-.2,0-.1,0L17,.011l-.077,0q-.3.01-.6.033L16.24.053l-.22.018-.1.009q-.1.009-.207.021l-.094.01L15.4.137l-.077.009q-.3.039-.6.087l-.053.009c-.08.013-.16.027-.239.042L14.357.3,14.143.34l-.085.017L13.839.4l-.073.016L13.5.48l-.02,0q-.14.033-.279.069h0q-.773.2-1.522.464V33.854q.819.288,1.682.5a17.688,17.688,0,0,0,6.984.3l.03-.005.247-.041.052-.009.23-.042.069-.013.217-.044.082-.017c.069-.015.137-.029.2-.045l.095-.022.192-.045.145-.036.216-.056.213-.058.093-.027.2-.058.094-.029.2-.062.092-.03.2-.066.09-.031.2-.07.047-.017h0l.124-.044V1.083l-.124-.043v0c-.1-.037-.207-.071-.311-.106l-.03-.01C23.076.877,22.94.833,22.8.791L22.745.773C22.617.734,22.487.7,22.357.661L22.275.638C22.12.6,21.965.555,21.808.517c-.1-.025-.2-.049-.3-.072l-.1-.021c-.066-.018-.135-.033-.2-.047"/>
  <g id="Group_1415" data-name="Group 1415">
    <g id="Group_1384" data-name="Group 1384">
      <path id="Path_3225" data-name="Path 3225" class="cls-4" d="M16.725,19.5c-.39.108-.559-.2-.62-.425-.043.2-.039.314-.195.271s-.637-.258-.754-.3-.143.06.048.159.369.211.373.279-.165.155-.225.185a3.7,3.7,0,0,1,.707.082c.191.043.2.172-.108.378.793-.086.763.3,1.166.292.3,0,.62,0,.754,0,.364-.013.095-.159.447-.245.246-.06.494-.146.685-.206-.195-.043-.3-.09-.3-.133a2.714,2.714,0,0,1,.577-.266.8.8,0,0,0-.421.009,2.652,2.652,0,0,1-.95.056A4.047,4.047,0,0,1,16.725,19.5Z"/>
      <g id="Group_1381" data-name="Group 1381">
        <path id="Path_3226" data-name="Path 3226" class="cls-5" d="M18.1,20.222a.137.137,0,0,0,.217,0,.132.132,0,0,0-.039-.189.646.646,0,0,0,0-.434.132.132,0,0,0,.039-.189.135.135,0,0,0-.217,0,5.09,5.09,0,0,0-1.3,0,.137.137,0,0,0-.217,0,.132.132,0,0,0,.039.189.646.646,0,0,0,0,.434.132.132,0,0,0-.039.189.135.135,0,0,0,.217,0A2.652,2.652,0,0,0,18.1,20.222Z"/>
        <g id="Group_1380" data-name="Group 1380">
          <path id="Path_3227" data-name="Path 3227" class="cls-6" d="M16.706,20.08c.076-.043.158.053.093.142"/>
          <path id="Path_3228" data-name="Path 3228" class="cls-6" d="M16.8,19.4c.064.089-.017.185-.093.142"/>
          <path id="Path_3229" data-name="Path 3229" class="cls-6" d="M18.193,20.08c-.076-.043-.158.053-.093.142"/>
          <path id="Path_3230" data-name="Path 3230" class="cls-6" d="M18.1,19.4c-.064.089.017.185.093.142"/>
          <path id="Path_3231" data-name="Path 3231" class="cls-6" d="M16.825,19.4c.282-.017.369.924.676.907"/>
          <path id="Path_3232" data-name="Path 3232" class="cls-6" d="M17.011,19.376c.29-.021.421.963.746.915"/>
          <path id="Path_3233" data-name="Path 3233" class="cls-6" d="M17.215,19.367c.29-.021.447.95.733.894"/>
        </g>
      </g>
      <g id="Group_1382" data-name="Group 1382">
        <path id="Path_3234" data-name="Path 3234" class="cls-7" d="M15.373,19.529a.13.13,0,1,0,0,.259A.13.13,0,1,0,15.373,19.529Z"/>
        <path id="Path_3235" data-name="Path 3235" class="cls-7" d="M16.066,18.962a.129.129,0,1,0,0,.258A.129.129,0,1,0,16.066,18.962Z"/>
        <path id="Path_3236" data-name="Path 3236" class="cls-7" d="M18.936,19.856a.13.13,0,1,0,0,.259A.13.13,0,1,0,18.936,19.856Z"/>
      </g>
      <g id="Group_1383" data-name="Group 1383">
        <path id="Path_3237" data-name="Path 3237" class="cls-8" d="M15.134,18.946a.231.231,0,0,0-.273.026c-.039.06.061.176.165.223a.194.194,0,0,0,.23-.034C15.286,19.118,15.256,19.006,15.134,18.946Z"/>
        <path id="Path_3238" data-name="Path 3238" class="cls-8" d="M15.911,19.98c-.113.036-.192.137-.178.207s.167.084.275.046a.172.172,0,0,0,.127-.188C16.11,19.973,16.041,19.939,15.911,19.98Z"/>
        <path id="Path_3239" data-name="Path 3239" class="cls-8" d="M19.227,19.706c.114-.033.24-.149.212-.215-.035-.082-.177-.066-.286-.03s-.165.123-.148.173C19.029,19.708,19.1,19.744,19.227,19.706Z"/>
      </g>
    </g>
    <g id="Group_1387" data-name="Group 1387">
      <g id="Group_1385" data-name="Group 1385">
        <path id="Path_3240" data-name="Path 3240" class="cls-9" d="M19.549,20.4a.436.436,0,0,0-.078-.254.079.079,0,0,0,.034-.14.1.1,0,0,0-.124.013.087.087,0,0,0,.043.127c.008.053.06.239.016.313a.647.647,0,0,1,.282.089c-.021.062.051.109.084.1a.1.1,0,0,0,.079-.1.08.08,0,0,0-.137-.049C19.722,20.468,19.6,20.423,19.549,20.4Z"/>
        <path id="Path_3241" data-name="Path 3241" class="cls-9" d="M20.771,19.406a.441.441,0,0,0-.157-.216.078.078,0,0,0-.014-.143.1.1,0,0,0-.113.052c-.012.03.016.111.082.106.025.048.135.207.116.292a.647.647,0,0,1,.3,0c0,.065.084.087.113.073a.1.1,0,0,0,.044-.116.079.079,0,0,0-.145,0A.506.506,0,0,0,20.771,19.406Z"/>
        <path id="Path_3242" data-name="Path 3242" class="cls-9" d="M21.456,18.068a.542.542,0,0,0-.186-.148.079.079,0,0,0-.079-.121.093.093,0,0,0-.076.1.089.089,0,0,0,.122.057.611.611,0,0,1,.185.233.613.613,0,0,1,.279-.107.088.088,0,0,0,.134.013.092.092,0,0,0-.015-.122.08.08,0,0,0-.13.065A.528.528,0,0,0,21.456,18.068Z"/>
      </g>
      <g id="Group_1386" data-name="Group 1386">
        <path id="Path_3243" data-name="Path 3243" class="cls-10" d="M21.388,18.224a.668.668,0,0,0-.067-.559c-.134-.193,0-.438-.065-.559a1.694,1.694,0,0,1,.29.387c.065-.125.234-.383.369-.421a.9.9,0,0,0,.03.262c.03.133-.123.328-.251.443a.567.567,0,0,0-.254.483"/>
        <path id="Path_3244" data-name="Path 3244" class="cls-10" d="M21.421,18.2c.069-.494-.069-1.089.178-1.287a.75.75,0,0,1,.074.765A1.134,1.134,0,0,0,21.421,18.2Z"/>
        <path id="Path_3245" data-name="Path 3245" class="cls-10" d="M20.528,19.595c.169-.142.3-.241.264-.507-.046-.353.052-.765.373-.829a2.018,2.018,0,0,1,.026.46.711.711,0,0,1,.512-.305c-.208.2-.277.679-.533.782a1.463,1.463,0,0,0-.59.473"/>
        <path id="Path_3246" data-name="Path 3246" class="cls-10" d="M20.649,19.539a.839.839,0,0,0,.238-.5,1.3,1.3,0,0,1,.553-.915,1.1,1.1,0,0,1-.245.838C20.991,19.212,20.723,19.453,20.649,19.539Z"/>
        <path id="Path_3247" data-name="Path 3247" class="cls-10" d="M19.4,20.463a.66.66,0,0,0,.338-.383c.134-.383.525-.533.538-.692a.844.844,0,0,1-.048.524,1.018,1.018,0,0,1,.473-.189c-.087.172,0,.4-.334.5s-.481-.052-.98.3"/>
        <path id="Path_3248" data-name="Path 3248" class="cls-10" d="M19.405,20.48a4.869,4.869,0,0,0,.6-.584,1.065,1.065,0,0,1,.711-.421,1.252,1.252,0,0,1-.8.761A1.491,1.491,0,0,0,19.405,20.48Z"/>
        <path id="Path_3249" data-name="Path 3249" class="cls-10" d="M18.1,20.742c.329-.06.408-.533,1.067-.447-.095.086-.173.309-.312.387a1.789,1.789,0,0,1,.555.172c-.182-.026-.6.3-.945.137S18.173,20.8,18.1,20.742Z"/>
        <path id="Path_3250" data-name="Path 3250" class="cls-10" d="M18.26,20.888a1.175,1.175,0,0,0,1.24-.464,1.753,1.753,0,0,0-.858.2.864.864,0,0,1-.538.069,1.761,1.761,0,0,0-1.4.266c-.035.021.042.11.091.073A1.293,1.293,0,0,1,18.26,20.888Z"/>
      </g>
    </g>
    <g id="Group_1390" data-name="Group 1390">
      <g id="Group_1388" data-name="Group 1388">
        <path id="Path_3251" data-name="Path 3251" class="cls-9" d="M15.347,20.424a.721.721,0,0,0-.052-.254c-.03-.06-.048-.2.013-.2s.1.095.078.176a.479.479,0,0,0,.056.335"/>
        <path id="Path_3252" data-name="Path 3252" class="cls-9" d="M15.31,20.13c-.08-.028-.1.011-.072.073a.109.109,0,0,0,.184.03c.052-.084.017-.133-.017-.116A.149.149,0,0,1,15.31,20.13Z"/>
        <path id="Path_3253" data-name="Path 3253" class="cls-9" d="M15.326,20.451a.709.709,0,0,1-.26.019c-.067-.013-.2.008-.193.067s.12.074.192.027a.49.49,0,0,1,.341-.037"/>
        <path id="Path_3254" data-name="Path 3254" class="cls-9" d="M15.031,20.5c-.049-.069-.017-.1.051-.088a.108.108,0,0,1,.079.168c-.068.072-.125.053-.117.015A.142.142,0,0,0,15.031,20.5Z"/>
        <path id="Path_3255" data-name="Path 3255" class="cls-9" d="M14.128,19.4a.75.75,0,0,0,.012-.269c-.015-.066,0-.2.062-.193s.078.117.033.19a.48.48,0,0,0-.018.34"/>
        <path id="Path_3256" data-name="Path 3256" class="cls-9" d="M14.166,19.09c-.071-.046-.1-.014-.087.054a.108.108,0,0,0,.171.073c.071-.069.049-.125.012-.117A.135.135,0,0,1,14.166,19.09Z"/>
        <path id="Path_3257" data-name="Path 3257" class="cls-9" d="M14.128,19.41a.784.784,0,0,1-.268-.019c-.064-.024-.2-.027-.2.033s.106.093.185.059a.623.623,0,0,1,.388.028"/>
        <path id="Path_3258" data-name="Path 3258" class="cls-9" d="M13.821,19.41c-.036-.076,0-.1.066-.078a.107.107,0,0,1,.049.179c-.079.06-.132.031-.118,0A.138.138,0,0,0,13.821,19.41Z"/>
        <path id="Path_3259" data-name="Path 3259" class="cls-9" d="M13.378,18.084a.916.916,0,0,0,.138-.25c.013-.066.084-.185.135-.152s.024.138-.047.187a.7.7,0,0,0-.191.366"/>
        <path id="Path_3260" data-name="Path 3260" class="cls-9" d="M13.554,17.811c-.046-.071-.088-.054-.1.014-.018.09.061.161.127.136.093-.035.1-.095.058-.1A.145.145,0,0,1,13.554,17.811Z"/>
        <path id="Path_3261" data-name="Path 3261" class="cls-9" d="M13.341,18.084a.769.769,0,0,1-.221-.151c-.043-.052-.162-.125-.191-.072s.044.133.129.143a.621.621,0,0,1,.321.218"/>
        <path id="Path_3262" data-name="Path 3262" class="cls-9" d="M13.076,17.93c.008-.084.053-.088.1-.034a.107.107,0,0,1-.049.179c-.1.012-.129-.04-.1-.064A.146.146,0,0,0,13.076,17.93Z"/>
      </g>
      <g id="Group_1389" data-name="Group 1389">
        <path id="Path_3263" data-name="Path 3263" class="cls-10" d="M13.448,18.383c-.013-.163-.156-.546-.091-.619s.063-.088.017-.122,0-.1.072-.129c.1-.039.147-.123.069-.118-.128.009-.2-.013-.128-.056.092-.052.192-.118.171-.193-.009-.032-.052-.041-.1-.024s-.1-.011-.039-.049c.072-.049.015-.1.067-.133s.033-.082,0-.077-.113.088-.145.049-.073-.081-.11,0c-.054.11.013.178-.022.23s-.08.069-.124.013-.106-.039-.111.03a.261.261,0,0,0,.074.176c.046.064.037.114-.045.075s-.121-.039-.126.026.03.088.134.135.122.061.13.114c.015.095.108.077.139.2a1.824,1.824,0,0,1,.1.509"/>
        <path id="Path_3264" data-name="Path 3264" class="cls-10" d="M14.38,19.526c-.292-.153-.4-.275-.408-.438-.007-.137,0-.2.043-.258s.022-.116-.039-.064-.121.034-.108-.056.052-.206.017-.275-.114-.067-.134.026c-.009.039-.039.082-.082.082s-.039-.095-.022-.155-.039-.1-.069-.052-.1.1-.13.026-.1-.034-.089.017c-.074-.026-.082.031-.056.064s.048.086,0,.075-.141-.043-.124.028.173.122.273.142.106.065.061.08a.266.266,0,0,1-.143,0c-.069-.011-.082.043-.028.1a.493.493,0,0,0,.262.082c.1.011.113.088.067.086s-.132-.032-.139.013.115.095.206.086.1.012.121.036a1.46,1.46,0,0,0,.5.421"/>
        <path id="Path_3265" data-name="Path 3265" class="cls-10" d="M15.568,20.519a.669.669,0,0,1-.464-.481c-.009-.138-.041-.1-.061-.069s-.082.076-.108-.03c-.033-.131-.011-.243-.063-.3s-.108-.086-.137.024-.091.049-.089-.043,0-.181-.037-.221-.072-.039-.072.049-.039.1-.082.024-.111-.125-.106-.037.041.165-.035.163-.137.011-.074.069a.286.286,0,0,0,.15.08.04.04,0,0,1,0,.079.158.158,0,0,1-.128-.011c-.039-.017-.1.006-.041.075a.348.348,0,0,0,.273.1c.119,0,.16.052.089.09a.276.276,0,0,1-.2.03c-.078-.013-.093.052.015.116a.355.355,0,0,0,.31.017c.1-.032.1,0,.087.034s-.009.073.078.047a.28.28,0,0,1,.277.017,3.054,3.054,0,0,0,.349.245"/>
        <path id="Path_3266" data-name="Path 3266" class="cls-10" d="M18.152,21A1.668,1.668,0,0,0,16.8,20.66c-.095.026-.16.056-.217-.039s-.085-.056-.108-.026-.091.03-.147-.069-.1-.131-.173-.125-.093.043-.056.107,0,.114-.056.054-.141-.142-.208-.14-.132.011-.089.075.043.133-.035.073a.264.264,0,0,0-.208-.079c-.106.015-.03.11-.124.135a.317.317,0,0,0-.145.08c-.026.032-.028.118.182.086s.219-.022.2.043-.018.141.1.114c.152-.034.232-.148.288-.095.034.033-.007.081-.039.114-.052.054.068.1.137.047s.15-.144.2-.127,0,.077-.015.112,0,.107.085.067.137-.29.4-.256c.076-.14.687-.213,1.19.2a.143.143,0,0,0,.124.03C18.132,21.039,18.2,21.041,18.152,21Z"/>
      </g>
    </g>
    <g id="Group_1394" data-name="Group 1394">
      <g id="Group_1391" data-name="Group 1391">
        <path id="Path_3267" data-name="Path 3267" class="cls-4" d="M17.5,21.031c.11.082.248.155.277.248a.324.324,0,0,0-.082.086,3.375,3.375,0,0,0-.277-.24A.641.641,0,0,0,17.5,21.031Z"/>
        <path id="Path_3268" data-name="Path 3268" class="cls-4" d="M17.206,20.877c-.116.111-.36.163-.415.381a.338.338,0,0,1,.155-.022c.015-.11.267-.236.364-.327A.22.22,0,0,1,17.206,20.877Z"/>
        <path id="Path_3269" data-name="Path 3269" class="cls-4" d="M17.3,20.909c-.1-.013-.145-.055-.145-.188s.022-.172.15-.179c.045,0,.04.092.04.174S17.358,20.92,17.3,20.909Z"/>
      </g>
      <g id="Group_1392" data-name="Group 1392">
        <path id="Path_3270" data-name="Path 3270" class="cls-11" d="M17.619,20.873c.114.114.364.164.42.385a.338.338,0,0,0-.155-.022c-.014-.1-.227-.215-.337-.3,0-.01,0-.021.008-.03A.174.174,0,0,0,17.619,20.873Z"/>
        <path id="Path_3271" data-name="Path 3271" class="cls-11" d="M17.556,20.9c-.051.22-.3.322-.419.463a.34.34,0,0,0-.082-.086c.041-.134.309-.225.394-.365A.557.557,0,0,0,17.556,20.9Z"/>
        <path id="Path_3272" data-name="Path 3272" class="cls-11" d="M17.475,20.913c.132-.006.191-.04.191-.192s-.026-.177-.186-.18c.045,0,.04.093.04.175S17.534,20.924,17.475,20.913Z"/>
      </g>
      <g id="Group_1393" data-name="Group 1393">
        <path id="Path_3273" data-name="Path 3273" class="cls-7" d="M17.449,20.914c-.085.14-.354.232-.4.366a.237.237,0,0,0-.11-.043c.015-.11.268-.237.364-.328A1,1,0,0,0,17.449,20.914Z"/>
        <path id="Path_3274" data-name="Path 3274" class="cls-7" d="M17.5,21.031c.11.082.248.155.277.248a.237.237,0,0,1,.11-.043c-.014-.1-.227-.215-.337-.3A.436.436,0,0,1,17.5,21.031Z"/>
        <path id="Path_3275" data-name="Path 3275" class="cls-7" d="M17.475,20.913c.059.011.044-.114.044-.2s0-.178-.04-.175H17.41c-.042,0-.077,0-.106,0,.045,0,.04.092.04.174s.014.2-.045.192a.912.912,0,0,0,.111,0Z"/>
      </g>
    </g>
    <g id="Group_1402" data-name="Group 1402">
      <g id="Group_1395" data-name="Group 1395">
        <path id="Path_3276" data-name="Path 3276" class="cls-11" d="M14.6,17.674c-.074.074-.217,0-.277-.064a.179.179,0,0,1,0-.284c.1-.091.212-.039.286.077A.2.2,0,0,1,14.6,17.674Z"/>
        <path id="Path_3277" data-name="Path 3277" class="cls-11" d="M14.166,17.379c-.075-.058-.075-.1-.029-.14s.085-.038.133.016.066.122.038.15S14.239,17.436,14.166,17.379Z"/>
        <path id="Path_3278" data-name="Path 3278" class="cls-11" d="M14.16,17.454c-.072-.02-.084-.047-.064-.092s.048-.04.1-.015.087.055.076.083S14.23,17.473,14.16,17.454Z"/>
        <path id="Path_3279" data-name="Path 3279" class="cls-11" d="M14.382,17.192c0-.095.017-.123.091-.116s.081.045.067.116c-.017.09-.035.129-.089.127S14.382,17.285,14.382,17.192Z"/>
        <path id="Path_3280" data-name="Path 3280" class="cls-11" d="M14.191,16.952l.106.182-.045.026-.106-.183Z"/>
        <path id="Path_3281" data-name="Path 3281" class="cls-11" d="M14.15,16.846a.074.074,0,0,0,0,.147A.074.074,0,0,0,14.15,16.846Z"/>
        <path id="Path_3282" data-name="Path 3282" class="cls-11" d="M14.258,17.29c-.06-.086-.049-.128.01-.162s.1-.016.136.058c.043.094.028.153-.008.175S14.317,17.374,14.258,17.29Z"/>
      </g>
      <g id="Group_1396" data-name="Group 1396">
        <line id="Line_446" data-name="Line 446" class="cls-6" x1="0.095" y1="0.043" transform="translate(14.306 17.966)"/>
        <line id="Line_447" data-name="Line 447" class="cls-6" x2="0.013" y2="0.129" transform="translate(14.857 17.54)"/>
        <line id="Line_448" data-name="Line 448" class="cls-6" y1="0.103" x2="0.095" transform="translate(15.178 17.932)"/>
        <line id="Line_449" data-name="Line 449" class="cls-6" y1="0.073" x2="0.191" transform="translate(14.796 18.456)"/>
        <line id="Line_450" data-name="Line 450" class="cls-6" y1="0.034" x2="0.16" transform="translate(14.506 18.323)"/>
        <line id="Line_451" data-name="Line 451" class="cls-6" x1="0.156" y2="0.004" transform="translate(14.467 18.288)"/>
        <line id="Line_452" data-name="Line 452" class="cls-6" x1="0.052" y1="0.086" transform="translate(15.438 18.082)"/>
        <line id="Line_453" data-name="Line 453" class="cls-6" y1="0.03" x2="0.134" transform="translate(15.182 18.722)"/>
        <line id="Line_454" data-name="Line 454" class="cls-6" y1="0.073" x2="0.095" transform="translate(15.572 18.825)"/>
        <line id="Line_455" data-name="Line 455" class="cls-6" y1="0.095" x2="0.096" transform="translate(15.641 18.838)"/>
        <line id="Line_456" data-name="Line 456" class="cls-6" y1="0.103" x2="0.109" transform="translate(16.413 19.062)"/>
        <line id="Line_457" data-name="Line 457" class="cls-6" y1="0.125" x2="0.122" transform="translate(16.816 19.113)"/>
        <line id="Line_458" data-name="Line 458" class="cls-6" x1="0.174" y1="0.086" transform="translate(16.322 18.344)"/>
        <line id="Line_459" data-name="Line 459" class="cls-6" x2="0.1" y2="0.163" transform="translate(16.578 18.211)"/>
        <line id="Line_460" data-name="Line 460" class="cls-6" x2="0.061" y2="0.164" transform="translate(16.656 18.202)"/>
        <line id="Line_461" data-name="Line 461" class="cls-6" x2="0.018" y2="0.155" transform="translate(17.05 18.275)"/>
        <line id="Line_462" data-name="Line 462" class="cls-6" x1="0.004" y2="0.159" transform="translate(17.146 18.284)"/>
        <line id="Line_463" data-name="Line 463" class="cls-6" y1="0.098" x2="0.044" transform="translate(17.176 19.088)"/>
        <line id="Line_464" data-name="Line 464" class="cls-6" x1="0.039" y2="0.146" transform="translate(17.25 19.075)"/>
        <path id="Path_3283" data-name="Path 3283" class="cls-6" d="M18.867,19.242a.273.273,0,0,0,.065.133"/>
        <path id="Path_3284" data-name="Path 3284" class="cls-6" d="M19.227,18.752a.493.493,0,0,1,.03-.168"/>
        <line id="Line_465" data-name="Line 465" class="cls-6" y1="0.155" x2="0.07" transform="translate(19.465 18.46)"/>
        <line id="Line_466" data-name="Line 466" class="cls-6" x2="0.152" y2="0.065" transform="translate(19.487 19.285)"/>
        <line id="Line_467" data-name="Line 467" class="cls-6" x2="0.143" y2="0.026" transform="translate(19.539 19.259)"/>
        <line id="Line_468" data-name="Line 468" class="cls-6" y1="0.021" x2="0.174" transform="translate(19.829 19.062)"/>
        <line id="Line_469" data-name="Line 469" class="cls-6" x2="0.16" y2="0.094" transform="translate(18.243 19.251)"/>
        <line id="Line_470" data-name="Line 470" class="cls-6" x2="0.195" y2="0.048" transform="translate(18.299 19.242)"/>
      </g>
      <g id="Group_1397" data-name="Group 1397">
        <path id="Path_3285" data-name="Path 3285" class="cls-10" d="M15.208,18.5c-.442-.017-.8-.249-.824-.524a.326.326,0,0,1,.468-.335c.408.181.3.6.538.636Z"/>
        <path id="Path_3286" data-name="Path 3286" class="cls-10" d="M16.352,18.576c-.208-.2-.668-.567-.971-.378s-.206.411-.121.507a1.332,1.332,0,0,0,1.049.1Z"/>
        <path id="Path_3287" data-name="Path 3287" class="cls-10" d="M17.827,18.688c-.607-.241-1.023-.464-1.361-.266a.344.344,0,0,0-.017.627,1.94,1.94,0,0,0,1.084.009C17.8,18.989,17.87,18.86,17.827,18.688Z"/>
        <path id="Path_3288" data-name="Path 3288" class="cls-10" d="M18.763,18.98c.33.013.314-.086.4-.2a.412.412,0,0,1,.551-.125c.217.172.26.4,0,.546a.8.8,0,0,1-.707.1c-.269-.082-.425-.133-.481-.142A.405.405,0,0,0,18.763,18.98Z"/>
        <path id="Path_3289" data-name="Path 3289" class="cls-10" d="M17.887,19.668c.026-.627.971-.249.9-.86-.031-.275-.529-.241-.928-.146s-.425.524-.442,1.023c0,.034.078.034.234.034S17.892,19.728,17.887,19.668Z"/>
      </g>
      <g id="Group_1398" data-name="Group 1398">
        <path id="Path_3290" data-name="Path 3290" class="cls-11" d="M19.817,18.611c-.121.073-.152.163-.117.232s.182.052.277,0,.152-.168.108-.236S19.916,18.55,19.817,18.611Z"/>
        <path id="Path_3291" data-name="Path 3291" class="cls-11" d="M20.38,18.362l-.148.151-.038-.036.148-.152Z"/>
        <path id="Path_3292" data-name="Path 3292" class="cls-11" d="M20.471,18.293a.074.074,0,0,0-.142.041A.074.074,0,0,0,20.471,18.293Z"/>
        <path id="Path_3293" data-name="Path 3293" class="cls-11" d="M19.973,18.441c.05-.082.08-.11.143-.071s.043.085,0,.142-.09.1-.137.073S19.924,18.52,19.973,18.441Z"/>
        <path id="Path_3294" data-name="Path 3294" class="cls-11" d="M20.17,18.6c.095-.015.137-.01.147.063s-.039.087-.111.09c-.093,0-.134,0-.145-.057S20.078,18.615,20.17,18.6Z"/>
        <path id="Path_3295" data-name="Path 3295" class="cls-11" d="M20.089,18.493c.075-.074.117-.07.16-.01s.017.1-.058.13-.122.057-.155.014S20.023,18.559,20.089,18.493Z"/>
      </g>
      <g id="Group_1399" data-name="Group 1399">
        <path id="Path_3296" data-name="Path 3296" class="cls-12" d="M14.639,17.839c-.084.042-.044.121.04.079S14.724,17.8,14.639,17.839Z"/>
        <path id="Path_3297" data-name="Path 3297" class="cls-12" d="M14.872,17.815c-.09.025-.066.111.024.085S14.964,17.79,14.872,17.815Z"/>
        <path id="Path_3298" data-name="Path 3298" class="cls-12" d="M14.566,18.056c-.012.092.077.1.089.011S14.578,17.962,14.566,18.056Z"/>
        <path id="Path_3299" data-name="Path 3299" class="cls-12" d="M14.787,18.052c-.051.064,0,.1.05.04S14.839,17.987,14.787,18.052Z"/>
        <path id="Path_3300" data-name="Path 3300" class="cls-12" d="M15.059,18c-.092.018-.075.1.017.087S15.152,17.977,15.059,18Z"/>
        <path id="Path_3301" data-name="Path 3301" class="cls-12" d="M15.024,18.256c-.058.066-.008.124.05.058S15.083,18.189,15.024,18.256Z"/>
        <path id="Path_3302" data-name="Path 3302" class="cls-12" d="M14.8,18.262c-.047.08.03.125.077.045S14.844,18.18,14.8,18.262Z"/>
        <path id="Path_3303" data-name="Path 3303" class="cls-12" d="M15.386,18.424c-.047.08.03.125.077.045S15.434,18.343,15.386,18.424Z"/>
        <path id="Path_3304" data-name="Path 3304" class="cls-12" d="M15.561,18.287c-.061.071.008.128.068.057S15.623,18.216,15.561,18.287Z"/>
        <path id="Path_3305" data-name="Path 3305" class="cls-12" d="M15.456,18.644c0,.093.088.094.089,0S15.457,18.55,15.456,18.644Z"/>
        <path id="Path_3306" data-name="Path 3306" class="cls-12" d="M15.683,18.564c-.031.088.053.117.084.03S15.714,18.475,15.683,18.564Z"/>
        <path id="Path_3307" data-name="Path 3307" class="cls-12" d="M16,18.62c-.031.088.053.117.084.03S16.035,18.531,16,18.62Z"/>
        <path id="Path_3308" data-name="Path 3308" class="cls-12" d="M15.827,18.751c0,.093.088.094.089,0S15.829,18.657,15.827,18.751Z"/>
        <path id="Path_3309" data-name="Path 3309" class="cls-12" d="M16.522,18.669c-.047.08.03.125.077.045S16.57,18.588,16.522,18.669Z"/>
        <path id="Path_3310" data-name="Path 3310" class="cls-12" d="M16.615,18.932c.024.09.111.067.086-.023S16.59,18.841,16.615,18.932Z"/>
        <path id="Path_3311" data-name="Path 3311" class="cls-12" d="M16.735,18.484c-.047.08.03.125.077.045S16.783,18.4,16.735,18.484Z"/>
        <path id="Path_3312" data-name="Path 3312" class="cls-12" d="M16.889,18.708c-.063.069,0,.128.067.059S16.952,18.638,16.889,18.708Z"/>
        <path id="Path_3313" data-name="Path 3313" class="cls-12" d="M17.11,18.538c-.063.069,0,.128.067.059S17.173,18.468,17.11,18.538Z"/>
        <path id="Path_3314" data-name="Path 3314" class="cls-12" d="M17,18.983c.039.084.121.047.081-.037S16.96,18.9,17,18.983Z"/>
        <path id="Path_3315" data-name="Path 3315" class="cls-12" d="M17.206,18.791c-.033.087.051.118.084.031S17.239,18.7,17.206,18.791Z"/>
        <path id="Path_3316" data-name="Path 3316" class="cls-12" d="M17.779,19.3c-.081-.046-.139.044-.058.09S17.861,19.349,17.779,19.3Z"/>
        <path id="Path_3317" data-name="Path 3317" class="cls-12" d="M17.631,19.045c-.081-.046-.139.044-.058.09S17.714,19.091,17.631,19.045Z"/>
        <path id="Path_3318" data-name="Path 3318" class="cls-12" d="M18.143,19.015c-.081-.046-.152.052-.071.1S18.225,19.061,18.143,19.015Z"/>
        <path id="Path_3319" data-name="Path 3319" class="cls-12" d="M18.238,18.745c-.089-.03-.117.054-.029.084S18.328,18.775,18.238,18.745Z"/>
        <path id="Path_3320" data-name="Path 3320" class="cls-12" d="M17.862,19c-.07-.034-.093.061-.023.095S17.933,19.031,17.862,19Z"/>
        <path id="Path_3321" data-name="Path 3321" class="cls-12" d="M18.407,19.076c-.089-.03-.117.054-.029.084S18.5,19.106,18.407,19.076Z"/>
        <path id="Path_3322" data-name="Path 3322" class="cls-12" d="M18.546,18.825c-.089-.03-.127.064-.038.094S18.636,18.856,18.546,18.825Z"/>
        <path id="Path_3323" data-name="Path 3323" class="cls-12" d="M18.943,19.086c-.061-.07-.129-.012-.068.058S19,19.157,18.943,19.086Z"/>
        <path id="Path_3324" data-name="Path 3324" class="cls-12" d="M19.273,19.048c-.079-.049-.135.043-.055.092S19.354,19.1,19.273,19.048Z"/>
        <path id="Path_3325" data-name="Path 3325" class="cls-12" d="M19.512,19.1c-.079-.049-.135.043-.055.092S19.592,19.153,19.512,19.1Z"/>
        <path id="Path_3326" data-name="Path 3326" class="cls-12" d="M19.373,18.742c-.079-.049-.143.047-.064.1S19.454,18.792,19.373,18.742Z"/>
        <path id="Path_3327" data-name="Path 3327" class="cls-12" d="M19.555,18.85c-.079-.049-.143.047-.064.1S19.636,18.9,19.555,18.85Z"/>
      </g>
      <g id="Group_1400" data-name="Group 1400">
        <path id="Path_3328" data-name="Path 3328" class="cls-11" d="M15.832,18.084a.272.272,0,0,0-.093.363.157.157,0,0,0,.26,0,.365.365,0,0,0,.017-.327Z"/>
        <path id="Path_3329" data-name="Path 3329" class="cls-11" d="M15.98,17.821a.074.074,0,0,0,0,.147A.074.074,0,0,0,15.98,17.821Z"/>
        <path id="Path_3330" data-name="Path 3330" class="cls-11" d="M15.882,17.88a.078.078,0,0,0,0,.155A.078.078,0,0,0,15.882,17.88Z"/>
        <path id="Path_3331" data-name="Path 3331" class="cls-11" d="M16.034,17.912a.078.078,0,0,0,0,.155A.078.078,0,0,0,16.034,17.912Z"/>
        <path id="Path_3332" data-name="Path 3332" class="cls-11" d="M15.973,18.127c.048.073.191.028.193-.1a.234.234,0,0,1-.173.009Z"/>
        <path id="Path_3333" data-name="Path 3333" class="cls-11" d="M15.9,18.03a.137.137,0,0,1-.126-.095.111.111,0,0,0,.128.178Z"/>
        <path id="Path_3334" data-name="Path 3334" class="cls-11" d="M15.915,18.155c-.054-.017-.055-.1-.048-.131.017-.082.184-.039.163.054C16.013,18.149,15.966,18.171,15.915,18.155Z"/>
      </g>
      <g id="Group_1401" data-name="Group 1401">
        <line id="Line_471" data-name="Line 471" class="cls-6" x1="0.104" y1="0.056" transform="translate(14.501 18.002)"/>
        <line id="Line_472" data-name="Line 472" class="cls-6" x2="0.078" y2="0.107" transform="translate(14.571 17.777)"/>
        <line id="Line_473" data-name="Line 473" class="cls-6" x2="0.009" y2="0.126" transform="translate(14.865 17.732)"/>
        <line id="Line_474" data-name="Line 474" class="cls-6" x1="0.081" y1="0.071" transform="translate(14.724 17.994)"/>
        <line id="Line_475" data-name="Line 475" class="cls-6" x1="0.108" y1="0.064" transform="translate(14.716 18.222)"/>
        <line id="Line_476" data-name="Line 476" class="cls-6" x1="0.096" y1="0.086" transform="translate(14.941 18.194)"/>
        <line id="Line_477" data-name="Line 477" class="cls-6" x1="0.031" y1="0.125" transform="translate(15.032 17.897)"/>
        <line id="Line_478" data-name="Line 478" class="cls-6" x1="0.008" y1="0.12" transform="translate(14.662 17.747)"/>
        <line id="Line_479" data-name="Line 479" class="cls-6" x1="0.108" y1="0.051" transform="translate(15.312 18.396)"/>
        <line id="Line_480" data-name="Line 480" class="cls-6" x2="0.074" y2="0.069" transform="translate(15.507 18.245)"/>
        <line id="Line_481" data-name="Line 481" class="cls-6" y1="0.013" x2="0.086" transform="translate(15.412 18.653)"/>
        <line id="Line_482" data-name="Line 482" class="cls-6" x1="0.117" y1="0.043" transform="translate(15.386 18.585)"/>
        <line id="Line_483" data-name="Line 483" class="cls-6" x2="0.099" y2="0.004" transform="translate(15.607 18.585)"/>
        <line id="Line_484" data-name="Line 484" class="cls-6" x1="0.099" y1="0.082" transform="translate(15.62 18.486)"/>
        <line id="Line_485" data-name="Line 485" class="cls-6" x2="0.138" y2="0.013" transform="translate(15.928 18.606)"/>
        <line id="Line_486" data-name="Line 486" class="cls-6" x1="0.13" transform="translate(15.728 18.744)"/>
        <line id="Line_487" data-name="Line 487" class="cls-6" x2="0.117" y2="0.013" transform="translate(16.422 18.696)"/>
        <line id="Line_488" data-name="Line 488" class="cls-6" x1="0.1" y1="0.077" transform="translate(16.465 18.585)"/>
        <line id="Line_489" data-name="Line 489" class="cls-6" x2="0.099" y2="0.039" transform="translate(16.665 18.46)"/>
        <line id="Line_490" data-name="Line 490" class="cls-6" x2="0.096" y2="0.051" transform="translate(17.033 18.512)"/>
        <line id="Line_491" data-name="Line 491" class="cls-6" x2="0.117" y2="0.035" transform="translate(16.769 18.722)"/>
        <line id="Line_492" data-name="Line 492" class="cls-6" x1="0.082" y1="0.082" transform="translate(16.838 18.632)"/>
        <line id="Line_493" data-name="Line 493" class="cls-6" x2="0.138" y2="0.03" transform="translate(17.103 18.77)"/>
        <line id="Line_494" data-name="Line 494" class="cls-6" y1="0.035" x2="0.112" transform="translate(16.925 18.967)"/>
        <line id="Line_495" data-name="Line 495" class="cls-6" x1="0.013" y1="0.125" transform="translate(17.584 18.963)"/>
        <line id="Line_496" data-name="Line 496" class="cls-6" y1="0.133" transform="translate(17.748 19.212)"/>
        <line id="Line_497" data-name="Line 497" class="cls-6" x1="0.118" y2="0.068" transform="translate(17.774 19.277)"/>
        <line id="Line_498" data-name="Line 498" class="cls-6" y1="0.125" x2="0.013" transform="translate(18.104 18.933)"/>
        <line id="Line_499" data-name="Line 499" class="cls-6" y1="0.078" x2="0.147" transform="translate(18.139 18.984)"/>
        <line id="Line_500" data-name="Line 500" class="cls-6" y1="0.056" x2="0.091" transform="translate(18.412 19.062)"/>
        <line id="Line_501" data-name="Line 501" class="cls-6" y1="0.09" x2="0.078" transform="translate(18.538 18.778)"/>
        <line id="Line_502" data-name="Line 502" class="cls-6" y1="0.107" x2="0.082" transform="translate(18.23 18.684)"/>
        <line id="Line_503" data-name="Line 503" class="cls-6" y1="0.09" x2="0.078" transform="translate(18.919 19.023)"/>
        <line id="Line_504" data-name="Line 504" class="cls-6" x1="0.034" y2="0.129" transform="translate(19.223 18.95)"/>
        <line id="Line_505" data-name="Line 505" class="cls-6" y1="0.073" x2="0.086" transform="translate(19.249 19.023)"/>
        <line id="Line_506" data-name="Line 506" class="cls-6" y1="0.085" x2="0.096" transform="translate(19.478 19.058)"/>
        <line id="Line_507" data-name="Line 507" class="cls-6" y1="0.09" x2="0.078" transform="translate(19.513 18.813)"/>
        <line id="Line_508" data-name="Line 508" class="cls-6" y1="0.137" x2="0.048" transform="translate(19.348 18.658)"/>
      </g>
    </g>
    <g id="Group_1414" data-name="Group 1414">
      <g id="Group_1405" data-name="Group 1405">
        <g id="Group_1403" data-name="Group 1403">
          <path id="Path_3335" data-name="Path 3335" class="cls-13" d="M15.737,14.768c-.077-.055-.06-.126.078-.223.106-.075.223-.2.219-.294s.025-.106.052-.009a.357.357,0,0,1,.01.194.651.651,0,0,0,.084-.316c0-.064.045-.129.065-.017a.6.6,0,0,1,.013.2c.036-.019.07-.033.108-.052a.809.809,0,0,0,.036-.187c0-.11.039-.163.056-.071a1.109,1.109,0,0,1,.017.2.286.286,0,0,0,.1-.118c.037-.084.063-.164.085-.006a.352.352,0,0,1,0,.1c.182-.1.437.1.571.069s.121,0,.078.039a.364.364,0,0,1-.078.05.6.6,0,0,1,.332.3.393.393,0,0,0-.315-.495c-.182-.022-.394-.048-.286-.262a.319.319,0,0,1,.333-.2c.039-.1.171-.145.447-.125a2.51,2.51,0,0,1,1.027.266c.312.172.5.266.676.189a.378.378,0,0,1-.082.162,2.436,2.436,0,0,1,1.07,1.213c.078.249.139.507.356.542a.244.244,0,0,1-.121.053,2.244,2.244,0,0,1,0,1.005c-.069.254,0,.7-.091,1-.085.28-.1.09-.1-.039,0-.353-.078-.464-.074-1.208a.48.48,0,0,0-.118-.278,8.421,8.421,0,0,1,.031,1.413c-.033.193-.091.026-.1-.266a6.782,6.782,0,0,0-.143-.722.721.721,0,0,0-.086-.258c0,.279.107.816.077,1.1-.021.2-.087.039-.087-.065a4.768,4.768,0,0,0-.16-.735.881.881,0,0,0-.144-.313,3.374,3.374,0,0,1,.088.583c0,.12-.013.18-.061.1a1.016,1.016,0,0,1-.113-.408.615.615,0,0,0-.253-.382,2.289,2.289,0,0,1,.183.5c.03.131-.009.155-.035.1a2.311,2.311,0,0,1-.152-.327.5.5,0,0,0-.264-.3.5.5,0,0,1-.251-.176,2.53,2.53,0,0,1,.347.494c.074.15.052.176-.017.116a.708.708,0,0,1-.16-.206c-.138-.228-.165-.176-.251-.2a.474.474,0,0,1-.29-.2.148.148,0,0,1-.082.055,1.492,1.492,0,0,1,.185.641c.3.223,1.041.7,1.492,1.006.211.144.043.209-.117.215a.375.375,0,0,1-.217-.026.252.252,0,0,1-.36.086.211.211,0,0,1-.325,0,.161.161,0,0,1-.23,0c-.065-.06-.1-.086-.29-.266.013.223-.065.1-.095.017-.013.241-.068.195-.116.113-.038.194-.127.2-.183.115-.022-.036-.048-.077-.078-.127-.039.232-.121.165-.16.088a2.628,2.628,0,0,0-.191-.288c-.038.044-.09-.027-.186-.167-.021-.031-.049-.067-.082-.11-.028.3-.114.276-.187.18a1.225,1.225,0,0,1-.386.123c-.157.014-.164-.053-.106-.135-.2-.026-.375-.067-.38-.14s.253-.219.4-.313c-.131-.106-.189-.223-.166-.245s.13,0,.221.052c-.126-.146-.281-.409-.247-.5-.031-.032-.061-.065-.091-.095-.053.033-.124.045-.109-.042s-.113-.305-.121-.468.108-.241.156-.4c-.038-.007-.049-.036-.039-.077.019-.08.15-.189.191-.316-.058,0-.069,0-.03-.052a.523.523,0,0,0,.088-.209c-.03.02-.041.01-.041-.021,0-.054-.033-.069-.069-.077A3,3,0,0,1,15.737,14.768Z"/>
        </g>
        <g id="Group_1404" data-name="Group 1404">
          <path id="Path_3336" data-name="Path 3336" class="cls-6" d="M16.177,14.526a1,1,0,0,0,.241-.148c.065-.054.167-.129.165,0s-.167.234-.334.251"/>
          <path id="Path_3337" data-name="Path 3337" class="cls-6" d="M16.649,14.223a.77.77,0,0,1,.449.168c.063.067.074.146-.1.133"/>
          <path id="Path_3338" data-name="Path 3338" class="cls-6" d="M16.6,14.336a1.223,1.223,0,0,1,.382.187c.082.067.074.129-.089.092a1.152,1.152,0,0,1-.347-.133"/>
          <path id="Path_3339" data-name="Path 3339" class="cls-6" d="M17.181,14.339a1.173,1.173,0,0,1,.36.5c.035.12.013.292-.026.241a.244.244,0,0,0-.163-.073"/>
          <path id="Path_3340" data-name="Path 3340" class="cls-6" d="M17.137,14.493a.726.726,0,0,1,.2.593c-.035.2-.108.086-.173.026a.622.622,0,0,1-.208-.481"/>
          <path id="Path_3341" data-name="Path 3341" class="cls-6" d="M16.365,14.661c.143-.047.373-.03.347.064s-.234-.017-.33,0"/>
          <path id="Path_3342" data-name="Path 3342" class="cls-6" d="M16.686,14.558a.12.12,0,0,1-.065.086"/>
          <path id="Path_3343" data-name="Path 3343" class="cls-6" d="M16.678,14.768c.061.107.2.168.286,0"/>
          <path id="Path_3344" data-name="Path 3344" class="cls-6" d="M16.916,15.843a.575.575,0,0,0,.108.58c.156.133.195.142.243.064a.481.481,0,0,0,.035-.352.658.658,0,0,1-.009-.387"/>
          <path id="Path_3345" data-name="Path 3345" class="cls-6" d="M16.946,16.32a.254.254,0,0,1-.069.168c-.048.034-.074.03-.087-.039a.8.8,0,0,1-.061-.662"/>
          <path id="Path_3346" data-name="Path 3346" class="cls-6" d="M16.591,15.783c-.2.374,0,.464-.009.589s.061.09.082.054a.353.353,0,0,0,.041-.2"/>
          <path id="Path_3347" data-name="Path 3347" class="cls-6" d="M17.063,15.112a.952.952,0,0,0-.191.64c.03.133.13.185.2.1a.7.7,0,0,0,.134-.215"/>
          <path id="Path_3348" data-name="Path 3348" class="cls-6" d="M17.224,15.245c-.061.245-.046.389.056.49.078.077.133,0,.165-.064a1.134,1.134,0,0,0,.069-.593"/>
          <path id="Path_3349" data-name="Path 3349" class="cls-6" d="M16.7,15.237a2.942,2.942,0,0,0-.113.443c-.013.086.009.155.1.116a.291.291,0,0,0,.182-.215"/>
          <path id="Path_3350" data-name="Path 3350" class="cls-6" d="M16.643,16.462c.056.069.132.117.178.185.061.09.108-.052.108-.232"/>
          <path id="Path_3351" data-name="Path 3351" class="cls-6" d="M16.8,16.93a1.27,1.27,0,0,0,.056.456c.043.082.13.211.243.034"/>
          <path id="Path_3352" data-name="Path 3352" class="cls-6" d="M17.493,15.525c0,.223.177.358.117.658-.026.129-.078.215-.3.039"/>
          <path id="Path_3353" data-name="Path 3353" class="cls-6" d="M17.51,15.422c-.009.082.074.146.13.211s.087.069.126-.1a1.16,1.16,0,0,0-.006-.5"/>
          <path id="Path_3354" data-name="Path 3354" class="cls-6" d="M17.623,16c.117.043.2.017.2-.086a.438.438,0,0,0-.1-.271"/>
          <path id="Path_3355" data-name="Path 3355" class="cls-6" d="M15.839,14.717c0,.041.076.043.137.032a.18.18,0,0,0,.145-.129c.009-.064-.013-.127-.065-.125"/>
          <path id="Path_3356" data-name="Path 3356" class="cls-6" d="M15.884,14.648c.011.034.126.088.176-.064"/>
          <path id="Path_3357" data-name="Path 3357" class="cls-6" d="M15.921,14.609c-.013.017.037.028.061.011s.043-.082,0-.071"/>
          <path id="Path_3358" data-name="Path 3358" class="cls-6" d="M18.832,13.965a.342.342,0,0,1,.063.206c-.009.056-.046.086-.1.022a.309.309,0,0,0-.152-.1"/>
          <path id="Path_3359" data-name="Path 3359" class="cls-6" d="M18.509,13.821a.415.415,0,0,1,.126.213c0,.058-.033.148-.1.1s-.1-.092-.147-.125"/>
          <path id="Path_3360" data-name="Path 3360" class="cls-6" d="M18.236,13.8a.428.428,0,0,1,.15.2c.019.071.035.144-.1.092a2.579,2.579,0,0,0-.633-.129"/>
          <path id="Path_3361" data-name="Path 3361" class="cls-6" d="M17.926,13.78c.206.032.212.256.314.288"/>
          <path id="Path_3362" data-name="Path 3362" class="cls-6" d="M18.351,14.309a2.847,2.847,0,0,1,.494.159c.074.039.165.082.2.026s.1-.133.074-.206"/>
          <path id="Path_3363" data-name="Path 3363" class="cls-6" d="M18.975,14.519a.3.3,0,0,1-.087.335"/>
          <path id="Path_3364" data-name="Path 3364" class="cls-6" d="M18.407,14.618a.6.6,0,0,1,.425.18.234.234,0,0,1-.039.374"/>
          <path id="Path_3365" data-name="Path 3365" class="cls-6" d="M19.119,14.4a4.959,4.959,0,0,1,.928,1.152c.091.228.022.327-.2.1s-.681-.778-.85-.984"/>
          <path id="Path_3366" data-name="Path 3366" class="cls-6" d="M18.884,15.078a7.789,7.789,0,0,0,.637.718c.139.1.243.172.217-.249"/>
          <path id="Path_3367" data-name="Path 3367" class="cls-6" d="M18.75,15.366a4.8,4.8,0,0,0,.59.546c.134.082.208.12.182-.116"/>
          <path id="Path_3368" data-name="Path 3368" class="cls-6" d="M17.948,15.774c.121.163.269.365.321.421a.25.25,0,0,1,.039.206c-.009.064-.035.06-.108.043"/>
          <path id="Path_3369" data-name="Path 3369" class="cls-6" d="M17.974,15.49c.087.116.087.211-.043.228"/>
          <path id="Path_3370" data-name="Path 3370" class="cls-6" d="M18.022,15.551a.2.2,0,0,0,.217-.219"/>
          <path id="Path_3371" data-name="Path 3371" class="cls-6" d="M18.126,15.284c.152.133.325-.107.221-.232"/>
          <path id="Path_3372" data-name="Path 3372" class="cls-6" d="M18.251,15.035c.152.017.208-.12.1-.3"/>
          <path id="Path_3373" data-name="Path 3373" class="cls-6" d="M18.234,14.743c.186.026.238-.185.074-.37"/>
          <path id="Path_3374" data-name="Path 3374" class="cls-6" d="M18.189,14.4c.028-.024.043-.043.087-.039s.091-.03.059-.11a.381.381,0,0,1-.046-.17"/>
          <path id="Path_3375" data-name="Path 3375" class="cls-6" d="M17.037,13.956c.108-.03.256-.086.36-.026"/>
          <path id="Path_3376" data-name="Path 3376" class="cls-6" d="M17.384,14.085a.4.4,0,0,1,.3,0"/>
          <path id="Path_3377" data-name="Path 3377" class="cls-6" d="M17.653,14.248a.269.269,0,0,1,.316.15"/>
          <path id="Path_3378" data-name="Path 3378" class="cls-6" d="M17.748,14.48a.221.221,0,0,1,.265.129"/>
          <path id="Path_3379" data-name="Path 3379" class="cls-6" d="M17.77,14.725c.147,0,.282.112.264.228"/>
          <path id="Path_3380" data-name="Path 3380" class="cls-6" d="M16.552,16.5c.1.129.477.511.6.636.065.064.091.077.117-.06"/>
          <path id="Path_3381" data-name="Path 3381" class="cls-6" d="M16.894,16.655a2.861,2.861,0,0,0,.516.507c.156.086.13-.013.13-.206"/>
          <path id="Path_3382" data-name="Path 3382" class="cls-6" d="M17.267,16.487a1.5,1.5,0,0,0,.386.559c.156.112.167.022.156-.12a1.834,1.834,0,0,0-.247-.623"/>
          <path id="Path_3383" data-name="Path 3383" class="cls-6" d="M16.994,17.154c.056.06.173.056.117-.06"/>
          <path id="Path_3384" data-name="Path 3384" class="cls-6" d="M17.233,17.179a2.5,2.5,0,0,0,.542.6c.095.073.1.056.126-.052"/>
          <path id="Path_3385" data-name="Path 3385" class="cls-6" d="M17.523,17.188a1.692,1.692,0,0,0,.408.554c.113.064.145.071.154-.095"/>
          <path id="Path_3386" data-name="Path 3386" class="cls-6" d="M17.779,17.093a2.108,2.108,0,0,0,.321.576c.1.107.152.06.152-.12"/>
          <path id="Path_3387" data-name="Path 3387" class="cls-6" d="M17.813,15.98a2.2,2.2,0,0,1,.238.761c.013.211,0,.219-.26.069"/>
          <path id="Path_3388" data-name="Path 3388" class="cls-6" d="M17.939,15.86a2.257,2.257,0,0,1,.265.67c.022.159.013.2-.156.133"/>
          <path id="Path_3389" data-name="Path 3389" class="cls-6" d="M18.191,16.685a3.215,3.215,0,0,1,.186.765c0,.138-.016.309-.156.03a5.11,5.11,0,0,1-.195-.567"/>
          <path id="Path_3390" data-name="Path 3390" class="cls-6" d="M18.308,16.436a2.461,2.461,0,0,1,.191.791c0,.249,0,.434-.117.236"/>
          <path id="Path_3391" data-name="Path 3391" class="cls-6" d="M18.2,15.972c.191-.1.2-.288-.078-.438"/>
          <path id="Path_3392" data-name="Path 3392" class="cls-6" d="M18.342,15.748c.217-.086.355-.258-.039-.447"/>
          <path id="Path_3393" data-name="Path 3393" class="cls-6" d="M18.538,15.473a.222.222,0,0,0,.23-.215c0-.107-.091-.249-.386-.262"/>
          <path id="Path_3394" data-name="Path 3394" class="cls-6" d="M18.472,16.144c.182.056.325.1.29-.211"/>
          <path id="Path_3395" data-name="Path 3395" class="cls-6" d="M18.52,15.645c.156.176.227.3.408.34.212.047.2.021.121-.314"/>
          <path id="Path_3396" data-name="Path 3396" class="cls-6" d="M16.095,14.436a.12.12,0,0,1-.046.066c-.065.043-.273.2-.2.286"/>
          <path id="Path_3397" data-name="Path 3397" class="cls-6" d="M16.095,14.436a.487.487,0,0,1,.161-.136"/>
          <path id="Path_3398" data-name="Path 3398" class="cls-6" d="M16.264,14.48a.937.937,0,0,0,.1-.232"/>
          <path id="Path_3399" data-name="Path 3399" class="cls-6" d="M16.474,14.186a.818.818,0,0,1-.011.152"/>
          <path id="Path_3400" data-name="Path 3400" class="cls-6" d="M17.565,14.614c.087.142.152.291.257.348.147.079-.041.072-.063.069a.3.3,0,0,1-.212-.157"/>
          <path id="Path_3401" data-name="Path 3401" class="cls-6" d="M17.232,14.316a.321.321,0,0,1-.167.04"/>
          <path id="Path_3402" data-name="Path 3402" class="cls-6" d="M16.661,14.158a.475.475,0,0,1-.07.189"/>
          <path id="Path_3403" data-name="Path 3403" class="cls-6" d="M18.884,14.21a.331.331,0,0,0,.482-.061"/>
          <path id="Path_3404" data-name="Path 3404" class="cls-6" d="M19.334,16.487a.826.826,0,0,1-.255-.352"/>
          <path id="Path_3405" data-name="Path 3405" class="cls-6" d="M19.672,16.592a2.629,2.629,0,0,0-.159-.216"/>
          <path id="Path_3406" data-name="Path 3406" class="cls-6" d="M19.987,16.6c-.067-.124-.157-.226-.222-.344"/>
          <path id="Path_3407" data-name="Path 3407" class="cls-6" d="M20.288,16.437a.721.721,0,0,1-.147-.242"/>
          <path id="Path_3408" data-name="Path 3408" class="cls-6" d="M20.671,15.956a.675.675,0,0,1-.616-.362"/>
          <path id="Path_3409" data-name="Path 3409" class="cls-6" d="M17.3,13.655a.208.208,0,0,0-.012.1c.013.159.108.181.273.271.35.192.382.142.46.636a.571.571,0,0,1-.225.662,1.054,1.054,0,0,0,.134.421c.043.069.048.146-.091.142"/>
          <path id="Path_3410" data-name="Path 3410" class="cls-6" d="M18.442,16.3c.067-.094.009-.27-.135-.4"/>
          <path id="Path_3411" data-name="Path 3411" class="cls-6" d="M18.31,16.27c.018.028.035.055.051.083"/>
          <path id="Path_3412" data-name="Path 3412" class="cls-6" d="M18.5,17.446a1.482,1.482,0,0,0,.043-.451"/>
          <path id="Path_3413" data-name="Path 3413" class="cls-6" d="M19.019,18.28c-.147-.133-.3-.271-.538-.486"/>
          <path id="Path_3414" data-name="Path 3414" class="cls-6" d="M19.344,18.275c-.126-.095-.65-.563-.863-.739"/>
          <path id="Path_3415" data-name="Path 3415" class="cls-6" d="M19.7,18.189a13.292,13.292,0,0,1-1.2-.907"/>
          <path id="Path_3416" data-name="Path 3416" class="cls-6" d="M18.251,17.6c.065.2.121.344.152.425"/>
          <path id="Path_3417" data-name="Path 3417" class="cls-6" d="M18.026,18.127c-.047-.076-.1-.172-.178-.294"/>
          <path id="Path_3418" data-name="Path 3418" class="cls-6" d="M18.287,18.139c-.048-.082-.14-.22-.231-.362"/>
          <path id="Path_3419" data-name="Path 3419" class="cls-6" d="M18.5,18.009c-.013-.223-.022-.361-.035-.46"/>
          <path id="Path_3420" data-name="Path 3420" class="cls-6" d="M16.728,17.818a.485.485,0,0,1,.058-.067.588.588,0,0,1,.325-.168"/>
          <path id="Path_3421" data-name="Path 3421" class="cls-6" d="M17.22,17.83a.6.6,0,0,1-.048-.075.917.917,0,0,1-.074-.477"/>
          <path id="Path_3422" data-name="Path 3422" class="cls-6" d="M17.674,17.927a.439.439,0,0,0,.053-.176"/>
          <path id="Path_3423" data-name="Path 3423" class="cls-6" d="M16.749,17.365a.848.848,0,0,0,.154.1"/>
          <path id="Path_3424" data-name="Path 3424" class="cls-6" d="M16.557,16.676c.327.34.67.739.85.974"/>
          <path id="Path_3425" data-name="Path 3425" class="cls-6" d="M16.465,16.581a.191.191,0,0,0,.021-.016.322.322,0,0,0,.1-.168"/>
          <path id="Path_3426" data-name="Path 3426" class="cls-6" d="M16.391,15.666a.16.16,0,0,0,.044,0,.267.267,0,0,0,.182-.1"/>
          <path id="Path_3427" data-name="Path 3427" class="cls-6" d="M16.543,15.274h.022a.409.409,0,0,0,.29-.161"/>
          <path id="Path_3428" data-name="Path 3428" class="cls-6" d="M16.6,15.013a.329.329,0,0,0,.035-.029A.193.193,0,0,0,16.7,14.8"/>
        </g>
      </g>
      <g id="Group_1406" data-name="Group 1406">
        <path id="Path_3429" data-name="Path 3429" class="cls-14" d="M15.706,14.743c-.056,0-.128.049-.091.107a.325.325,0,0,0-.113.464c.074.107.264.1.316.1-.1-.034-.143-.258-.1-.318s.147-.18.39.073a.436.436,0,0,1,.23-.142c.095,0,.191-.09.13-.168s-.39.043-.49-.03S15.763,14.82,15.706,14.743Z"/>
        <path id="Path_3430" data-name="Path 3430" class="cls-6" d="M16.344,15.022c.011-.079-.054-.1-.145-.082a.47.47,0,0,0-.215.11"/>
        <path id="Path_3431" data-name="Path 3431" class="cls-6" d="M15.615,14.85c0,.034.137.054.139-.071"/>
      </g>
      <g id="Group_1407" data-name="Group 1407">
        <path id="Path_3432" data-name="Path 3432" class="cls-5" d="M18.082,18.219c.03.107-.16.189-.264.15a.153.153,0,0,0-.225.138.158.158,0,0,0,.143.159.171.171,0,0,0,.156.18.179.179,0,0,0,.182-.176c.134.026.33-.112.473-.021.039.107.156.129.291.056a.125.125,0,0,0-.043-.241.6.6,0,0,1-.506-.326C18.249,18.316,18.169,18.37,18.082,18.219Z"/>
        <path id="Path_3433" data-name="Path 3433" class="cls-6" d="M17.735,18.666c.026-.086.217-.129.251-.172a.358.358,0,0,1,.163-.1"/>
        <path id="Path_3434" data-name="Path 3434" class="cls-6" d="M18.143,18.3a.645.645,0,0,1,.006.129c0,.026,0,.058.093.056s.124,0,.115-.058a1.455,1.455,0,0,1-.022-.215"/>
        <path id="Path_3435" data-name="Path 3435" class="cls-6" d="M18.074,18.671a.188.188,0,0,0,.182-.133"/>
        <path id="Path_3436" data-name="Path 3436" class="cls-6" d="M18.241,18.651a.162.162,0,0,0,.121-.116"/>
        <path id="Path_3437" data-name="Path 3437" class="cls-6" d="M18.379,18.623a.092.092,0,0,0,.089-.088"/>
        <path id="Path_3438" data-name="Path 3438" class="cls-6" d="M18.045,18.443c-.033.024-.011.086.063.116"/>
        <path id="Path_3439" data-name="Path 3439" class="cls-6" d="M17.92,18.533c-.041.022-.02.135.059.146"/>
        <path id="Path_3440" data-name="Path 3440" class="cls-6" d="M18.759,18.464c-.065,0-.163-.006-.178.021"/>
        <path id="Path_3441" data-name="Path 3441" class="cls-7" d="M17.731,18.959c-.169-.073-.137-.258-.011-.284s.13.054.13.1S17.675,18.853,17.731,18.959Z"/>
        <path id="Path_3442" data-name="Path 3442" class="cls-7" d="M17.456,18.7a.155.155,0,0,1,.095-.277.1.1,0,0,1,.074.165C17.58,18.625,17.423,18.557,17.456,18.7Z"/>
        <path id="Path_3443" data-name="Path 3443" class="cls-7" d="M18.828,18.909c.186-.022.2-.159.156-.241a.113.113,0,0,0-.165-.047c-.028.028-.063.1,0,.14S18.878,18.851,18.828,18.909Z"/>
        <path id="Path_3444" data-name="Path 3444" class="cls-6" d="M17.792,18.363c.05.013.08.036.082.062"/>
      </g>
      <g id="Group_1410" data-name="Group 1410">
        <path id="Path_3445" data-name="Path 3445" class="cls-5" d="M16.491,17.424c.087.034.338.107.572.172a.56.56,0,0,0-.221.1c-.147-.034-.408-.079-.553-.1-.089.084-.132.092-.163.054a.853.853,0,0,0-.182-.115.172.172,0,0,1-.1.037c-.045.045-.084.053-.117.041-.037.062-.074.087-.143.025a.347.347,0,0,1-.1-.226.085.085,0,0,1,.076-.088.128.128,0,0,1,.142-.109.164.164,0,0,1,.2-.123c.13.017.434-.06.5.03C16.454,17.2,16.589,17.332,16.491,17.424Z"/>
        <g id="Group_1408" data-name="Group 1408">
          <path id="Path_3446" data-name="Path 3446" class="cls-6" d="M15.563,17.33c-.009.03.035.069.061.142a.249.249,0,0,0,.109.147"/>
          <path id="Path_3447" data-name="Path 3447" class="cls-6" d="M15.706,17.221a.15.15,0,0,0,.005.066,1.006,1.006,0,0,1,.056.193c.006.049.031.1.082.1"/>
          <path id="Path_3448" data-name="Path 3448" class="cls-6" d="M16.222,17.519a.154.154,0,0,1-.108-.163c0-.06-.1-.1-.184-.054s-.118.157-.018.219l.034.02"/>
          <path id="Path_3449" data-name="Path 3449" class="cls-6" d="M16.491,17.424c-.05.047-.085.075-.2.178"/>
        </g>
        <g id="Group_1409" data-name="Group 1409">
          <path id="Path_3450" data-name="Path 3450" class="cls-7" d="M15.858,17.577a.169.169,0,0,0,.245.058,1.6,1.6,0,0,0-.158-.094A.162.162,0,0,1,15.858,17.577Z"/>
          <path id="Path_3451" data-name="Path 3451" class="cls-7" d="M15.746,17.621a.181.181,0,0,0,.241.044.171.171,0,0,1-.128-.088h-.008A.115.115,0,0,1,15.746,17.621Z"/>
          <path id="Path_3452" data-name="Path 3452" class="cls-7" d="M15.662,17.68c.016.041.119.059.168,0-.024-.009-.075-.032-.085-.063a.03.03,0,0,1-.012,0C15.721,17.639,15.7,17.681,15.662,17.68Z"/>
          <path id="Path_3453" data-name="Path 3453" class="cls-7" d="M16.066,17.053c-.195-.013-.243.144-.234.273,0,.065.062.074.121.058.039-.011.069-.043.048-.118A.185.185,0,0,1,16.066,17.053Z"/>
        </g>
      </g>
      <path id="Path_3454" data-name="Path 3454" class="cls-5" d="M15.409,14.3a.251.251,0,0,1-.006.3c.011-.06.017-.168-.033-.215Z"/>
      <path id="Path_3455" data-name="Path 3455" class="cls-15" d="M15.45,15.162c-.378.149-.467-.071-.471-.153a.763.763,0,0,0-.052-.254.2.2,0,0,1,.091-.284,2.293,2.293,0,0,0,.312-.215c.065-.056.131-.1.091.034a.651.651,0,0,1-.13.249c-.069.069-.117.142-.056.193s.23-.039.308-.12c.017.043-.052.125-.121.146s-.22.057-.208.116c.017.086.191.013.338.026A.3.3,0,0,0,15.45,15.162Z"/>
      <path id="Path_3456" data-name="Path 3456" class="cls-15" d="M16.125,17.427a.364.364,0,0,0,.236-.526c-.173-.421-.687-.115-.815-.3-.182-.258-.145-.414.312-.752.442-.327.4-.548.256-.688-.035-.041-.163-.159-.26-.155a.162.162,0,0,0-.146.189c.117.085.168.247.042.34-.4.294-.776.589-.6,1.113a.5.5,0,0,0,.594.331c.2.009.377-.009.312.12a.307.307,0,0,1-.061.077.338.338,0,0,0,.012.1.117.117,0,0,1,.093.038C16.125,17.353,16.112,17.4,16.125,17.427Z"/>
      <path id="Path_3457" data-name="Path 3457" class="cls-9" d="M15.484,16.212c-.075.133-.042.245.062.391.128.181.642-.125.815.3a.365.365,0,0,1-.236.526c-.013-.024,0-.073-.027-.107A.122.122,0,0,0,16,17.281a.309.309,0,0,1-.012-.1.326.326,0,0,0,.061-.077c.065-.129-.126-.112-.325-.12C15.269,16.962,15.3,16.436,15.484,16.212Z"/>
      <path id="Path_3458" data-name="Path 3458" class="cls-9" d="M15.716,15.109a.166.166,0,0,1,.138-.1c.1,0,.225.114.26.155.139.134.184.344-.2.648A.409.409,0,0,0,15.716,15.109Z"/>
      <path id="Path_3459" data-name="Path 3459" class="cls-15" d="M15.662,17.68c-.283.229-.519.075-.58-.247-.04-.215-.1-.258-.273-.382-.27-.189-.16-.426-.091-.619s-.017-.271-.152-.335-.434-.223-.013-.215a.44.44,0,0,1,.369.627c-.078.159-.108.275.139.37s.169.443.338.541a.166.166,0,0,0,.091.02C15.507,17.553,15.572,17.667,15.662,17.68Z"/>
      <g id="Group_1411" data-name="Group 1411">
        <path id="Path_3460" data-name="Path 3460" class="cls-9" d="M14.41,15.888a.068.068,0,0,0-.026-.122c-.094-.024-.1.056-.154.072-.071.021-.087.043-.025.1.043.036.005.113.1.138a.068.068,0,0,0,.082-.094A.085.085,0,0,1,14.41,15.888Z"/>
        <path id="Path_3461" data-name="Path 3461" class="cls-9" d="M14.517,15.916a.068.068,0,0,0-.026-.122c-.094-.024-.1.056-.154.072-.071.021-.087.043-.025.1.043.036.005.113.1.137A.068.068,0,0,0,14.494,16,.081.081,0,0,1,14.517,15.916Z"/>
        <path id="Path_3462" data-name="Path 3462" class="cls-9" d="M14.624,15.943a.068.068,0,0,0-.026-.122c-.094-.024-.1.056-.154.072-.071.021-.087.043-.025.1.043.036.005.113.1.137a.068.068,0,0,0,.083-.094A.083.083,0,0,1,14.624,15.943Z"/>
      </g>
      <g id="Group_1413" data-name="Group 1413">
        <path id="Path_3463" data-name="Path 3463" class="cls-6" d="M15.715,15.108a.41.41,0,0,1,.2.7"/>
        <path id="Path_3464" data-name="Path 3464" class="cls-6" d="M15.78,15.512a.545.545,0,0,0,.041.367"/>
        <path id="Path_3465" data-name="Path 3465" class="cls-6" d="M15.813,15.886c-.093-.022-.312-.069-.382-.09"/>
        <path id="Path_3466" data-name="Path 3466" class="cls-6" d="M15.639,15.619a1.142,1.142,0,0,0,.017.4"/>
        <path id="Path_3467" data-name="Path 3467" class="cls-6" d="M15.594,15.658c.067-.009.4.071.425.026"/>
        <path id="Path_3468" data-name="Path 3468" class="cls-6" d="M15.826,15.415c0,.077.228.26.141.346"/>
        <path id="Path_3469" data-name="Path 3469" class="cls-6" d="M15.769,15.525c.05.017.284-.056.251-.15"/>
        <path id="Path_3470" data-name="Path 3470" class="cls-6" d="M15.425,15.8a1.608,1.608,0,0,0,.089.359"/>
        <path id="Path_3471" data-name="Path 3471" class="cls-6" d="M15.279,15.952c.076-.017.288.084.368.069"/>
        <path id="Path_3472" data-name="Path 3472" class="cls-6" d="M15.13,16.217c.022-.06.353-.017.4-.069"/>
        <path id="Path_3473" data-name="Path 3473" class="cls-6" d="M15.262,15.97c-.034.05.113.229.166.324"/>
        <path id="Path_3474" data-name="Path 3474" class="cls-6" d="M15.128,16.225c-.017.069.249.193.238.249"/>
        <path id="Path_3475" data-name="Path 3475" class="cls-6" d="M15.115,16.52c-.011-.079.275-.183.316-.236"/>
        <path id="Path_3476" data-name="Path 3476" class="cls-6" d="M15.182,16.732c-.039-.095.173-.239.193-.307"/>
        <path id="Path_3477" data-name="Path 3477" class="cls-6" d="M15.121,16.543c.033-.032.221.03.236.125"/>
        <g id="Group_1412" data-name="Group 1412">
          <path id="Path_3478" data-name="Path 3478" class="cls-6" d="M15.375,16.457c.022.013.082,0,.1.026"/>
          <path id="Path_3479" data-name="Path 3479" class="cls-6" d="M15.36,16.578c0,.028.163,0,.186.026"/>
          <path id="Path_3480" data-name="Path 3480" class="cls-6" d="M15.383,16.739c-.013-.047.108-.144.18-.11"/>
          <path id="Path_3481" data-name="Path 3481" class="cls-6" d="M15.444,16.857c-.015-.047.089-.223.154-.208"/>
          <path id="Path_3482" data-name="Path 3482" class="cls-6" d="M15.55,16.939c-.035-.021.069-.269.15-.271"/>
          <path id="Path_3483" data-name="Path 3483" class="cls-6" d="M15.683,16.975c-.039,0,.042-.309.133-.309"/>
          <path id="Path_3484" data-name="Path 3484" class="cls-6" d="M15.787,16.982c-.054,0,.019-.313.124-.319"/>
          <path id="Path_3485" data-name="Path 3485" class="cls-6" d="M15.906,16.986c-.056,0,0-.324.093-.322"/>
          <path id="Path_3486" data-name="Path 3486" class="cls-6" d="M15.986,17c-.052-.015.043-.334.115-.318"/>
          <path id="Path_3487" data-name="Path 3487" class="cls-6" d="M16.049,17.018c-.045-.045.1-.333.15-.305"/>
          <path id="Path_3488" data-name="Path 3488" class="cls-6" d="M16.064,17.044c-.009-.03.206-.292.238-.245"/>
          <path id="Path_3489" data-name="Path 3489" class="cls-6" d="M16.06,17.089c.013-.041.319-.159.329-.112"/>
          <path id="Path_3490" data-name="Path 3490" class="cls-6" d="M16.036,17.128c.026-.034.382-.069.369,0"/>
          <path id="Path_3491" data-name="Path 3491" class="cls-6" d="M16.014,17.158c.024-.026.392.015.358.069"/>
          <path id="Path_3492" data-name="Path 3492" class="cls-6" d="M15.995,17.2c.076,0,.351.073.319.1"/>
          <path id="Path_3493" data-name="Path 3493" class="cls-6" d="M16,17.255c.119.013.271.084.234.116"/>
        </g>
        <path id="Path_3494" data-name="Path 3494" class="cls-6" d="M15.2,16.763c.022.041.143-.013.186-.024"/>
        <path id="Path_3495" data-name="Path 3495" class="cls-6" d="M15.3,16.885c.03.028.11,0,.154-.022"/>
        <path id="Path_3496" data-name="Path 3496" class="cls-6" d="M15.823,15.383c0-.052.074-.116.128-.131"/>
        <path id="Path_3497" data-name="Path 3497" class="cls-6" d="M16.014,15.357a.736.736,0,0,1-.241-.1"/>
        <path id="Path_3498" data-name="Path 3498" class="cls-6" d="M15.815,15.138c.03-.032.108-.116.143-.1"/>
        <path id="Path_3499" data-name="Path 3499" class="cls-6" d="M15.921,15.213c.037-.045.108-.131.145-.1"/>
        <path id="Path_3500" data-name="Path 3500" class="cls-6" d="M15.982,15.293c.046-.045.143-.118.171-.082"/>
        <path id="Path_3501" data-name="Path 3501" class="cls-6" d="M16.019,15.366c.061-.047.176-.1.189-.049"/>
        <path id="Path_3502" data-name="Path 3502" class="cls-6" d="M16.049,15.462c.076-.041.169-.1.163-.052"/>
        <path id="Path_3503" data-name="Path 3503" class="cls-6" d="M16.051,15.553c.065-.03.141-.062.124-.03"/>
        <path id="Path_3504" data-name="Path 3504" class="cls-6" d="M16.04,15.63a.222.222,0,0,1,.078-.019"/>
        <path id="Path_3505" data-name="Path 3505" class="cls-6" d="M15.507,14.9c-.072,0-.215.314-.282.309"/>
        <path id="Path_3506" data-name="Path 3506" class="cls-6" d="M15.106,15.19c-.045-.03.119-.26.217-.271"/>
        <path id="Path_3507" data-name="Path 3507" class="cls-6" d="M14.976,14.983c0-.067.15-.137.238-.129"/>
        <path id="Path_3508" data-name="Path 3508" class="cls-6" d="M15.212,14.863c-.072.015-.145.187-.028.346"/>
        <path id="Path_3509" data-name="Path 3509" class="cls-6" d="M15.24,14.912c-.041.071.115.226.182.258"/>
        <path id="Path_3510" data-name="Path 3510" class="cls-6" d="M15.186,17.678c.039.052.273-.067.338-.122"/>
        <path id="Path_3511" data-name="Path 3511" class="cls-6" d="M15.409,17.427c.043.026-.1.361,0,.363"/>
        <path id="Path_3512" data-name="Path 3512" class="cls-6" d="M15.325,17.341c.048.127-.18.271-.152.322"/>
        <path id="Path_3513" data-name="Path 3513" class="cls-6" d="M15.271,17.19c.017.062-.195.256-.165.335"/>
        <path id="Path_3514" data-name="Path 3514" class="cls-6" d="M15.128,16.915c.041.032-.139.249-.1.346"/>
        <path id="Path_3515" data-name="Path 3515" class="cls-6" d="M14.887,17.106c.048.036.321-.1.362.009"/>
        <path id="Path_3516" data-name="Path 3516" class="cls-6" d="M15.087,17.442c.009.047.206.058.349,0"/>
        <path id="Path_3517" data-name="Path 3517" class="cls-6" d="M15.041,17.278a.214.214,0,0,0,.28.049"/>
        <path id="Path_3518" data-name="Path 3518" class="cls-6" d="M15.017,16.861c-.039-.019-.212.187-.167.219"/>
        <path id="Path_3519" data-name="Path 3519" class="cls-6" d="M14.716,16.965c-.041-.052.143-.219.184-.183"/>
        <path id="Path_3520" data-name="Path 3520" class="cls-6" d="M14.644,16.825c-.024-.082.206-.159.223-.112"/>
        <path id="Path_3521" data-name="Path 3521" class="cls-6" d="M14.649,16.649c.02-.077.234-.1.223-.011"/>
        <path id="Path_3522" data-name="Path 3522" class="cls-6" d="M14.7,16.487c.033-.092.249-.037.223.021"/>
        <path id="Path_3523" data-name="Path 3523" class="cls-6" d="M14.735,16.374c.011-.069.221-.095.219,0"/>
        <path id="Path_3524" data-name="Path 3524" class="cls-6" d="M14.735,16.253c-.013-.071.178-.142.2-.054"/>
        <path id="Path_3525" data-name="Path 3525" class="cls-6" d="M14.7,16.185c-.052-.065.15-.183.186-.129"/>
        <path id="Path_3526" data-name="Path 3526" class="cls-6" d="M14.657,16.15c-.061-.039.065-.245.117-.206"/>
        <path id="Path_3527" data-name="Path 3527" class="cls-6" d="M15.089,14.818a.153.153,0,0,1,.009-.168.356.356,0,0,0,.1-.151c.013-.045-.017-.027-.034-.014s-.049.009-.047-.014a.079.079,0,0,1,.06-.063c.022,0,.022.024.017.039"/>
      </g>
    </g>
  </g>
</svg>
