<svg id="Pen" xmlns="http://www.w3.org/2000/svg" viewBox="0 0 35.174 34.869">
  <defs>
    <style>
      .cls-1 {
        fill: #c33c18;
      }

      .cls-2 {
        fill: #f7f7f8;
      }
    </style>
  </defs>
  <path id="Path_3219" data-name="Path 3219" class="cls-1" d="M13.363,34.353A17.439,17.439,0,1,1,21.811.514a17.439,17.439,0,1,1-8.448,33.839"/>
  <path id="Path_3220" data-name="Path 3220" class="cls-1" d="M11.681,33.852V1.016a17.383,17.383,0,0,0,0,32.836"/>
  <path id="Path_3221" data-name="Path 3221" class="cls-2" d="M21.2.377,21.09.354l-.2-.039L20.78.294l-.2-.036-.1-.018L20.222.2l-.05-.008-.3-.042L19.787.14,19.564.113,19.458.1l-.2-.02-.111-.01-.2-.017-.1-.008c-.077-.006-.155-.01-.232-.015l-.07,0c-.1-.006-.2-.01-.305-.014l-.05,0L17.933,0h-.1l-.208,0h-.1l-.2,0-.1,0L17,.011l-.077,0q-.3.01-.6.033L16.24.053l-.22.018-.1.009q-.1.009-.207.021l-.094.01L15.4.137l-.077.009q-.3.039-.6.087l-.053.009c-.08.013-.16.027-.239.042L14.357.3,14.143.34l-.085.017L13.839.4l-.073.016L13.5.48l-.02,0q-.14.033-.279.069h0q-.773.2-1.522.464V33.854q.819.288,1.682.5a17.688,17.688,0,0,0,6.984.3l.03-.005.247-.041.052-.009.23-.042.069-.013.217-.044.082-.017c.069-.015.137-.029.2-.045l.095-.022.192-.045.145-.036.216-.056.213-.058.093-.027.2-.058.094-.029.2-.062.092-.03.2-.066.09-.031.2-.07.047-.017h0l.124-.044V1.083l-.124-.043v0c-.1-.037-.207-.071-.311-.106l-.03-.01C23.076.877,22.94.833,22.8.791L22.745.773C22.617.734,22.487.7,22.357.661L22.275.638C22.12.6,21.965.555,21.808.517c-.1-.025-.2-.049-.3-.072l-.1-.021c-.066-.018-.135-.033-.2-.047"/>
</svg>
