<svg id="usd" xmlns="http://www.w3.org/2000/svg" viewBox="0 0 35.175 34.867">
  <defs>
    <style>
      .cls-1 {
        fill: #f7f7f8;
      }

      .cls-2 {
        fill: #c33c18;
      }

      .cls-3 {
        fill: #00386d;
      }
    </style>
  </defs>
  <path id="Path_2859" data-name="Path 2859" class="cls-1" d="M.52,13.246A17.591,17.591,0,0,1,21.812.515a17.439,17.439,0,1,1-8.449,33.838A17.418,17.418,0,0,1,.52,13.246"/>
  <path id="Path_2860" data-name="Path 2860" class="cls-2" d="M33.851,10.805H20.229v2.669H34.716a17.357,17.357,0,0,0-.865-2.669m-3.477-5.34H20.229V8.136H32.461a17.537,17.537,0,0,0-2.087-2.671M4.888,29.491h25.4a17.338,17.338,0,0,0,2.118-2.669H2.773a17.556,17.556,0,0,0,2.115,2.669M21.812.514C21.284.384,20.756.281,20.228.2V2.8h6.914A17.626,17.626,0,0,0,21.812.514M35.127,16.142h-14.9v2.671H35.117a17.142,17.142,0,0,0,.01-2.671M1.363,24.153H33.815a17.45,17.45,0,0,0,.841-2.533c.012-.046.022-.092.033-.138H.482a17.4,17.4,0,0,0,.881,2.671m12,10.2a17.859,17.859,0,0,0,3.115.479h2.238a17.7,17.7,0,0,0,8.277-2.671H8.174a17.644,17.644,0,0,0,5.189,2.192"/>
  <path id="Path_2861" data-name="Path 2861" class="cls-3" d="M18.9,17.835l-.38-.275-.381.275.145-.442-.379-.274h.469l.146-.442.144.442h.47l-.379.274ZM17.028,3.788l.145.445-.379-.274-.38.274.146-.445-.381-.272h.469l.146-.445.145.445h.47Zm0,4.013.145.442-.379-.275-.38.275L16.56,7.8l-.381-.274h.469l.146-.442.145.442h.47Zm-.035,3.931.145.442-.38-.275-.38.275.145-.442-.381-.274h.471l.145-.442.145.442h.47Zm.11,4.329-.381-.275-.379.275.145-.442-.38-.275h.47l.145-.442.145.442h.471l-.381.275ZM15.234,5.732l.146.442L15,5.9l-.382.272.146-.442-.38-.274h.469L15,5.016l.144.442h.469Zm0,3.889.146.442L15,9.789l-.382.274.146-.442-.38-.274h.469L15,8.9l.144.442h.469Zm0,3.975.146.445L15,13.767l-.382.274.146-.445-.38-.272h.469L15,12.879l.144.445h.469Zm.146,4.239L15,17.56l-.382.275.146-.442-.38-.274h.469L15,16.677l.144.442h.469l-.38.274ZM13.511,3.788l.146.445-.381-.274-.381.274.146-.445-.379-.272h.469l.145-.445.145.445h.47Zm0,4.013.146.442-.381-.275-.381.275.146-.442-.379-.274h.469l.145-.442.145.442h.47Zm-.033,3.931.145.442-.381-.274-.379.275.145-.442-.381-.274H13.1l.146-.442.145.442h.471Zm.109,4.329-.379-.275-.381.275.145-.442-.38-.275h.469l.146-.442.145.442h.469l-.379.275ZM11.719,1.846l.145.442-.379-.274-.381.274.145-.442-.379-.275h.47l.145-.442.145.442h.47Zm0,3.886.145.442L11.485,5.9l-.381.272.145-.442-.379-.274h.47l.145-.442.145.442h.47Zm0,3.889.145.442-.379-.274-.381.274.145-.442-.379-.274h.47l.145-.442.145.442h.47Zm0,3.975.145.445-.379-.274-.381.274.145-.445-.379-.272h.47l.145-.445.145.445h.47Zm.145,4.239-.379-.275-.381.275.145-.442-.379-.274h.47l.145-.442.145.442h.47l-.381.274ZM10,3.648l.146.445L9.76,3.818l-.379.274.146-.445-.381-.271h.469l.145-.442.146.442h.469Zm0,4.013.146.442L9.76,7.831,9.381,8.1l.146-.442-.381-.275h.469l.145-.442.146.442h.469ZM9.96,11.593l.146.442-.38-.275-.382.275.146-.442-.379-.274H9.58l.146-.442.144.442h.47Zm.112,4.331-.381-.275-.379.275.145-.445-.381-.272h.469l.146-.442.145.442h.471l-.38.272ZM8.2,5.732l.146.442L7.97,5.9l-.382.272.146-.442-.379-.275h.468l.147-.442.144.442h.469Zm0,3.889.146.442-.38-.275-.382.274.146-.442-.379-.274h.468L7.97,8.9l.144.442h.469Zm0,3.975.146.444-.38-.274-.382.274.146-.445-.379-.272h.468l.147-.445.144.445h.469Zm.146,4.239-.38-.275-.382.275.146-.442-.379-.274h.468l.147-.442.144.442h.469l-.379.274ZM6.481,7.623l.145.442-.38-.274-.381.274.146-.442-.38-.275H6.1l.145-.442.145.442h.471Zm-.035,3.932L6.591,12l-.379-.274L5.831,12l.145-.442L5.6,11.28h.469l.146-.442.143.442h.471Zm.109,4.328-.379-.274-.38.274.145-.442-.381-.275h.471l.145-.442.146.442h.469l-.381.275Zm8.3-14.312L15,1.129l.144.442h.469l-.38.275.146.442L15,2.014l-.382.274.146-.442-.38-.275h.47ZM18.37,13.324l.146-.445.144.445h.47l-.379.272.145.445-.38-.274-.381.274.145-.445-.379-.272Zm0-3.978.146-.442.144.442h.47l-.379.274.145.442-.38-.274-.381.274.145-.442L17.9,9.346Zm0-3.889.146-.442.144.442h.47l-.379.274.145.442-.38-.272-.381.272.145-.442L17.9,5.457Zm0-3.886.146-.442.144.442h.47l-.379.275.145.442-.38-.274-.381.274.145-.442L17.9,1.571h.469ZM4.688,9.621l.145.442-.38-.274-.379.274.145-.442-.382-.275h.469L4.452,8.9l.145.442h.471Zm0,3.975.145.445-.38-.274-.38.273.145-.445-.381-.272h.469l.146-.445.145.445h.471Zm.145,4.239-.38-.275-.379.275.145-.442-.381-.274h.469l.146-.442.145.442h.471l-.38.274Zm-1.9-6.349.146.442-.381-.274-.38.274.145-.442-.381-.274h.471l.145-.442.146.442h.469Zm.111,4.328-.379-.274-.382.274.146-.442-.38-.274h.469l.146-.442L2.8,15.1h.471l-.381.274ZM1.317,17.835l-.38-.275-.381.275L.7,17.393l-.379-.274h.47l.145-.442.146.442h.468l-.379.274ZM20.229.2C20.056.175,18.774.035,18.6.014L15.441.13a17.712,17.712,0,0,0-8.88,3.726l.065.2-.165-.119A17.348,17.348,0,0,0,4.809,5.457h.259l-.38.274.145.442L4.453,5.9l-.152.11q-.533.607-1.008,1.266h.053l-.11.079c-.078.108-.154.217-.229.326l.1.311L2.9,7.844a17.344,17.344,0,0,0-2.381,5.4c-.007.026-.012.052-.018.078H.793l.145-.445.146.445h.468l-.379.272.145.445-.38-.274-.381.273L.7,13.6l-.226-.162a17.235,17.235,0,0,0-.418,5.4H20.229Z"/>
</svg>
