<svg xmlns="http://www.w3.org/2000/svg" width="286.99" height="208.22" viewBox="0 0 286.99 208.22"><path d="M270.248,64.985h-67.57l7.687-19.739-.07-25.839A19.429,19.429,0,0,0,190.89,0h-4.122A19.431,19.431,0,0,0,167.36,19.407v2.24l-2.518,18.316L120.281,84.2h-4.064V62.485H77.443V70.41H0v129.5H77.443v8.315h38.774V177.413h7.194l10.179,7.451h104.4a16.765,16.765,0,0,0,16.747-16.744v-.86a16.668,16.668,0,0,0-4.321-11.213,16.774,16.774,0,0,0,13.535-16.436v-.86a16.666,16.666,0,0,0-4.048-10.905h1.128A16.765,16.765,0,0,0,277.773,111.1v-.857a16.67,16.67,0,0,0-4.321-11.216A16.774,16.774,0,0,0,286.99,82.591v-.86A16.76,16.76,0,0,0,270.248,64.985ZM5.839,194.066V76.249h71.6V194.066Zm104.539,8.313h-27.1V68.325h27.1V202.379ZM281.153,82.588a10.919,10.919,0,0,1-10.905,10.905h-9.216v5.839a10.919,10.919,0,0,1,10.905,10.907v.857A10.919,10.919,0,0,1,261.031,122H247.207v5.839a10.919,10.919,0,0,1,10.905,10.905v.86a10.919,10.919,0,0,1-10.905,10.905H237.99v5.839A10.919,10.919,0,0,1,248.9,167.258v.86a10.919,10.919,0,0,1-10.907,10.905H135.5l-10.179-7.451h-9.1V90.041h6.47l47.673-47.329,2.814-20.47L173.2,19.4A13.582,13.582,0,0,1,186.772,5.837h4.122A13.582,13.582,0,0,1,204.462,19.4l-.012,2.42.077,22.336L194.139,70.824h76.109a10.919,10.919,0,0,1,10.905,10.905Z" fill="#240a2b"/></svg>